<svg width="115" height="140" viewBox="0 0 115 140" fill="none" xmlns="http://www.w3.org/2000/svg">
<path d="M114.962 119.817C114.962 119.817 94.39 20.1124 94.3798 20.0536C94.2964 19.6045 93.8849 18.8376 93.6469 18.6297L75.5623 0.509562C75.1304 0 74.3652 0 74.3278 0H1.74129C0.779668 0 0 0.781385 0 1.74512V128.428C0 129.393 0.779668 130.173 1.74129 130.173H24.9519L26.7442 138.618C26.9185 139.438 27.6412 140 28.4455 140C28.5654 140 28.687 139.988 28.8094 139.963L74.7495 130.173H92.6045C93.5669 130.173 94.3458 129.393 94.3458 128.428V125.995L113.621 121.888C114.073 121.79 114.467 121.518 114.719 121.131C114.971 120.742 115.058 120.27 114.962 119.817ZM3.48257 126.683V3.49024H72.5899V20.0536C72.5899 21.0173 73.3687 21.7987 74.3312 21.7987H90.8632V126.683H3.48257Z" fill="url(#paint0_linear_1999_263)"/>
<path d="M82.973 52.8394H11.3745C10.4129 52.8394 9.63319 53.6207 9.63319 54.5845C9.63319 55.5482 10.4129 56.3296 11.3745 56.3296H82.973C83.9354 56.3296 84.7143 55.5482 84.7143 54.5845C84.7143 53.6207 83.9354 52.8394 82.973 52.8394Z" fill="url(#paint1_linear_1999_263)"/>
<path d="M11.3745 64.653H76.433C77.3954 64.653 78.1742 63.8716 78.1742 62.9079C78.1742 61.9442 77.3954 61.1628 76.433 61.1628H11.3745C10.4129 61.1628 9.63319 61.9442 9.63319 62.9079C9.63319 63.8716 10.4129 64.653 11.3745 64.653Z" fill="url(#paint2_linear_1999_263)"/>
<path d="M81.1229 69.4879H11.3745C10.4129 69.4879 9.63319 70.2693 9.63319 71.233C9.63319 72.1976 10.4129 72.9781 11.3745 72.9781H81.1229C82.0853 72.9781 82.8641 72.1976 82.8641 71.233C82.8641 70.2693 82.0853 69.4879 81.1229 69.4879Z" fill="url(#paint3_linear_1999_263)"/>
<path d="M70.2602 81.3015C71.2227 81.3015 72.0015 80.521 72.0015 79.5564C72.0015 78.5918 71.2227 77.8113 70.2602 77.8113H11.3745C10.4129 77.8113 9.63319 78.5918 9.63319 79.5564C9.63319 80.521 10.4129 81.3015 11.3745 81.3015H70.2602Z" fill="url(#paint4_linear_1999_263)"/>
<path d="M11.3745 32.3478H57.3128C58.2744 32.3478 59.0541 31.5664 59.0541 30.6027C59.0541 29.639 58.2744 28.8576 57.3128 28.8576H11.3745C10.4129 28.8576 9.63319 29.639 9.63319 30.6027C9.63319 31.5664 10.4129 32.3478 11.3745 32.3478Z" fill="url(#paint5_linear_1999_263)"/>
<path d="M11.3745 40.6729H50.1572C51.1188 40.6729 51.8985 39.8915 51.8985 38.9278C51.8985 37.9641 51.1188 37.1827 50.1572 37.1827H11.3745C10.4129 37.1827 9.63319 37.9641 9.63319 38.9278C9.63319 39.8915 10.4129 40.6729 11.3745 40.6729Z" fill="url(#paint6_linear_1999_263)"/>
<path d="M35.7202 89.1444H13.2025C11.1908 89.1444 9.54477 90.794 9.54477 92.8101V105.375C9.54477 107.391 11.1908 109.041 13.2025 109.041H35.7202C37.7318 109.041 39.3779 107.391 39.3779 105.375V92.8101C39.3779 90.794 37.7318 89.1444 35.7202 89.1444Z" fill="url(#paint7_linear_1999_263)"/>
<path d="M77.4855 89.2313H48.6608C47.6992 89.2313 46.9195 90.0118 46.9195 90.9764C46.9195 91.941 47.6992 92.7215 48.6608 92.7215H77.4855C78.448 92.7215 79.2268 91.941 79.2268 90.9764C79.2268 90.0118 78.448 89.2313 77.4855 89.2313Z" fill="url(#paint8_linear_1999_263)"/>
<path d="M48.6608 100.503H73.2735C74.2359 100.503 75.0148 99.7225 75.0148 98.7579C75.0148 97.7933 74.2359 97.0127 73.2735 97.0127H48.6608C47.6992 97.0127 46.9195 97.7933 46.9195 98.7579C46.9195 99.7225 47.6992 100.503 48.6608 100.503Z" fill="url(#paint9_linear_1999_263)"/>
<path d="M77.4855 104.794H48.6608C47.6992 104.794 46.9195 105.575 46.9195 106.539C46.9195 107.504 47.6992 108.284 48.6608 108.284H77.4855C78.448 108.284 79.2268 107.504 79.2268 106.539C79.2268 105.575 78.448 104.794 77.4855 104.794Z" fill="url(#paint10_linear_1999_263)"/>
<defs>
<linearGradient id="paint0_linear_1999_263" x1="-20.3462" y1="16.1538" x2="114.631" y2="98.2829" gradientUnits="userSpaceOnUse">
<stop stop-color="#3DC0FF"/>
<stop offset="1" stop-color="#8F00FF" stop-opacity="0"/>
</linearGradient>
<linearGradient id="paint1_linear_1999_263" x1="-20.3462" y1="16.1538" x2="114.631" y2="98.2829" gradientUnits="userSpaceOnUse">
<stop stop-color="#3DC0FF"/>
<stop offset="1" stop-color="#8F00FF" stop-opacity="0"/>
</linearGradient>
<linearGradient id="paint2_linear_1999_263" x1="-20.3462" y1="16.1538" x2="114.631" y2="98.2829" gradientUnits="userSpaceOnUse">
<stop stop-color="#3DC0FF"/>
<stop offset="1" stop-color="#8F00FF" stop-opacity="0"/>
</linearGradient>
<linearGradient id="paint3_linear_1999_263" x1="-20.3462" y1="16.1538" x2="114.631" y2="98.2829" gradientUnits="userSpaceOnUse">
<stop stop-color="#3DC0FF"/>
<stop offset="1" stop-color="#8F00FF" stop-opacity="0"/>
</linearGradient>
<linearGradient id="paint4_linear_1999_263" x1="-20.3462" y1="16.1538" x2="114.631" y2="98.2829" gradientUnits="userSpaceOnUse">
<stop stop-color="#3DC0FF"/>
<stop offset="1" stop-color="#8F00FF" stop-opacity="0"/>
</linearGradient>
<linearGradient id="paint5_linear_1999_263" x1="-20.3462" y1="16.1538" x2="114.631" y2="98.2829" gradientUnits="userSpaceOnUse">
<stop stop-color="#3DC0FF"/>
<stop offset="1" stop-color="#8F00FF" stop-opacity="0"/>
</linearGradient>
<linearGradient id="paint6_linear_1999_263" x1="-20.3462" y1="16.1538" x2="114.631" y2="98.2829" gradientUnits="userSpaceOnUse">
<stop stop-color="#3DC0FF"/>
<stop offset="1" stop-color="#8F00FF" stop-opacity="0"/>
</linearGradient>
<linearGradient id="paint7_linear_1999_263" x1="-20.3462" y1="16.1538" x2="114.631" y2="98.2829" gradientUnits="userSpaceOnUse">
<stop stop-color="#3DC0FF"/>
<stop offset="1" stop-color="#8F00FF" stop-opacity="0"/>
</linearGradient>
<linearGradient id="paint8_linear_1999_263" x1="-20.3462" y1="16.1538" x2="114.631" y2="98.2829" gradientUnits="userSpaceOnUse">
<stop stop-color="#3DC0FF"/>
<stop offset="1" stop-color="#8F00FF" stop-opacity="0"/>
</linearGradient>
<linearGradient id="paint9_linear_1999_263" x1="-20.3462" y1="16.1538" x2="114.631" y2="98.2829" gradientUnits="userSpaceOnUse">
<stop stop-color="#3DC0FF"/>
<stop offset="1" stop-color="#8F00FF" stop-opacity="0"/>
</linearGradient>
<linearGradient id="paint10_linear_1999_263" x1="-20.3462" y1="16.1538" x2="114.631" y2="98.2829" gradientUnits="userSpaceOnUse">
<stop stop-color="#3DC0FF"/>
<stop offset="1" stop-color="#8F00FF" stop-opacity="0"/>
</linearGradient>
</defs>
</svg>
