<svg width="60" height="60" viewBox="0 0 60 60" fill="none" xmlns="http://www.w3.org/2000/svg">
<path d="M60 10.6451C60 7.82188 58.8788 5.11424 56.8829 3.11789C54.8871 1.12154 52.1802 0 49.3577 0H18.3984C15.5759 0 12.8689 1.12154 10.8731 3.11789C8.87732 5.11424 7.75608 7.82188 7.75608 10.6451V22.258C7.75608 23.028 8.06187 23.7665 8.60618 24.3109C9.1505 24.8554 9.88874 25.1612 10.6585 25.1612C11.4283 25.1612 12.1665 24.8554 12.7109 24.3109C13.2552 23.7665 13.561 23.028 13.561 22.258V10.6451C13.561 9.36184 14.0706 8.1311 14.9778 7.22366C15.885 6.31623 17.1154 5.80644 18.3984 5.80644H30.9756V14.5161C30.9756 15.2861 31.2814 16.0245 31.8257 16.569C32.37 17.1134 33.1083 17.4193 33.878 17.4193C34.6478 17.4193 35.3861 17.1134 35.9304 16.569C36.4747 16.0245 36.7805 15.2861 36.7805 14.5161V5.80644H49.3577C50.6407 5.80644 51.8711 6.31623 52.7783 7.22366C53.6855 8.1311 54.1951 9.36184 54.1951 10.6451V43.5483C54.1951 44.8316 53.6855 46.0624 52.7783 46.9698C51.8711 47.8772 50.6407 48.387 49.3577 48.387H43.5528C42.7831 48.387 42.0448 48.6929 41.5005 49.2373C40.9562 49.7818 40.6504 50.5203 40.6504 51.2902C40.6504 52.0602 40.9562 52.7987 41.5005 53.3431C42.0448 53.8876 42.7831 54.1935 43.5528 54.1935H49.3577C52.1802 54.1935 54.8871 53.0719 56.8829 51.0756C58.8788 49.0792 60 46.3716 60 43.5483V10.6451Z" fill="url(#paint0_linear_1251_5584)"/>
<path d="M28.1796 49.4903L36.1419 41.6129C36.6509 41.105 37.0547 40.5017 37.3303 39.8374C37.6058 39.1732 37.7477 38.4611 37.7477 37.742C37.7477 37.0228 37.6058 36.3107 37.3303 35.6465C37.0547 34.9822 36.6509 34.3789 36.1419 33.871L28.1796 26.013C27.6258 25.5034 26.8959 25.2288 26.1438 25.2472C25.3916 25.2655 24.6759 25.5753 24.1476 26.1112C23.6194 26.6471 23.3198 27.3673 23.3122 28.1199C23.3045 28.8725 23.5893 29.5986 24.1065 30.1452L28.8762 34.8387H12.9901C9.70755 34.7796 6.52828 35.9872 4.11239 38.2109C1.6965 40.4346 0.229587 43.5036 0.0162208 46.7807C-0.0704336 48.4857 0.190767 50.1906 0.783919 51.7914C1.37707 53.3923 2.28976 54.8556 3.46641 56.0923C4.64307 57.3291 6.05906 58.3133 7.62816 58.9851C9.19727 59.6569 10.8867 60.0022 12.5935 60H16.4634C17.2332 60 17.9714 59.6941 18.5157 59.1497C19.06 58.6052 19.3658 57.8668 19.3658 57.0968C19.3658 56.3268 19.06 55.5883 18.5157 55.0439C17.9714 54.4994 17.2332 54.1936 16.4634 54.1936H12.5935C11.6289 54.1936 10.6754 53.9876 9.79683 53.5893C8.91828 53.191 8.13494 52.6095 7.49923 51.8838C6.86353 51.1582 6.39013 50.305 6.11073 49.3816C5.83133 48.4581 5.75237 47.4855 5.87915 46.529C6.12296 44.8761 6.95894 43.368 8.23147 42.2856C9.50401 41.2032 11.1264 40.6203 12.7966 40.6452H28.8762L24.1065 45.3484C23.5629 45.8928 23.2576 46.6307 23.2576 47.4C23.2576 48.1694 23.5629 48.9073 24.1065 49.4516C24.6526 49.9761 25.3783 50.2722 26.1353 50.2794C26.8924 50.2866 27.6236 50.0043 28.1796 49.4903Z" fill="url(#paint1_linear_1251_5584)"/>
<defs>
<linearGradient id="paint0_linear_1251_5584" x1="-10.6154" y1="6.92308" x2="51.6923" y2="53.0769" gradientUnits="userSpaceOnUse">
<stop stop-color="#3DC0FF"/>
<stop offset="1" stop-color="#8F00FF" stop-opacity="0"/>
</linearGradient>
<linearGradient id="paint1_linear_1251_5584" x1="-10.6154" y1="6.92308" x2="51.6923" y2="53.0769" gradientUnits="userSpaceOnUse">
<stop stop-color="#3DC0FF"/>
<stop offset="1" stop-color="#8F00FF" stop-opacity="0"/>
</linearGradient>
</defs>
</svg>
