<svg width="1468" height="402" viewBox="0 0 1468 402" fill="none" xmlns="http://www.w3.org/2000/svg">
<circle cx="1444" cy="24" r="24" fill="#3D3D3D"/>
<path d="M1436 36V12H1445.81C1447.83 12 1449.51 12.3203 1450.88 12.9609C1452.25 13.6016 1453.28 14.5 1453.98 15.6562C1454.69 16.8047 1455.04 18.1445 1455.04 19.6758C1455.04 21.2148 1454.68 22.5508 1453.97 23.6836C1453.26 24.8086 1452.22 25.6797 1450.84 26.2969C1449.46 26.9063 1447.76 27.2109 1445.75 27.2109H1438.76V23.6016H1445.11C1446.29 23.6016 1447.25 23.4531 1448 23.1562C1448.75 22.8516 1449.3 22.4102 1449.66 21.832C1450.03 21.2461 1450.21 20.5273 1450.21 19.6758C1450.21 18.8242 1450.03 18.0977 1449.66 17.4961C1449.29 16.8867 1448.74 16.4258 1447.99 16.1133C1447.24 15.793 1446.27 15.6328 1445.09 15.6328H1440.74V36H1436ZM1449.52 25.125L1456 36H1450.71L1444.35 25.125H1449.52Z" fill="#171717"/>
<path fill-rule="evenodd" clip-rule="evenodd" d="M620 188.844C620 167.384 624.113 146.475 632.257 126.278C640.41 105.994 652.071 88.0633 667.116 72.5716C682.464 56.7717 699.774 44.7525 719.145 36.4229C738.45 28.1713 758.851 24 780.213 24C801.936 24 822.629 28.1713 842.225 36.5791C861.748 44.9088 878.992 56.9497 893.88 72.5716C909.524 88.862 921.251 107.006 929.191 126.908C937.043 146.861 941 168.565 941 191.913C941 213.842 936.969 234.911 928.83 255.121C920.747 275.327 909.229 293.084 894.332 308.42C878.688 324.376 861.3 336.478 842.008 344.668C822.707 352.92 802.084 357 780.213 357C758.851 357 738.376 352.764 718.779 344.338C699.261 335.852 682.008 323.911 667.111 308.42C651.628 292.307 639.884 274.068 631.966 253.858C623.966 233.583 620 211.888 620 188.848V188.844ZM665.798 190.502C665.798 206.931 668.659 222.575 674.377 237.424C680.112 252.369 688.399 265.573 699.109 277.05C709.601 288.596 721.858 297.412 736.028 303.619C750.12 309.822 764.873 312.982 780.208 312.982C795.905 312.982 810.732 309.904 824.607 303.853C838.399 297.803 850.799 288.848 861.67 277.05C872.379 265.573 880.662 252.369 886.475 237.424C892.267 222.575 895.202 206.931 895.202 190.502C895.202 174.073 892.341 158.507 886.623 143.875C880.888 129.182 872.383 115.817 861.217 103.703C850.508 91.8397 838.177 82.8719 824.228 76.6648C810.367 70.4577 795.688 67.3021 780.208 67.3021C765.238 67.3021 750.846 70.4578 736.828 76.7386C722.893 83.0239 710.27 92.0003 699.109 103.703C688.395 114.862 680.112 127.993 674.377 143.094C668.655 158.117 665.798 173.904 665.798 190.502ZM0 352L138.497 180.926L18.9721 29H72.1908L165.405 147.193L260.165 29H313.598L191.72 180.926L322 348.149V29H365V352H325H322H272.439L164.368 213.936L52.7743 352H0ZM1032 352V29H1075V352H1032ZM1119 352V29H1156.4L1354.25 279.74V29H1397V352H1358.79L1161.53 101.021V352H1119ZM497.018 29L367 352H411.003L512.045 98.9673L615.632 352H660L528.294 29H497.018ZM954.55 310.15C954.55 360.978 938.238 398.348 893 398.348L893.828 402H976.369C992.1 375.607 997 338.354 997 298.412V29H954.55V310.15Z" fill="url(#paint0_linear_268_4128)"/>
<defs>
<linearGradient id="paint0_linear_268_4128" x1="698.5" y1="-148" x2="698.5" y2="444" gradientUnits="userSpaceOnUse">
<stop stop-color="#AEAEAE"/>
<stop offset="1" stop-opacity="0"/>
</linearGradient>
</defs>
</svg>