<svg width="24" height="24" viewBox="0 0 24 24" fill="none" xmlns="http://www.w3.org/2000/svg">
<path d="M3.59961 4.8C3.59961 4.48174 3.72604 4.17651 3.95108 3.95147C4.17612 3.72643 4.48135 3.6 4.79961 3.6H19.1996C19.5179 3.6 19.8231 3.72643 20.0481 3.95147C20.2732 4.17651 20.3996 4.48174 20.3996 4.8V7.2C20.3996 7.51826 20.2732 7.82348 20.0481 8.04853C19.8231 8.27357 19.5179 8.4 19.1996 8.4H4.79961C4.48135 8.4 4.17612 8.27357 3.95108 8.04853C3.72604 7.82348 3.59961 7.51826 3.59961 7.2V4.8ZM3.59961 12C3.59961 11.6817 3.72604 11.3765 3.95108 11.1515C4.17612 10.9264 4.48135 10.8 4.79961 10.8H11.9996C12.3179 10.8 12.6231 10.9264 12.8481 11.1515C13.0732 11.3765 13.1996 11.6817 13.1996 12V19.2C13.1996 19.5183 13.0732 19.8235 12.8481 20.0485C12.6231 20.2736 12.3179 20.4 11.9996 20.4H4.79961C4.48135 20.4 4.17612 20.2736 3.95108 20.0485C3.72604 19.8235 3.59961 19.5183 3.59961 19.2V12ZM16.7996 10.8C16.4813 10.8 16.1761 10.9264 15.9511 11.1515C15.726 11.3765 15.5996 11.6817 15.5996 12V19.2C15.5996 19.5183 15.726 19.8235 15.9511 20.0485C16.1761 20.2736 16.4813 20.4 16.7996 20.4H19.1996C19.5179 20.4 19.8231 20.2736 20.0481 20.0485C20.2732 19.8235 20.3996 19.5183 20.3996 19.2V12C20.3996 11.6817 20.2732 11.3765 20.0481 11.1515C19.8231 10.9264 19.5179 10.8 19.1996 10.8H16.7996Z" fill="#CECECE"/>
</svg>
