<svg width="673" height="632" viewBox="0 0 673 632" fill="none" xmlns="http://www.w3.org/2000/svg">
<path d="M455.5 320.372L464.5 312.872V301.372L461.5 293.872L449.5 285.372L448.059 286.453M455.5 320.372L458.5 312.872V303.372L455.5 297.372L444 290L448.059 286.453M455.5 320.372L447.614 317.086M443.5 315.372L447.614 317.086M587.5 260.5L596.5 252.872V241.372L592.5 234.872L586.5 231.622L580.5 228.372L578.82 229.072M587.5 260.5L590.5 252.872V243.372L587.5 238.372L574.5 230.872L578.82 229.072M587.5 260.5L585.161 258.969M578.141 254.372L585.161 258.969M569.5 240.372L577.5 236.872L585.5 241.872V247.872L578.308 253.066M569.5 240.372V250.872L576.5 254.372M569.5 240.372L577.5 244.872L576.5 254.372M576.5 254.372L578.308 253.066M457 289.872L465.5 286.372L467.525 287.384C470.574 288.909 472.5 292.025 472.5 295.434V298.872L464.5 303.372M572 252.872L554.5 291.372C552.002 297.822 548.5 304.872 543 307.872L498 329.372C493.904 330.679 491 330.872 486 325.872L470.5 300.872M334.5 56.3718V63.3718C334.5 74.9698 360.915 84.3718 393.5 84.3718C426.085 84.3718 452.5 74.9698 452.5 63.3718V56.3718M341.5 73.3718V81.1218C341.5 90.6487 363.886 98.3718 391.5 98.3718C419.114 98.3718 441.5 90.6487 441.5 81.1218V75.3718M483.001 87.872L446 73.3721M357 41.372L271.5 10.372C249.5 3.87219 224.39 10.1837 208.5 17.372C204.052 19.3844 199.715 21.7047 195.5 24.3032M195.5 24.3032L144.5 3.87206C106.5 -6.12819 55.5 24.3031 38 86.3721L1 281.372M195.5 24.3032C185.026 30.7609 175.309 38.9363 166.523 48.3718M1 281.372V297.372L79.5 342.872L87.5 447.872L99 454.872M1 281.372L75 324.372L115.5 116.372C127 82.8718 150 59.3718 166.523 48.3718M99 454.872L114.5 447.872V443.872M99 454.872L97.5 432.872L345 589.872V613.372L359 622.372L375.5 613.372V589.872L565 484.287M581 497.868V475.372L565 484.287M581 497.868V497.872L593 490.872L599.5 377.372L619 367.372C624.918 363.335 626.872 359.153 628 348.372L632.498 271.902M581 497.868C580.975 497.289 569.999 492.966 565 490.872V484.287M632.498 271.902L632.5 271.872M632.498 271.902L665.5 256.372L671 178.372M632.498 271.902L623 276.372L619 348.372C618.085 355.388 615.46 358.017 611 360.872L602 365.372L602.494 355.872M586.5 309.872L604 326.872L602.494 355.872M602.494 355.872C606.799 353.545 608.314 351.338 609 345.372L612.5 277.372L599.5 271.872M166.523 48.3718C110.1 108.966 92.073 221.529 158.5 264.872L187 280.019M187 280.019L357 370.372M187 280.019L93 317.372M79.5 324.372L334 472.872V432.872M334 432.872L363 382.372L392 396.872M334 432.872L362 448.872L392 396.872M392 396.872L415.5 414.151M548 364.372V392.872L426 454.872V438.372M250.5 442.995L91 350.372L96.5 417.372L345 572.372V553.372M250.5 442.995V495.372M250.5 442.995L300 471.74M250.5 495.372L345 553.372M250.5 495.372L300 471.74M345 553.372V497.872L300 471.74M375.5 555.372V572.372L583.5 458.872L586.5 388.372L570.121 396.872M375.5 555.372V497.872L499.788 433.372M375.5 555.372L550.814 460.372M570.121 396.872L567.52 437.372M570.121 396.872L529 418.212M566.5 451.872L567.52 437.372M566.5 451.872L515.5 425.218M566.5 451.872L550.814 460.372M567.52 437.372L529 418.212M529 418.212L515.5 425.218M515.5 425.218L499.788 433.372M550.814 460.372L499.788 433.372M426 438.372V421.872L415.5 414.151M426 438.372L469 416.501M473.5 403.372L484 408.872L469 416.501M469 416.501L451 408.872M415.5 414.151L426 408.872M596 181.872L636 164.872L671 178.372M671 178.372L665.5 180.841M599.5 190.372L622 200.372M622 200.372L617 274.372L660.5 253.872L665.5 180.841M622 200.372L665.5 180.841M590.91 178.164C585.24 144.415 568.75 117.87 542.708 106.403C490.097 83.2387 418.421 130.383 382.616 211.702C346.811 293.022 360.434 377.724 413.045 400.888C436.625 411.27 464.034 407.53 490.326 392.919M590.631 175.872C585.072 140.005 567.868 111.72 540.405 99.6281C485.927 75.6411 411.707 124.458 374.631 208.665C337.554 292.871 351.661 380.579 406.14 404.566C432.339 416.102 463.104 410.799 492.108 392.82M557.162 174.458C524.694 160.162 479.44 191.577 456.083 244.624C432.726 297.672 440.111 352.264 472.579 366.56C505.047 380.855 550.302 349.441 573.659 296.393C579.195 283.819 583.004 271.159 585.161 258.969M391.421 397.551C336.962 373.573 322.86 285.897 359.923 201.721C396.986 117.545 471.179 68.7447 525.638 92.7231L536.5 97.3719M556.114 114.03C503.886 91.0342 432.733 137.835 397.189 218.562C363.386 295.334 373.961 375.143 420 402.557M91.5001 450.372V459.872C97 463.872 103.721 464.907 111 459.872V449.372M350.5 617.372V626.872C356 630.872 362.72 631.907 370 626.872V616.372M569.5 493.372V503.872C575 507.872 581.72 508.907 589 503.872V493.372M492.108 392.82C526.412 390.365 565.854 355.516 588.604 303.848C616.665 240.115 608.701 174.927 570.815 158.246C532.929 141.564 479.468 179.707 451.406 243.44C423.345 307.173 431.309 372.361 469.195 389.043C475.834 391.966 482.951 393.205 490.326 392.919M492.108 392.82C491.513 392.863 490.919 392.896 490.326 392.919M492.108 392.82L490.326 392.919M447.614 317.086C450.3 337.268 459.335 352.99 474.096 359.489C503.696 372.522 545.11 343.528 566.596 294.73C572.798 280.644 576.661 266.448 578.308 253.066M448.059 286.453C449.875 273.882 453.624 260.659 459.404 247.533C480.89 198.734 522.304 169.74 551.904 182.773C567.601 189.685 576.824 207.028 578.82 229.072M453.5 57.3718C453.5 68.9698 426.637 78.3718 393.5 78.3718C360.363 78.3718 333.5 68.9698 333.5 57.3718C333.5 45.7738 360.363 36.3718 393.5 36.3718C426.637 36.3718 453.5 45.7738 453.5 57.3718Z" stroke="url(#paint0_linear_1251_5647)" stroke-width="2"/>
<defs>
<linearGradient id="paint0_linear_1251_5647" x1="-117.538" y1="74.4928" x2="545.967" y2="598.622" gradientUnits="userSpaceOnUse">
<stop stop-color="#3DC0FF"/>
<stop offset="1" stop-color="#8F00FF" stop-opacity="0"/>
</linearGradient>
</defs>
</svg>
