<svg width="230" height="71" viewBox="0 0 230 71" fill="none" xmlns="http://www.w3.org/2000/svg">
<path fill-rule="evenodd" clip-rule="evenodd" d="M186.9 37.0378V9.42871H190.102L207.038 30.8612V9.42871H210.697V37.0378H207.426L190.541 15.5849V37.0378H186.9Z" fill="white"/>
<path fill-rule="evenodd" clip-rule="evenodd" d="M179.496 37.0378V9.42871H183.175V37.0378H179.496Z" fill="white"/>
<path fill-rule="evenodd" clip-rule="evenodd" d="M118.751 37.0378V9.42871H122.43V37.0378H118.751Z" fill="white"/>
<path fill-rule="evenodd" clip-rule="evenodd" d="M91.249 37.0378L103.075 22.4149L92.869 9.42871H97.4133L105.373 19.5315L113.464 9.42871H118.027L107.62 22.4149L119.001 37.0378H114.512L105.284 25.2365L95.7554 37.0378H91.249Z" fill="white"/>
<path fill-rule="evenodd" clip-rule="evenodd" d="M122.571 37.0378L133.718 9.42871H136.4L147.692 37.0378H143.888L135.007 15.4093L126.344 37.0378H122.571Z" fill="white"/>
<path fill-rule="evenodd" clip-rule="evenodd" d="M144.351 23.1219C144.351 21.2832 144.702 19.4917 145.399 17.7612C146.096 16.0233 147.094 14.487 148.381 13.1597C149.693 11.8059 151.174 10.7761 152.831 10.0624C154.482 9.35545 156.227 8.99805 158.054 8.99805C159.912 8.99805 161.682 9.35545 163.358 10.0758C165.028 10.7895 166.503 11.8212 167.777 13.1597C169.115 14.5554 170.118 16.11 170.797 17.8152C171.468 19.5248 171.807 21.3843 171.807 23.3848C171.807 25.2637 171.462 27.0689 170.766 28.8005C170.075 30.5317 169.089 32.0532 167.815 33.3671C166.477 34.7342 164.99 35.7711 163.34 36.4729C161.689 37.1799 159.925 37.5295 158.054 37.5295C156.227 37.5295 154.476 37.1665 152.8 36.4446C151.13 35.7175 149.654 34.6944 148.38 33.3671C147.056 31.9866 146.051 30.4239 145.374 28.6923C144.69 26.9551 144.351 25.0963 144.351 23.1222V23.1219ZM148.268 23.2639C148.268 24.6716 148.513 26.0119 149.002 27.2842C149.492 28.5647 150.201 29.696 151.117 30.6794C152.014 31.6686 153.063 32.424 154.275 32.9558C155.48 33.4872 156.742 33.758 158.054 33.758C159.396 33.758 160.665 33.4943 161.851 32.9759C163.031 32.4574 164.092 31.6902 165.021 30.6794C165.937 29.696 166.646 28.5647 167.143 27.2842C167.639 26.0119 167.89 24.6716 167.89 23.2639C167.89 21.8563 167.645 20.5226 167.156 19.2689C166.665 18.01 165.938 16.8649 164.983 15.827C164.067 14.8105 163.012 14.0422 161.819 13.5104C160.633 12.9785 159.378 12.7082 158.054 12.7082C156.773 12.7082 155.542 12.9785 154.343 13.5167C153.151 14.0552 152.072 14.8243 151.117 15.827C150.201 16.7831 149.492 17.9081 149.002 19.202C148.512 20.4892 148.268 21.8418 148.268 23.2639Z" fill="white"/>
<path fill-rule="evenodd" clip-rule="evenodd" d="M167.618 40.9886C171.498 40.9886 172.897 37.7954 172.897 33.4523V9.42871H176.538V32.4492C176.538 35.8622 176.118 39.0454 174.769 41.3006H167.689L167.618 40.9886Z" fill="white"/>
<path d="M93.9379 57.8363H96.6978C96.6978 58.168 96.6822 58.5165 96.6543 58.8754C97.0667 58.865 97.4044 58.8445 97.6636 58.8174C97.895 58.8174 98.2486 58.8378 98.7236 58.8754C98.6763 57.8363 98.6414 56.9411 98.6097 56.1929V47.1437C98.6097 46.6483 98.6451 45.9956 98.7236 45.1822C97.9738 45.2336 97.2902 45.2678 96.6781 45.2815H94.0086C93.4076 45.2815 92.721 45.2473 91.9355 45.1822C91.9984 45.9138 92.0378 46.5698 92.0534 47.1437C92.0534 54.6446 92.0296 58.8516 91.9828 59.7568C91.9672 59.8903 91.9515 60.0506 91.9355 60.2388C92.367 60.1979 92.705 60.1704 92.9486 60.157C93.0862 60.157 93.4317 60.1845 93.9851 60.2388L93.9379 57.8363ZM93.9379 56.3122V52.2905H96.6978V56.3122H93.9379ZM93.9379 50.8274V46.8844H96.6978V50.8274H93.9379ZM96.4467 60.8777C97.3222 61.4006 97.9269 61.9882 98.2642 62.6409C98.4922 62.5487 98.7317 62.4598 98.9746 62.3813C101.095 61.6056 102.426 60.7171 102.979 59.7193C103.223 59.2785 103.407 58.8308 103.533 58.3763C103.67 57.8158 103.8 57.0196 103.921 55.9943H105.649V60.758C105.649 61.2128 105.77 61.5542 106.014 61.7796C106.246 61.9131 106.552 62.0054 106.937 62.06C107.718 62.1009 108.385 62.1285 108.939 62.1385C109.504 62.1385 110.073 62.1009 110.639 62.0191C110.913 61.9682 111.161 61.9064 111.377 61.8417C111.699 61.7082 111.95 61.4795 112.134 61.1582C112.272 60.9053 112.496 60.3176 112.802 59.3983C112.205 59.2376 111.773 59.0907 111.514 58.9576C111.329 58.8758 111.031 58.6775 110.615 58.3562C110.509 59.3574 110.372 59.9517 110.203 60.1399C110.066 60.2593 109.858 60.3519 109.582 60.4203C109.398 60.4303 109.021 60.4437 108.456 60.4575C108.161 60.4575 107.933 60.427 107.765 60.3586C107.58 60.2797 107.486 60.0443 107.486 59.6583V55.9946H109.351C110.227 55.9946 111.2 56.0255 112.272 56.0939C112.225 55.7213 112.198 55.4345 112.182 55.2326C112.182 55.031 112.213 54.7439 112.272 54.3713C111.216 54.4259 110.234 54.4564 109.328 54.4702H101.554C100.816 54.4702 99.9958 54.4397 99.0929 54.3713C99.136 54.7335 99.1598 55.0202 99.1598 55.2326C99.1598 55.4476 99.136 55.7313 99.0929 56.0939C100.565 56.0393 101.539 56.0084 102.014 55.9946C101.876 57.1565 101.684 58.004 101.436 58.537C101.209 59.029 100.785 59.4768 100.172 59.8766C99.3904 60.3314 98.4997 60.6248 97.5026 60.7584L96.4464 60.8777H96.4467ZM100.93 48.2032C101.256 48.1657 101.586 48.1039 101.919 48.0258C102.289 47.944 102.673 47.8789 103.07 47.8242C103.439 48.7466 103.8 49.5599 104.153 50.2673C103.034 50.8002 101.731 51.2205 100.243 51.5284L99.2974 51.7095C99.7132 52.0405 100.027 52.3143 100.243 52.5296C100.35 52.649 100.549 52.9089 100.84 53.3121C101.115 53.189 101.393 53.0759 101.668 52.9699C102.222 52.7684 102.779 52.5564 103.349 52.3276C103.945 52.116 104.589 51.8356 105.28 51.4871C106.156 52.1703 106.937 52.6761 107.628 53.0112C108.609 53.4895 109.504 53.739 110.317 53.7491C110.792 53.7491 111.216 53.5304 111.581 53.0893C111.813 52.8096 112.166 52.109 112.641 50.988C111.86 50.7489 111.138 50.3149 110.478 49.686C110.388 50.4614 110.301 50.9468 110.227 51.1487C110.073 51.6035 109.873 51.8356 109.626 51.849C109.441 51.849 109.111 51.7605 108.636 51.5894C108.346 51.4663 108.087 51.3399 107.855 51.2067C107.533 51.0327 107.258 50.8616 107.027 50.6875C107.258 50.5269 107.741 50.2126 108.475 49.7477C109.398 49.0642 110.124 48.5651 110.662 48.2441C109.971 47.9641 109.405 47.5914 108.958 47.1236C108.762 47.2842 108.57 47.4583 108.385 47.6428C107.741 48.217 106.889 48.8459 105.833 49.5253C105.538 49.0062 105.248 48.3434 104.957 47.5438C105.51 47.4244 106.076 47.3181 106.657 47.2225L111.466 46.5018C111.313 45.9684 111.223 45.3875 111.191 44.762C110.501 44.9193 109.801 45.0733 109.099 45.2202L105.899 45.7635C105.44 45.8145 104.996 45.89 104.564 45.9822C104.459 45.4217 104.372 44.7553 104.313 43.9795C104.297 43.7404 104.289 43.5116 104.289 43.2993C103.599 43.2993 102.947 43.2379 102.334 43.1182L102.77 46.2418L101.918 46.3612C100.768 46.4806 99.7746 46.5627 98.9307 46.6037C99.0679 47.2842 99.1583 47.9295 99.2055 48.545C99.7746 48.4256 100.348 48.3122 100.929 48.2032H100.93ZM123.528 60.157C123.913 60.3586 124.211 60.5601 124.427 60.7584C124.671 61.0388 125.009 61.4382 125.44 61.9615C125.762 61.4795 125.99 61.179 126.127 61.0592C126.422 60.6181 126.771 60.2871 127.187 60.0577C127.325 59.9792 127.493 59.9316 127.694 59.9178C128.106 59.9178 128.715 60.1057 129.511 60.4779C130.155 60.7717 130.784 61.0179 131.396 61.2199C132.087 61.4215 133.014 61.5855 134.179 61.7186C134.686 61.7599 135.259 61.8004 135.907 61.8417L143.911 61.8793C144.139 61.8793 144.371 61.8863 144.598 61.8994C144.646 61.141 145.023 60.3444 145.729 59.5177L144.877 59.6374C144.724 59.6508 144.563 59.6783 144.395 59.7193C143.472 59.8762 142.514 59.9922 141.517 60.0573C139.676 60.112 138.184 60.1462 137.033 60.1566L134.411 60.0573C133.52 59.9238 132.641 59.7497 131.765 59.5381C131.474 59.4563 131.203 59.3775 130.96 59.2953C130.407 59.0974 129.708 58.8032 128.868 58.4172V51.8869C128.868 51.4496 128.903 50.8344 128.981 50.0449C128.428 50.0992 127.976 50.1334 127.623 50.1475H125.923C125.401 50.1475 124.816 50.1133 124.172 50.0449C124.235 50.448 124.275 50.766 124.29 51.0081C124.29 51.2201 124.251 51.5344 124.172 51.9479C124.816 51.8933 125.393 51.8624 125.9 51.849H126.771V58.4373C126.755 58.4373 126.72 58.4477 126.657 58.4752C126.014 58.769 125.307 59.1484 124.542 59.6166C124.31 59.6984 123.972 59.8762 123.529 60.1566L123.528 60.157ZM125.601 45.1826C126.06 45.7806 126.512 46.6182 126.956 47.684C127.018 47.886 127.093 48.098 127.187 48.3267C127.969 47.9648 128.742 47.7324 129.511 47.6227L127.372 43.7203C126.681 44.0788 125.943 44.3659 125.162 44.5812C125.299 44.7795 125.445 44.981 125.601 45.1826ZM133.995 53.1689C133.889 53.8249 133.743 54.3921 133.559 54.8741C133.237 55.5915 132.915 56.1728 132.593 56.6135C131.992 57.2561 131.517 57.676 131.167 57.8742C130.92 58.0111 130.681 58.1613 130.453 58.3358C131.466 58.5373 132.31 58.8691 132.981 59.3369C133.134 59.1249 133.303 58.9167 133.488 58.7185C134.838 57.02 135.698 55.1712 136.067 53.1685H139.286C139.286 55.8682 139.263 57.4878 139.216 58.0349L139.102 59.3778C139.656 59.3369 140.036 59.3094 140.252 59.2957C140.484 59.2957 140.865 59.3232 141.403 59.3778C141.312 57.936 141.265 57.0337 141.265 56.6748V53.1685H143.428C144.072 53.1685 144.748 53.2094 145.45 53.2916C145.391 52.8881 145.352 52.598 145.337 52.4098C145.337 52.1707 145.376 51.8494 145.45 51.4496C144.716 51.5005 144.041 51.5418 143.428 51.569H141.265V48.4044C142.643 48.4044 143.609 48.4249 144.163 48.4658C144.363 48.4658 144.622 48.4833 144.944 48.5242C144.9 48.1106 144.87 47.8101 144.854 47.6219C144.854 47.4646 144.885 47.1571 144.944 46.7026C144.257 46.7573 143.589 46.7881 142.946 46.8015H141.266C141.266 45.4686 141.297 44.4812 141.356 43.8389C141.356 43.6649 141.372 43.4871 141.403 43.2989C140.881 43.3502 140.512 43.3844 140.3 43.3978C140.163 43.3978 139.77 43.364 139.126 43.2989L139.263 44.8196L139.287 46.7811L136.205 46.822L136.319 43.5172C136.229 43.5172 136.111 43.5243 135.974 43.538C135.499 43.538 134.855 43.4458 134.042 43.2576C134.105 44.3138 134.148 45.1815 134.179 45.8617V46.8015C132.845 46.8015 131.855 46.7744 131.211 46.723C131.027 46.7093 130.838 46.6955 130.639 46.6821C130.681 47.0168 130.713 47.3244 130.729 47.6048C130.729 47.844 130.697 48.1515 130.639 48.5242C131.879 48.4453 132.853 48.4048 133.56 48.4048H134.18V51.5693H132.617C131.926 51.5693 131.074 51.5284 130.062 51.4499C130.125 51.8085 130.164 52.0956 130.179 52.3109C130.179 52.55 130.14 52.8781 130.062 53.292C130.984 53.2373 131.832 53.196 132.617 53.1689H133.995H133.995ZM136.205 51.5697V48.4052H139.287V51.5697H136.205ZM156.502 55.7525C156.961 56.3944 157.315 57.0679 157.558 57.7753L159.054 55.4345C159.282 55.0719 159.482 54.7372 159.651 54.433C159.929 53.9105 160.228 53.2574 160.55 52.4679C160.55 57.2349 160.526 59.9242 160.479 60.5397C160.432 60.9395 160.389 61.4724 160.342 62.1389C160.895 62.0879 161.3 62.0533 161.562 62.0399C161.7 62.0399 162.096 62.0738 162.756 62.1389L162.642 60.4575L162.595 59.1759V52.5705C163.149 53.3426 163.518 53.8792 163.698 54.1697C163.93 54.5457 164.083 54.8257 164.161 55.0139C164.22 55.1709 164.299 55.3319 164.389 55.4922C164.99 55.1608 165.586 54.8837 166.183 54.6721L165.056 53.0692L164.365 52.0885C164.259 51.9278 164.153 51.7809 164.043 51.6478C163.615 51.8494 163.133 52.0305 162.595 52.1878V49.4056H164.161C164.62 49.4056 165.303 49.4398 166.206 49.5049C166.206 49.1464 166.19 48.8455 166.159 48.6064C166.159 48.3635 166.175 48.0559 166.206 47.6833C165.409 47.738 164.711 47.7688 164.114 47.7826H162.594C162.594 46.1421 162.618 45.141 162.665 44.7791C162.665 44.4198 162.696 44.0133 162.756 43.5592C162.233 43.6002 161.853 43.6273 161.605 43.6381C161.33 43.6381 160.91 43.6139 160.341 43.5592L160.549 46.2418V47.783H159.077C158.476 47.783 157.773 47.7525 156.961 47.6837C156.977 48.2579 156.977 48.8663 156.961 49.5053C157.711 49.4677 158.402 49.4335 159.03 49.406H160.318C160.09 49.9664 159.874 50.5339 159.674 51.1082C159.584 51.3882 159.399 51.7538 159.12 52.2083L158.476 53.2708C158.233 53.6706 157.951 54.0704 157.628 54.4702C157.35 54.8462 157.146 55.0991 157.004 55.2322C156.823 55.3929 156.654 55.5669 156.501 55.7518L156.502 55.7525ZM163.078 60.8781C163.679 61.1343 164.114 61.3463 164.389 61.5211C164.574 61.6134 164.813 61.8008 165.104 62.0812C165.288 61.9072 165.473 61.7327 165.657 61.562C166.454 60.7587 167.149 59.8773 167.75 58.9171C168.347 57.9159 168.79 56.863 169.085 55.7529C169.407 54.3378 169.567 52.0621 169.567 48.9255V46.6423H172.971C172.602 55.3732 172.426 59.826 172.441 60.0004C172.441 60.212 172.473 60.4277 172.532 60.6393C172.626 60.9741 172.94 61.2407 173.478 61.4389C173.843 61.5215 174.322 61.562 174.903 61.562C175.378 61.562 175.787 61.5483 176.124 61.5211C176.768 61.4799 177.251 61.3125 177.573 61.0183C177.848 60.7003 178.225 59.884 178.7 58.579C177.902 58.3361 177.204 57.9706 176.608 57.4752C176.36 58.637 176.207 59.286 176.144 59.4195C176.038 59.6586 175.763 59.7784 175.316 59.7784C175.072 59.7784 174.872 59.7204 174.719 59.5973C174.581 59.5188 174.511 59.3447 174.511 59.0781L174.993 47.8458C174.993 47.4732 175.017 47.1109 175.064 46.7625L175.178 44.9412C174.306 45.0231 173.6 45.0606 173.062 45.0606H169.728C169.038 45.0606 168.272 45.0231 167.428 44.9412L167.542 46.9436L167.519 51.9293L167.405 53.4125C167.251 54.6937 166.981 55.8012 166.6 56.734C165.999 58.1758 165.081 59.3723 163.84 60.3188C163.592 60.4928 163.341 60.6806 163.078 60.8789V60.8781ZM189.265 55.6324C189.681 56.1557 190.062 56.8288 190.415 57.6556C190.552 57.3755 190.706 57.1089 190.874 56.856C190.969 56.7224 191.098 56.4733 191.267 56.114L191.864 54.9113C192.049 54.539 192.209 54.1768 192.346 53.8316C192.484 53.4694 192.661 53.0045 192.877 52.4303L192.83 60.7L192.716 62.2002C193.175 62.1456 193.56 62.1151 193.866 62.1013C194.11 62.1013 194.487 62.1355 194.993 62.2002C194.903 60.9599 194.856 60.324 194.856 60.2968L194.832 53.0897C195.107 53.5854 195.37 54.112 195.614 54.6721C195.661 54.8056 195.723 54.9592 195.798 55.1333C196.32 54.8529 196.893 54.6375 197.525 54.4906C197.431 54.3713 197.349 54.2515 197.27 54.1321L198.373 54.0704C198.33 56.5685 197.462 58.5507 195.774 60.0164L195.291 60.4367C195.845 60.5969 196.273 60.7375 196.58 60.8569C196.78 60.9387 197.062 61.0719 197.431 61.2601C197.569 61.0585 197.714 60.8569 197.867 60.6587C198.526 59.7635 199.025 58.8884 199.362 58.0342C199.547 57.515 199.7 56.9884 199.826 56.4517C199.932 55.8128 200.022 55.0199 200.101 54.07H201.573V57.3952C201.573 57.9282 201.534 58.5433 201.459 59.2373C201.918 59.1964 202.24 59.1685 202.425 59.1551C202.578 59.1551 202.876 59.1826 203.32 59.2373C203.273 58.5571 203.237 57.9553 203.206 57.4361V54.0908C203.312 54.0771 203.442 54.0704 203.594 54.0704C203.873 54.0704 204.242 54.1046 204.702 54.1693V52.5701C204.042 52.6081 203.543 52.6352 203.206 52.6486V51.1859C203.206 50.8136 203.245 50.2394 203.32 49.4669C202.95 49.5183 202.645 49.5525 202.401 49.5659C202.201 49.5659 201.887 49.5317 201.459 49.4669C201.518 50.1059 201.557 50.6801 201.573 51.1859V52.6486H200.167L200.148 50.6872C200.159 50.3149 200.191 49.9389 200.238 49.5662C199.901 49.5662 199.595 49.5529 199.319 49.525C199.072 49.525 198.743 49.4841 198.33 49.4056C198.346 49.7782 198.373 50.1676 198.42 50.5678L198.444 52.6486C197.969 52.6077 197.502 52.5768 197.042 52.5493C197.132 52.8297 197.179 53.0688 197.179 53.2704C197.179 53.3493 197.164 53.5096 197.132 53.7487L195.774 51.6266C195.452 51.8282 195.138 51.9952 194.832 52.129V49.2858C195.401 49.2858 196.053 49.32 196.787 49.3851C196.724 48.985 196.689 48.6982 196.673 48.5238C196.673 48.3118 196.712 48.018 196.787 47.642C196.143 47.6967 195.652 47.7309 195.315 47.7447H194.832V45.9197C194.832 45.2261 194.887 44.3343 194.993 43.2372C194.517 43.2781 194.141 43.3056 193.866 43.3194C193.591 43.3194 193.207 43.2918 192.715 43.2372C192.806 44.3343 192.861 45.2328 192.877 45.9402V47.7447H191.887C191.322 47.7447 190.662 47.7104 189.909 47.642C189.972 47.9771 190.011 48.2709 190.023 48.5238C190.023 48.7257 189.987 49.0125 189.909 49.3851C190.69 49.3442 191.342 49.3134 191.864 49.2858H192.625C192.304 50.287 191.935 51.2473 191.518 52.1703C190.921 53.4515 190.301 54.4702 189.658 55.2322C189.52 55.3516 189.387 55.4847 189.265 55.6316V55.6324ZM204.701 48.6071L204.792 51.7304L204.976 54.0131C205.066 54.6524 205.176 55.2672 205.298 55.8552L205.828 57.6355C204.493 58.9171 203.205 59.8193 201.961 60.3385C201.687 60.4307 201.427 60.5471 201.18 60.6803C201.734 60.8785 202.145 61.0667 202.424 61.2407C202.578 61.3329 202.876 61.5791 203.32 61.9823C203.472 61.8491 203.649 61.7119 203.849 61.5791C204.371 61.1656 205.314 60.366 206.68 59.1766C207.017 59.6586 207.292 60.0175 207.508 60.26C207.873 60.7007 208.305 61.073 208.796 61.3806C209.44 61.8213 209.97 62.047 210.382 62.0608C210.751 62.0608 211.112 61.7015 211.462 60.9811C211.556 60.7792 211.631 60.5743 211.693 60.3589C211.784 60.0785 211.909 59.6311 212.063 59.0164C211.403 58.7359 210.774 58.3633 210.174 57.8954C210.131 58.0152 210.107 58.203 210.107 58.4559C210.013 59.3786 209.868 59.8397 209.668 59.8397C209.53 59.7442 209.393 59.6244 209.256 59.4775C208.749 58.9171 208.474 58.6099 208.427 58.5582C208.274 58.3157 208.113 58.0699 207.944 57.817C208.541 56.7745 208.992 55.879 209.302 55.1344C209.593 54.4133 209.86 53.5177 210.107 52.4515C210.166 52.0108 210.252 51.6552 210.359 51.389C210.374 51.1773 210.421 51.0025 210.496 50.8698C210.543 50.6682 210.598 50.4804 210.656 50.3093C210.244 50.2684 209.875 50.2275 209.553 50.1866C209.279 50.149 208.91 50.0668 208.45 49.9475L208.38 50.7095C208.195 52.7498 207.767 54.4416 207.092 55.7741C206.955 54.8923 206.825 54.0142 206.699 53.1324L206.632 51.328L206.585 48.6082H208.658L211.603 48.7276C211.539 48.2865 211.5 47.9793 211.485 47.8049C211.485 47.6301 211.524 47.3333 211.603 46.906L208.611 47.0254H206.585L206.609 45.341C206.609 45.2488 206.656 44.5961 206.746 43.3796C206.056 43.3417 205.305 43.2733 204.493 43.1814C204.493 44.2339 204.548 45.5151 204.654 47.0258C201.388 47.0258 199.303 47.0057 198.396 46.9644L197.363 46.9064C197.406 47.2653 197.438 47.5658 197.454 47.8053C197.454 48.0069 197.422 48.314 197.363 48.728C198.557 48.6733 199.554 48.632 200.351 48.6086H204.701L204.701 48.6071ZM207.669 44.9401C208.172 45.6233 208.45 46.003 208.498 46.0815C208.556 46.2009 208.627 46.334 208.702 46.4809C209.224 46.1908 209.868 45.9275 210.633 45.7022L210.268 45.302L209.185 43.8601C208.847 44.0583 208.565 44.2052 208.333 44.3008C208.105 44.3931 207.783 44.5061 207.367 44.6393C207.461 44.7352 207.56 44.8345 207.669 44.9401Z" fill="white"/>
<path d="M96.702 65.7044C96.702 66.2678 96.4815 66.7137 96.0378 67.0425C95.5945 67.3716 94.9764 67.5353 94.1865 67.5353H92.8093V69.8943H91.7178V63.8757H94.1865C94.9764 63.8757 95.5941 64.0394 96.0378 64.3681C96.4811 64.6973 96.702 65.1432 96.702 65.7048V65.7044ZM95.6105 65.7044C95.6105 65.26 95.4688 64.9535 95.1832 64.7899C94.8975 64.6262 94.4702 64.5437 93.9012 64.5437H92.8097V66.867H93.9012C94.4702 66.867 94.8975 66.784 95.1832 66.6208C95.4688 66.4571 95.6105 66.1507 95.6105 65.7048V65.7044ZM102.873 69.8939H101.735L100.054 67.2887H98.7899V69.8939H97.6984V63.8754H100.072C100.831 63.8754 101.449 64.0104 101.923 64.2796C102.399 64.55 102.636 64.9896 102.636 65.5995C102.636 66.0696 102.478 66.4329 102.162 66.691C101.844 66.9491 101.481 67.1132 101.068 67.1834L102.873 69.8939ZM101.544 65.5991C101.544 65.27 101.411 65.0134 101.141 64.8259C100.872 64.6381 100.436 64.5437 99.835 64.5437H98.7899V66.6208H100.121C100.499 66.6208 100.831 66.5441 101.117 66.3928C101.402 66.2396 101.544 65.9751 101.544 65.5999V65.5991ZM108.855 66.8666C108.855 67.9704 108.626 68.7618 108.166 69.2419C107.709 69.7239 107.067 69.9645 106.245 69.9645C105.42 69.9645 104.772 69.7243 104.299 69.2419C103.823 68.7618 103.586 67.9704 103.586 66.8666C103.586 65.7643 103.823 64.9777 104.299 64.5091C104.772 64.039 105.42 63.8047 106.245 63.8047C107.067 63.8047 107.709 64.039 108.166 64.5091C108.626 64.9777 108.855 65.7643 108.855 66.8666ZM107.715 66.8666C107.715 65.8814 107.573 65.2354 107.288 64.9312C107.004 64.6262 106.656 64.4734 106.245 64.4734C105.833 64.4734 105.477 64.6262 105.177 64.9312C104.876 65.2358 104.726 65.8814 104.726 66.8666C104.726 67.8532 104.876 68.5033 105.177 68.8202C105.477 69.1371 105.833 69.2962 106.245 69.2962C106.656 69.2962 107.004 69.1371 107.288 68.8202C107.573 68.503 107.715 67.8532 107.715 66.8666ZM114.975 67.5003C114.943 68.3925 114.69 69.0255 114.216 69.4011C113.742 69.7771 113.171 69.9645 112.507 69.9645C111.747 69.9645 111.099 69.7366 110.56 69.2784C110.024 68.8206 109.754 68.0875 109.754 67.0786C109.754 65.9748 110.015 65.1551 110.538 64.6143C111.061 64.0754 111.733 63.8051 112.555 63.8051C113.252 63.8051 113.829 63.9988 114.289 64.3863C114.746 64.7735 114.961 65.3187 114.929 66.0231H113.884C113.884 65.5065 113.773 65.1186 113.552 64.8605C113.331 64.6024 112.999 64.4734 112.555 64.4734C112.049 64.4734 111.646 64.6668 111.346 65.0543C111.045 65.4414 110.895 66.0919 110.895 67.0079C110.895 67.8532 111.045 68.4453 111.346 68.786C111.646 69.127 112.033 69.2966 112.509 69.2966C112.855 69.2966 113.173 69.1735 113.457 68.9273C113.742 68.6811 113.884 68.2047 113.884 67.5007H114.975V67.5003ZM120.911 69.8939H116.069V63.8754H120.674V64.5437H117.161V66.4103H120.389V67.0786H117.161V69.2259H120.911V69.8943V69.8939ZM126.985 68.2047C126.985 68.7451 126.756 69.1735 126.296 69.4904C125.839 69.8072 125.213 69.9649 124.421 69.9649C123.631 69.9649 123.014 69.8013 122.57 69.4725C122.126 69.1438 121.905 68.7321 121.905 68.2397V67.9935H122.997V68.2051C122.997 68.5565 123.139 68.8265 123.425 69.0147C123.71 69.2021 124.042 69.297 124.421 69.297C124.927 69.297 125.3 69.1977 125.537 68.9983C125.773 68.7983 125.893 68.5584 125.893 68.2757C125.893 68.0414 125.752 67.8239 125.466 67.6256C125.181 67.4256 124.769 67.2441 124.233 67.0789C123.474 66.8688 122.927 66.6345 122.594 66.376C122.262 66.1179 122.096 65.8133 122.096 65.4604C122.096 64.9676 122.325 64.5697 122.785 64.2647C123.243 63.9598 123.789 63.8065 124.423 63.8065C125.246 63.8065 125.839 63.9884 126.202 64.3521C126.566 64.7166 126.748 65.1086 126.748 65.5326H125.657C125.689 65.2741 125.594 65.0398 125.371 64.8278C125.151 64.6162 124.835 64.5113 124.424 64.5113C124.043 64.5113 123.741 64.5875 123.52 64.7393C123.3 64.8925 123.188 65.0967 123.188 65.3552C123.188 65.5668 123.275 65.749 123.449 65.9007C123.624 66.0536 124.075 66.2355 124.802 66.4471C125.499 66.6572 126.036 66.9097 126.417 67.2024C126.795 67.497 126.986 67.8302 126.986 68.2054L126.985 68.2047ZM133.06 68.2047C133.06 68.7451 132.831 69.1735 132.371 69.4904C131.914 69.8072 131.288 69.9649 130.496 69.9649C129.706 69.9649 129.089 69.8013 128.645 69.4725C128.202 69.1438 127.98 68.7321 127.98 68.2397V67.9935H129.072V68.2051C129.072 68.5565 129.214 68.8265 129.5 69.0147C129.785 69.2021 130.117 69.297 130.496 69.297C131.002 69.297 131.375 69.1977 131.612 68.9983C131.849 68.7983 131.968 68.5584 131.968 68.2757C131.968 68.0414 131.826 67.8239 131.541 67.6256C131.255 67.4256 130.844 67.2441 130.307 67.0789C129.548 66.8688 129.001 66.6345 128.669 66.376C128.337 66.1179 128.171 65.8133 128.171 65.4604C128.171 64.9676 128.4 64.5697 128.86 64.2647C129.317 63.9598 129.864 63.8065 130.498 63.8065C131.32 63.8065 131.914 63.9884 132.276 64.3521C132.641 64.7166 132.823 65.1086 132.823 65.5326H131.731C131.763 65.2741 131.668 65.0398 131.445 64.8278C131.225 64.6162 130.909 64.5113 130.497 64.5113C130.117 64.5113 129.815 64.5875 129.594 64.7393C129.373 64.8925 129.262 65.0967 129.262 65.3552C129.262 65.5668 129.349 65.749 129.524 65.9007C129.698 66.0536 130.149 66.2355 130.876 66.4471C131.573 66.6572 132.11 66.9097 132.49 67.2024C132.869 67.497 133.059 67.8302 133.059 68.2054L133.06 68.2047ZM137.143 69.8939H136.051V63.8754H137.143V69.8939ZM145.116 69.8939H143.929L141.319 65.5318H141.272V69.8939H140.18V63.8754H141.367L143.978 68.2363H144.024V63.8754H145.116V69.8939ZM151.191 69.9645H150.385L150.241 69.4721C150.116 69.6131 149.918 69.7303 149.648 69.8236C149.379 69.9181 149.087 69.9645 148.771 69.9645C148.105 69.9645 147.512 69.7366 146.991 69.2784C146.468 68.8206 146.207 68.0875 146.207 67.0786C146.207 65.9762 146.444 65.1551 146.92 64.6158C147.395 64.0769 148.042 63.8062 148.867 63.8062C149.594 63.8062 150.162 64.0063 150.574 64.4042C150.985 64.8036 151.191 65.3187 151.191 65.9524H150.147C150.147 65.46 150.035 65.0904 149.815 64.8442C149.594 64.598 149.278 64.4745 148.867 64.4745C148.361 64.4745 147.98 64.6679 147.727 65.0558C147.473 65.4429 147.348 66.093 147.348 67.0094C147.348 67.877 147.506 68.4751 147.822 68.8038C148.138 69.1326 148.502 69.2962 148.913 69.2962C149.324 69.2962 149.649 69.185 149.886 68.9615C150.122 68.7391 150.242 68.3925 150.242 67.9235V67.5364H148.772V66.8681H151.191V69.9645ZM163.484 69.8939H162.534V65.5991H162.439L161.301 69.8939H160.542L159.404 65.5991H159.308V69.8939H158.359V63.8754H159.831L160.874 67.8499H160.969L162.012 63.8754H163.484V69.8939ZM169.847 69.8939H168.709L168.081 68.0288H165.916L165.289 69.8939H164.15L166.524 63.8062H167.474L169.847 69.8939ZM167.82 67.3605L167.032 65.2131H166.965L166.177 67.3605H167.82H167.82ZM175.73 67.5007C175.698 68.3929 175.445 69.0259 174.971 69.4015C174.497 69.7775 173.926 69.9649 173.262 69.9649C172.502 69.9649 171.854 69.7369 171.316 69.2788C170.779 68.8209 170.51 68.0879 170.51 67.0789C170.51 65.9751 170.771 65.1554 171.294 64.6147C171.816 64.0758 172.488 63.8054 173.311 63.8054C174.008 63.8054 174.585 63.9992 175.045 64.3867C175.502 64.7739 175.717 65.3191 175.684 66.0235H174.64C174.64 65.5069 174.528 65.119 174.307 64.8609C174.087 64.6028 173.754 64.4737 173.311 64.4737C172.805 64.4737 172.402 64.6671 172.102 65.0547C171.8 65.4418 171.651 66.0923 171.651 67.0083C171.651 67.8536 171.8 68.4457 172.102 68.7864C172.402 69.1274 172.789 69.297 173.265 69.297C173.611 69.297 173.929 69.1739 174.213 68.9277C174.498 68.6815 174.64 68.2051 174.64 67.5011H175.731L175.73 67.5007ZM181.569 69.8943H180.477V67.0786H177.772V69.8943H176.68V63.8757H177.772V66.4106H180.477V63.8757H181.569V69.8943ZM185.747 69.8943H184.655V63.8757H185.747V69.8943ZM193.72 69.8943H192.533L189.923 65.5322H189.876V69.8943H188.785V63.8757H189.972L192.582 68.2367H192.629V63.8757H193.72V69.8943H193.72ZM199.893 69.8943H195.05V63.8757H199.656V64.544H196.142V66.4106H199.37V67.0789H196.142V69.2263H199.893V69.8946V69.8943ZM206.157 69.8943H205.018L203.338 67.2891H202.073V69.8943H200.982V63.8757H203.355C204.115 63.8757 204.733 64.0107 205.207 64.28C205.682 64.5504 205.92 64.9899 205.92 65.5999C205.92 66.07 205.762 66.4333 205.446 66.6914C205.128 66.9495 204.765 67.1135 204.352 67.1838L206.157 69.8943ZM204.828 65.5995C204.828 65.2704 204.695 65.0138 204.425 64.8263C204.156 64.6385 203.72 64.544 203.119 64.544H202.074V66.6211H203.405C203.783 66.6211 204.115 66.5445 204.401 66.3931C204.686 66.2399 204.828 65.9755 204.828 65.6002V65.5995ZM212.281 63.8757L210.049 67.1838V69.8943H208.957V67.1838L206.726 63.8757H207.817L209.478 66.4407H209.529L211.19 63.8757H212.281H212.281Z" fill="white"/>
<path fill-rule="evenodd" clip-rule="evenodd" d="M0.000976562 13.8215V9.11768H22.2613C26.4304 9.11768 30.046 9.67219 33.0908 10.7965C36.1326 11.9207 39.3634 13.8766 42.7946 16.6993C46.2808 13.6549 49.6398 11.6444 52.868 10.6302C56.0961 9.61714 60.7814 9.11768 66.9442 9.11768H88.3351V13.8215H66.0948C60.0632 13.8215 55.4527 14.4013 52.222 15.5553C48.9983 16.7068 45.9126 18.8951 42.9612 22.1046C38.5143 18.6001 35.0463 16.3486 32.5181 15.3341C29.9929 14.3199 26.5405 13.8219 22.1513 13.8219H0.00133975L0.000976562 13.8215Z" fill="#B2B3B3"/>
<path fill-rule="evenodd" clip-rule="evenodd" d="M0.000976562 51.5491V46.5306H21.9846C25.1942 46.5306 27.4219 45.9352 28.7001 44.7418C30.2067 43.3352 30.9687 41.5136 30.9687 39.2804C30.9687 36.9385 30.1743 35.1113 28.6071 33.8022C27.0396 32.4931 24.8431 31.8285 22.04 31.8285H0.00133975V26.9565H21.8734C25.8041 26.9565 28.8727 27.7424 31.061 29.3367C32.5423 30.416 33.7357 31.8649 34.6402 33.6906C35.5443 35.4996 35.9876 37.3617 35.9876 39.2804C35.9876 41.2924 35.4896 43.2661 34.4751 45.1665C33.4594 47.0852 32.1473 48.5765 30.5262 49.6487C28.606 50.9187 25.7096 51.5495 21.8184 51.5495H0.00133975L0.000976562 51.5491Z" fill="#8B8C8C"/>
<path fill-rule="evenodd" clip-rule="evenodd" d="M88.334 51.549H66.7398C61.3732 51.549 57.5284 50.9491 55.2658 49.7051C53.471 48.7173 52.0179 47.2319 50.9119 45.2761C49.8226 43.3392 49.2695 41.2554 49.2695 39.0586C49.2695 36.938 49.804 34.9263 50.8553 33.0073C51.9261 31.1084 53.3426 29.713 55.0623 28.8014C57.3436 27.5928 61.095 26.9561 66.3519 26.9561H88.334V31.828H66.4634C62.5358 31.828 59.7733 32.1791 58.1421 32.8054C56.9895 33.2487 56.0397 34.0598 55.3018 35.2771C54.5643 36.5129 54.1943 37.8224 54.1943 39.2245C54.1943 42.4344 55.6377 44.6226 58.5117 45.8105C60.1381 46.4837 62.792 46.8448 66.4634 46.8448H88.334V51.5486V51.549Z" fill="#8B8C8C"/>
<path fill-rule="evenodd" clip-rule="evenodd" d="M88.3341 60.7908H66.2422C61.9631 60.7908 58.6602 60.5327 56.335 60.0344C54.0099 59.5364 51.7963 58.5769 49.7125 57.1744C47.0359 55.3673 44.8406 52.8588 43.1071 49.6474C40.0456 53.7983 36.9458 56.6946 33.7913 58.337C30.6368 59.9793 26.5763 60.7904 21.5958 60.7904H0.000363188V56.0315H21.8725C26.596 56.0315 30.3995 55.02 33.2747 53.0054C35.3235 51.5705 36.9822 49.5742 38.2184 47.0277C39.4543 44.501 40.082 41.8627 40.082 39.1143C40.082 34.2993 38.42 30.3322 35.0821 27.2521C31.7424 24.1723 27.4804 22.6401 22.2604 22.6401H0V18.2114H22.5731C31.1522 18.2114 37.8677 21.8639 42.7382 29.0591C45.6528 24.7789 48.7143 21.9007 51.9253 20.425C55.1338 18.9493 59.9685 18.2114 66.4627 18.2114H88.3333V22.9168H66.131C62.4235 22.9168 59.6342 23.0733 57.755 23.3965C55.8899 23.7182 54.1757 24.356 52.6264 25.297C50.5043 26.5878 48.734 28.4883 47.3316 30.96C45.8559 33.6351 45.118 36.4214 45.118 39.336C45.118 41.8263 45.671 44.2429 46.7585 46.5863C47.866 48.9099 49.3235 50.8104 51.1685 52.2496C52.9392 53.6885 54.9329 54.6845 57.1632 55.2193C59.3965 55.7537 62.5146 56.0319 66.517 56.0319H88.3326V60.7908H88.3341Z" fill="white"/>
<path fill-rule="evenodd" clip-rule="evenodd" d="M88.3341 70.0352H66.4084C61.2248 70.0352 56.9264 69.4751 53.5119 68.3564C50.1205 67.2448 46.5945 65.2387 42.9602 62.3606C39.3074 65.2752 35.971 67.2957 32.905 68.3932C29.8465 69.4896 26.0411 70.0356 21.5039 70.0356H0V65.1655H22.5731C27.075 65.1655 30.7517 64.5842 33.6061 63.4116C36.4519 62.2423 39.5655 60.0354 42.9598 56.7891C46.4457 60.0719 49.8431 62.2814 53.1065 63.4298C56.3908 64.5853 60.873 65.1651 66.5728 65.1651H88.3333V70.0352H88.3341Z" fill="#B2B3B3"/>
<path fill-rule="evenodd" clip-rule="evenodd" d="M90.7676 40.7163H210.698V42.0027H90.7676V40.7163Z" fill="white"/>
<path d="M218.559 12.0482V3.8291H222.203C222.936 3.8291 223.492 3.90385 223.873 4.05113C224.254 4.19877 224.558 4.45874 224.788 4.83176C225.015 5.20701 225.128 5.6202 225.128 6.07169C225.128 6.65558 224.94 7.14538 224.562 7.54517C224.185 7.94534 223.601 8.19973 222.813 8.30907C223.102 8.44667 223.32 8.58279 223.469 8.71853C223.787 9.00936 224.087 9.37495 224.373 9.81119L225.802 12.0482H224.434L223.347 10.3374C223.029 9.84541 222.767 9.46681 222.56 9.20647C222.356 8.94428 222.172 8.76056 222.009 8.65717C221.847 8.55192 221.682 8.4794 221.513 8.437C221.389 8.41208 221.188 8.39907 220.907 8.39907H219.646V12.0482H218.559H218.559ZM219.646 7.4574H221.985C222.48 7.4574 222.87 7.40571 223.15 7.30232C223.431 7.19893 223.644 7.03418 223.789 6.80843C223.935 6.58268 224.007 6.3376 224.007 6.07169C224.007 5.68342 223.868 5.36358 223.585 5.11292C223.303 4.86225 222.857 4.73767 222.247 4.73767H219.646V7.45703V7.4574Z" fill="white"/>
<path fill-rule="evenodd" clip-rule="evenodd" d="M221.839 1C225.793 1 229 4.20694 229 8.16177C229 12.1166 225.793 15.3235 221.839 15.3235C217.884 15.3235 214.677 12.1166 214.677 8.16177C214.677 4.20694 217.884 1 221.839 1ZM221.839 2.35411C225.045 2.35411 227.646 4.95484 227.646 8.16177C227.646 11.3687 225.045 13.9694 221.839 13.9694C218.632 13.9694 216.031 11.3687 216.031 8.16177C216.031 4.95484 218.632 2.35411 221.839 2.35411Z" fill="white" stroke="white" stroke-width="0.287773" stroke-miterlimit="22.9256"/>
</svg>
