<svg width="225" height="81" viewBox="0 0 225 81" fill="none" xmlns="http://www.w3.org/2000/svg">
<path fill-rule="evenodd" clip-rule="evenodd" d="M147.099 70.3098H152.978V16.631H147.099V70.3098Z" fill="white"/>
<path fill-rule="evenodd" clip-rule="evenodd" d="M144.502 64.4388H137.935C134.575 64.4388 134.499 63.6767 134.499 60.1688V16.631H128.543V60.1688C128.543 62.914 128.543 65.0489 130.452 67.5653C131.979 69.7002 134.575 70.3098 137.935 70.3098H144.502V64.4388Z" fill="white"/>
<path fill-rule="evenodd" clip-rule="evenodd" d="M71.1992 16.631V61.3892C71.1992 70.6279 77.919 71.6951 80.744 71.6951C83.264 71.6951 85.8603 70.7804 87.6165 69.0138C90.0601 66.5737 90.2893 63.5998 90.2893 61.3892V16.631H84.4097V61.3892C84.4097 62.3801 84.4097 65.811 80.6682 65.811C77.0788 65.811 77.0788 62.1513 77.0788 61.3892V16.631H71.1992Z" fill="white"/>
<path fill-rule="evenodd" clip-rule="evenodd" d="M191.405 70.3228V25.5649C191.405 16.3262 198.124 15.2587 200.95 15.2587C203.47 15.2587 206.066 16.1736 207.823 17.9402C210.266 20.3801 210.495 23.3538 210.495 25.5649V70.3228H204.615V25.5649C204.615 24.5738 204.615 21.1425 200.874 21.1425C197.285 21.1425 197.285 24.8024 197.285 25.5649V70.3228H191.405Z" fill="white"/>
<path fill-rule="evenodd" clip-rule="evenodd" d="M35.5264 57.1508L38.9753 62.6408H44.015V70.3098H49.8947V62.6408H57.4543V70.3098H63.334V16.631H57.4543V57.1508H49.8947V16.631H44.015V57.1508H35.5264Z" fill="white"/>
<path fill-rule="evenodd" clip-rule="evenodd" d="M93.8643 57.1508L97.3133 62.6408H102.353V70.3098H108.233V62.6408H115.411V70.3098H121.291V26.0859C121.291 23.7984 121.291 21.4347 119.152 18.461C116.938 15.5636 113.349 15.2587 111.898 15.2587C107.698 15.2587 102.353 17.9283 102.353 26.0859V57.1508H93.8643ZM108.233 57.1508V26.0859C108.233 24.3321 108.233 21.1297 111.822 21.1297C115.411 21.1297 115.411 24.2569 115.411 26.0859V57.1508H108.233Z" fill="white"/>
<path fill-rule="evenodd" clip-rule="evenodd" d="M156.099 57.1508L159.548 62.6408H164.587V70.3098H170.467V62.6408H177.645V70.3098H183.524V26.0859C183.524 23.7984 183.524 21.4347 181.386 18.461C179.172 15.5636 175.583 15.2587 174.132 15.2587C169.933 15.2587 164.587 17.9283 164.587 26.0859V57.1508H156.099ZM170.467 57.1508V26.0859C170.467 24.3321 170.467 21.1297 174.056 21.1297C177.645 21.1297 177.645 24.2569 177.645 26.0859V57.1508H170.467Z" fill="white"/>
<path fill-rule="evenodd" clip-rule="evenodd" d="M142.47 7.5573L150.038 0L157.606 7.5573L150.038 15.1146L142.47 7.5573Z" fill="white"/>
<path d="M102.354 75.8953H103.431L105.679 78.8012L107.927 75.8953H109.04V80.8357H107.898V77.4065L105.708 80.2403H105.49L103.373 77.4644V80.8357H102.354V75.8953ZM111.526 80.8357H110.42L113.229 75.8953H114.321L117.18 80.8357H115.921L115.325 79.7898H112.101L111.526 80.8357ZM112.589 78.8887H114.845L113.717 76.9122L112.589 78.8887ZM122.926 77.7116V76.7378H119.753V79.9642H122.926V78.8887L124.061 79.1282V79.8619C124.061 80.0801 124.027 80.2545 123.959 80.3852C123.891 80.5158 123.799 80.614 123.682 80.6796C123.566 80.7452 123.43 80.7872 123.275 80.8067C123.12 80.8262 122.955 80.8357 122.781 80.8357H119.644C119.436 80.8357 119.265 80.8067 119.131 80.7488C118.998 80.6902 118.892 80.6104 118.815 80.5087C118.737 80.407 118.684 80.2882 118.655 80.1528C118.626 80.0174 118.611 79.8743 118.611 79.7241V77.0068C118.611 76.7792 118.636 76.5941 118.687 76.451C118.738 76.308 118.815 76.1956 118.916 76.1134C119.018 76.0307 119.147 75.9739 119.303 75.9426C119.458 75.9112 119.639 75.8953 119.848 75.8953H122.744C123.03 75.8953 123.259 75.9183 123.431 75.9644C123.604 76.0106 123.734 76.0768 123.824 76.1643C123.914 76.2512 123.974 76.3541 124.003 76.4729C124.032 76.5917 124.046 76.7236 124.046 76.869V77.5519L122.926 77.7116ZM126.292 75.8953H127.434V77.8499H131.094V75.8953H132.237V80.8357H131.094V78.7504H127.434V80.8357H126.292V75.8953ZM134.541 75.8953H135.684V80.8357H134.541V75.8953ZM137.988 75.8953H138.766L142.826 79.2736V75.8953H143.845V80.8357H143.066L139.006 77.4425V80.8357H137.988V75.8953ZM146.149 75.8953H151.279V76.7378H147.291V77.8641H149.627V78.7504H147.291V79.9423H151.315V80.8357H146.149V75.8953ZM156.959 79.0123L159.113 80.8357H157.577L155.577 79.0123H154.543V80.8357H153.401V75.8953H157.614C157.982 75.8953 158.265 75.9668 158.461 76.1093C158.658 76.2524 158.756 76.5102 158.756 76.8832V78.0675C158.756 78.2567 158.726 78.4128 158.665 78.5363C158.605 78.6599 158.521 78.7569 158.414 78.8266C158.307 78.897 158.185 78.9455 158.047 78.9721C157.908 78.9987 157.764 79.0123 157.614 79.0123H156.959ZM157.228 78.126C157.31 78.126 157.381 78.1237 157.439 78.1183C157.497 78.1136 157.545 78.1006 157.581 78.0787C157.618 78.0568 157.643 78.0202 157.657 77.9693C157.672 77.9185 157.679 77.8499 157.679 77.7624V77.1304C157.679 77.0381 157.672 76.966 157.657 76.9122C157.643 76.859 157.619 76.8194 157.584 76.7922C157.551 76.7662 157.505 76.7502 157.447 76.7455C157.389 76.7401 157.316 76.7378 157.228 76.7378H154.543V78.126H157.228ZM163.716 80.8357H162.574V78.6055L159.998 75.8953H161.54L163.228 77.7914L164.931 75.8953H166.27L163.716 78.6055V80.8357ZM173.806 79.0123L175.959 80.8357H174.424L172.423 79.0123H171.39V80.8357H170.248V75.8953H174.461C174.829 75.8953 175.112 75.9668 175.308 76.1093C175.505 76.2524 175.603 76.5102 175.603 76.8832V78.0675C175.603 78.2567 175.573 78.4128 175.512 78.5363C175.451 78.6599 175.368 78.7569 175.261 78.8266C175.154 78.897 175.032 78.9455 174.894 78.9721C174.755 78.9987 174.611 79.0123 174.461 79.0123H173.806ZM174.075 78.126C174.158 78.126 174.227 78.1237 174.286 78.1183C174.344 78.1136 174.391 78.1006 174.428 78.0787C174.464 78.0568 174.49 78.0202 174.504 77.9693C174.519 77.9185 174.526 77.8499 174.526 77.7624V77.1304C174.526 77.0381 174.519 76.966 174.504 76.9122C174.49 76.859 174.465 76.8194 174.432 76.7922C174.397 76.7662 174.351 76.7502 174.293 76.7455C174.235 76.7401 174.162 76.7378 174.075 76.7378H171.39V78.126H174.075ZM178.86 75.8953V79.9275H182.193V75.8953H183.335V79.6952C183.335 80.1114 183.231 80.4058 183.022 80.5779C182.814 80.7499 182.53 80.8357 182.171 80.8357H178.809C178.446 80.8357 178.173 80.7499 177.991 80.5779C177.809 80.4058 177.718 80.1114 177.718 79.6952V75.8953H178.86ZM186.68 78.7504C186.044 78.7504 185.727 78.4287 185.727 77.7843V76.8324C185.727 76.639 185.758 76.4812 185.821 76.36C185.884 76.2394 185.971 76.1436 186.08 76.0732C186.189 76.0029 186.319 75.9556 186.472 75.9313C186.625 75.9071 186.789 75.8953 186.964 75.8953H189.867C190.051 75.8953 190.218 75.9083 190.369 75.9355C190.519 75.9615 190.646 76.0117 190.751 76.0839C190.855 76.1566 190.936 76.2595 190.995 76.3931C191.053 76.5261 191.082 76.6994 191.082 76.9122C191.082 76.9364 191.08 76.9607 191.078 76.9849C191.076 77.0092 191.075 77.0287 191.075 77.0429V77.0943L190.121 77.2681V76.7378H186.76V77.8641H190.114C190.449 77.8641 190.702 77.9321 190.874 78.0675C191.047 78.2035 191.133 78.4477 191.133 78.8012V79.8767C191.133 80.0848 191.1 80.2521 191.034 80.3781C190.969 80.504 190.877 80.601 190.758 80.6689C190.639 80.7363 190.496 80.7813 190.329 80.8032C190.162 80.825 189.976 80.8357 189.772 80.8357H186.498C186.158 80.8357 185.912 80.7464 185.759 80.5667C185.606 80.3875 185.53 80.1262 185.53 79.7821C185.53 79.7578 185.531 79.7289 185.534 79.6952C185.536 79.6615 185.54 79.6295 185.545 79.6006C185.55 79.5669 185.554 79.5332 185.559 79.4989L186.476 79.3463V79.9642H190.099V78.7504H186.68ZM194.405 78.7504C193.769 78.7504 193.451 78.4287 193.451 77.7843V76.8324C193.451 76.639 193.483 76.4812 193.546 76.36C193.609 76.2394 193.695 76.1436 193.804 76.0732C193.914 76.0029 194.045 75.9556 194.197 75.9313C194.35 75.9071 194.514 75.8953 194.688 75.8953H197.592C197.776 75.8953 197.943 75.9083 198.093 75.9355C198.244 75.9615 198.371 76.0117 198.476 76.0839C198.58 76.1566 198.661 76.2595 198.719 76.3931C198.777 76.5261 198.807 76.6994 198.807 76.9122C198.807 76.9364 198.806 76.9607 198.803 76.9849C198.8 77.0092 198.799 77.0287 198.799 77.0429V77.0943L197.846 77.2681V76.7378H194.485V77.8641H197.839C198.174 77.8641 198.427 77.9321 198.599 78.0675C198.771 78.2035 198.858 78.4477 198.858 78.8012V79.8767C198.858 80.0848 198.825 80.2521 198.76 80.3781C198.694 80.504 198.602 80.601 198.483 80.6689C198.364 80.7363 198.221 80.7813 198.054 80.8032C197.886 80.825 197.701 80.8357 197.497 80.8357H194.223C193.883 80.8357 193.637 80.7464 193.484 80.5667C193.331 80.3875 193.255 80.1262 193.255 79.7821C193.255 79.7578 193.256 79.7289 193.258 79.6952C193.261 79.6615 193.265 79.6295 193.27 79.6006C193.274 79.5669 193.279 79.5332 193.284 79.4989L194.201 79.3463V79.9642H197.825V78.7504H194.405ZM201.089 75.8953H202.231V80.8357H201.089V75.8953ZM204.841 80.8357H203.735L206.544 75.8953H207.635L210.494 80.8357H209.236L208.639 79.7898H205.416L204.841 80.8357ZM205.903 78.8887H208.159L207.031 76.9122L205.903 78.8887Z" fill="white" stroke="white" stroke-width="0.288" stroke-miterlimit="22.9256"/>
<path fill-rule="evenodd" clip-rule="evenodd" d="M219.651 11.3238C222.287 11.3238 224.439 13.4734 224.439 16.1065C224.439 18.7414 222.287 20.8917 219.651 20.8917C217.011 20.8917 214.857 18.7414 214.857 16.1065C214.857 13.4734 217.011 11.3238 219.651 11.3238ZM217.809 15.7363H219.61C220.31 15.7363 221.166 15.5762 221.166 14.6745C221.166 13.8852 220.48 13.6457 219.81 13.6457H217.809V15.7363ZM216.97 19.2694V12.9472H219.777C220.966 12.9472 222.033 13.3269 222.033 14.6745C222.033 15.7459 221.222 16.2579 220.249 16.3927C220.469 16.4984 220.638 16.6029 220.754 16.7091C221.484 17.3724 222.018 18.4385 222.55 19.2694H221.497C221.032 18.5377 220.587 17.7565 220.054 17.0829C219.671 16.5964 219.367 16.4621 218.779 16.4621H217.809V19.2694H216.97ZM219.651 10.7632C222.594 10.7632 225 13.1647 225 16.1065C225 19.0507 222.594 21.4506 219.651 21.4506C216.701 21.4506 214.298 19.0507 214.298 16.1065C214.298 13.1647 216.701 10.7632 219.651 10.7632Z" fill="white"/>
</svg>
