<svg width="212" height="36" viewBox="0 0 212 36" fill="none" xmlns="http://www.w3.org/2000/svg">
<path fill-rule="evenodd" clip-rule="evenodd" d="M169.424 31.1323V3.88068H172.983L191.813 25.0357V3.88068H195.881V31.1323H192.244L173.471 9.9571V31.1323H169.424Z" fill="white"/>
<path fill-rule="evenodd" clip-rule="evenodd" d="M161.191 31.1323V3.88068H165.282V31.1323H161.191Z" fill="white"/>
<path fill-rule="evenodd" clip-rule="evenodd" d="M93.6553 31.1323V3.88068H97.7458V31.1323H93.6553Z" fill="white"/>
<path fill-rule="evenodd" clip-rule="evenodd" d="M63.0801 31.1323L76.2283 16.6987L64.8812 3.88068H69.9335L78.7828 13.8527L87.7789 3.88068H92.8515L81.2811 16.6987L93.934 31.1323H88.9441L78.6844 19.4838L68.0902 31.1323H63.0801Z" fill="white"/>
<path fill-rule="evenodd" clip-rule="evenodd" d="M97.9043 31.1323L110.298 3.88068H113.279L125.833 31.1323H121.604L111.73 9.78384L102.099 31.1323H97.9043Z" fill="white"/>
<path fill-rule="evenodd" clip-rule="evenodd" d="M122.117 17.3965C122.117 15.5817 122.508 13.8134 123.283 12.1053C124.058 10.3899 125.167 8.87347 126.598 7.56333C128.057 6.22712 129.703 5.21065 131.545 4.50621C133.381 3.80837 135.321 3.4556 137.353 3.4556C139.418 3.4556 141.386 3.80837 143.25 4.51942C145.106 5.22387 146.746 6.24217 148.162 7.56333C149.65 8.94101 150.765 10.4754 151.52 12.1585C152.267 13.8461 152.643 15.6815 152.643 17.6561C152.643 19.5106 152.26 21.2925 151.486 23.0016C150.717 24.7104 149.622 26.2122 148.205 27.5091C146.717 28.8585 145.064 29.882 143.229 30.5747C141.394 31.2725 139.433 31.6176 137.353 31.6176C135.321 31.6176 133.374 31.2593 131.511 30.5468C129.655 29.8291 128.014 28.8193 126.597 27.5091C125.125 26.1465 124.008 24.604 123.255 22.8948C122.494 21.1801 122.117 19.3454 122.117 17.3969V17.3965ZM126.472 17.5368C126.472 18.9262 126.744 20.2492 127.288 21.505C127.834 22.7689 128.622 23.8856 129.64 24.8562C130.638 25.8326 131.803 26.5782 133.151 27.1031C134.491 27.6277 135.894 27.8949 137.352 27.8949C138.845 27.8949 140.255 27.6347 141.574 27.1229C142.886 26.6112 144.065 25.8539 145.099 24.8562C146.117 23.8856 146.905 22.7689 147.458 21.505C148.009 20.2492 148.288 18.9262 148.288 17.5368C148.288 16.1473 148.016 14.831 147.472 13.5935C146.926 12.3509 146.118 11.2206 145.056 10.1961C144.037 9.19283 142.865 8.43443 141.538 7.90949C140.22 7.38455 138.824 7.11768 137.352 7.11768C135.929 7.11768 134.56 7.38455 133.227 7.91573C131.902 8.44728 130.701 9.20642 129.64 10.1961C128.621 11.1399 127.834 12.2503 127.288 13.5274C126.744 14.7979 126.472 16.133 126.472 17.5368Z" fill="white"/>
<path fill-rule="evenodd" clip-rule="evenodd" d="M147.986 35.0319C152.3 35.0319 153.856 31.88 153.856 27.5932V3.88068H157.904V26.6031C157.904 29.9719 157.436 33.1138 155.936 35.3398H148.065L147.986 35.0319Z" fill="white"/>
<path fill-rule="evenodd" clip-rule="evenodd" d="M0 4.1698V1.90355H13.2215C15.6977 1.90355 17.8452 2.1707 19.6537 2.71236C21.4603 3.25402 23.3792 4.19632 25.4172 5.55629C27.4878 4.08953 29.4829 3.12089 31.4003 2.63227C33.3176 2.14419 36.1004 1.90355 39.7608 1.90355H52.4659V4.1698H39.2563C35.6739 4.1698 32.9355 4.44914 31.0166 5.00513C29.1019 5.55987 27.2691 6.61416 25.5161 8.16047C22.8749 6.47207 20.8151 5.38732 19.3135 4.89852C17.8136 4.4099 15.7631 4.16998 13.1561 4.16998H0.000215715L0 4.1698Z" fill="#777777"/>
<path fill-rule="evenodd" clip-rule="evenodd" d="M0 24.1502V21.4547H12.9159C14.8016 21.4547 16.1104 21.1349 16.8614 20.4939C17.7465 19.7384 18.1943 18.7601 18.1943 17.5605C18.1943 16.3027 17.7275 15.3213 16.8068 14.6182C15.8858 13.9151 14.5953 13.5581 12.9485 13.5581H0.000213381V10.9413H12.8506C15.1599 10.9413 16.9628 11.3634 18.2484 12.2197C19.1187 12.7994 19.8199 13.5777 20.3513 14.5583C20.8825 15.5299 21.143 16.53 21.143 17.5605C21.143 18.6412 20.8504 19.7013 20.2543 20.722C19.6576 21.7526 18.8867 22.5536 17.9342 23.1294C16.8061 23.8116 15.1044 24.1504 12.8182 24.1504H0.000213381L0 24.1502Z" fill="#CBCBCB"/>
<path fill-rule="evenodd" clip-rule="evenodd" d="M52.4659 24.1504H39.9127C36.793 24.1504 34.5579 23.8282 33.2426 23.16C32.1992 22.6295 31.3545 21.8317 30.7116 20.7812C30.0783 19.7408 29.7568 18.6216 29.7568 17.4417C29.7568 16.3027 30.0675 15.2222 30.6787 14.1915C31.3011 13.1716 32.1246 12.4221 33.1243 11.9325C34.4505 11.2833 36.6313 10.9413 39.6872 10.9413H52.4659V13.5581H39.7521C37.4688 13.5581 35.8629 13.7467 34.9147 14.083C34.2447 14.3211 33.6925 14.7568 33.2636 15.4106C32.8348 16.0744 32.6197 16.7777 32.6197 17.5308C32.6197 19.2548 33.4588 20.4302 35.1295 21.0682C36.075 21.4298 37.6178 21.6237 39.7521 21.6237H52.4659V24.1502V24.1504Z" fill="#CBCBCB"/>
<path fill-rule="evenodd" clip-rule="evenodd" d="M52.4659 29.0169H39.3444C36.8028 29.0169 34.8411 28.882 33.4601 28.6217C32.0791 28.3615 30.7643 27.8601 29.5266 27.1274C27.9369 26.1832 26.633 24.8726 25.6034 23.1947C23.785 25.3634 21.9439 26.8767 20.0703 27.7348C18.1966 28.5929 15.7849 29.0167 12.8268 29.0167H0.000215715V26.5303H12.9911C15.7967 26.5303 18.0557 26.0017 19.7634 24.9491C20.9803 24.1995 21.9655 23.1564 22.6998 21.826C23.4338 20.5058 23.8067 19.1274 23.8067 17.6914C23.8067 15.1756 22.8195 13.1029 20.837 11.4936C18.8534 9.88449 16.3219 9.08392 13.2215 9.08392H0V6.77005H13.4073C18.5028 6.77005 22.4915 8.67839 25.3843 12.4378C27.1154 10.2014 28.9338 8.69763 30.841 7.9266C32.7466 7.15557 35.6182 6.77005 39.4754 6.77005H52.4654V9.22849H39.2784C37.0763 9.22849 35.4196 9.3103 34.3034 9.47916C33.1957 9.64724 32.1776 9.98048 31.2573 10.4721C29.9969 11.1465 28.9455 12.1395 28.1125 13.4309C27.236 14.8286 26.7977 16.2844 26.7977 17.8072C26.7977 19.1083 27.1262 20.371 27.7721 21.5953C28.4299 22.8094 29.2956 23.8023 30.3914 24.5543C31.4431 25.3061 32.6273 25.8265 33.952 26.1059C35.2785 26.3851 37.1304 26.5305 39.5077 26.5305H52.465V29.0169H52.4659Z" fill="white"/>
<path fill-rule="evenodd" clip-rule="evenodd" d="M52.4659 33.8832H39.4432C36.3644 33.8832 33.8113 33.5892 31.7833 33.0021C29.769 32.4187 27.6747 31.3659 25.5161 29.8553C23.3465 31.385 21.3649 32.4454 19.5439 33.0214C17.7273 33.5968 15.4671 33.8834 12.7722 33.8834H0V31.3274H13.4073C16.0812 31.3274 18.2649 31.0223 19.9603 30.4069C21.6505 29.7933 23.4998 28.635 25.5159 26.9312C27.5863 28.6542 29.6042 29.8138 31.5425 30.4165C33.4932 31.0229 36.1554 31.3272 39.5408 31.3272H52.4654V33.8832H52.4659Z" fill="#777777"/>
<circle cx="206" cy="6" r="6" fill="white"/>
<path d="M204 9V3H206.454C206.956 3 207.378 3.08008 207.719 3.24023C208.062 3.40039 208.321 3.625 208.495 3.91406C208.672 4.20117 208.76 4.53613 208.76 4.91895C208.76 5.30371 208.671 5.6377 208.492 5.9209C208.315 6.20215 208.054 6.41992 207.709 6.57422C207.364 6.72656 206.94 6.80273 206.438 6.80273H204.69V5.90039H206.278C206.572 5.90039 206.813 5.86328 207 5.78906C207.187 5.71289 207.326 5.60254 207.415 5.45801C207.507 5.31152 207.553 5.13184 207.553 4.91895C207.553 4.70605 207.507 4.52441 207.415 4.37402C207.324 4.22168 207.184 4.10645 206.997 4.02832C206.809 3.94824 206.568 3.9082 206.272 3.9082H205.185V9H204ZM207.38 6.28125L209 9H207.677L206.086 6.28125H207.38Z" fill="#171717"/>
</svg>
