<svg width="28" height="24" viewBox="0 0 28 24" fill="none" xmlns="http://www.w3.org/2000/svg">
	<path d="M14 24C14.7584 23.4307 21.4304 16.7591 22 16.001C23.2558 14.3295 24 12.2516 24 10C24 4.47715 19.5228 0 14 0C8.47715 0 4 4.47715 4 10C4 12.2516 4.74418 14.3295 6 16.001C6.56962 16.7591 13.2416 23.4307 14 24Z" fill="white"/>
	<path d="M0 5H6C9.31371 5 12 7.68629 12 11C12 14.3137 9.31371 17 6 17H0" stroke="#0E0E0E" stroke-width="2"/>
	<path d="M28 5H22C18.6863 5 16 7.68629 16 11C16 14.3137 18.6863 17 22 17H28" stroke="#0E0E0E" stroke-width="2"/>
</svg>