<svg width="206" height="119" viewBox="0 0 206 119" fill="none" xmlns="http://www.w3.org/2000/svg">
<path fill-rule="evenodd" clip-rule="evenodd" d="M177.76 1.31773C177.761 0.588385 178.352 -0.0015831 179.079 3.19138e-06L183.877 0.0104676C184.604 0.0120539 185.192 0.604594 185.191 1.33394C185.189 2.06329 184.598 2.65326 183.871 2.65167L179.074 2.64121C178.346 2.63962 177.758 2.04708 177.76 1.31773ZM180.341 10.3641L169.091 10.3682C168.364 10.3685 167.774 9.77748 167.773 9.04813C167.773 8.31878 168.363 7.7273 169.09 7.72703L180.34 7.72284C181.067 7.72257 181.657 8.31361 181.657 9.04296C181.658 9.77231 181.068 10.3638 180.341 10.3641ZM186.491 18.3383L166.345 18.3467C165.617 18.347 165.028 17.756 165.027 17.0266C165.027 16.2973 165.616 15.7058 166.344 15.7055L186.49 15.6971C187.217 15.6968 187.807 16.2878 187.807 17.0172C187.807 17.7465 187.218 18.338 186.491 18.3383ZM187.275 26.0653L162.943 26.0674C162.216 26.0674 161.626 25.4762 161.626 24.7469C161.626 24.0175 162.215 23.4262 162.943 23.4261L187.275 23.424C188.002 23.424 188.592 24.0152 188.592 24.7445C188.592 25.4739 188.002 26.0652 187.275 26.0653ZM104.253 32.6907C104.264 31.9615 104.862 31.3792 105.589 31.3903L106.69 31.407C107.417 31.4181 107.998 32.0183 107.987 32.7475C107.976 33.4768 107.377 34.059 106.65 34.048L105.549 34.0312C104.822 34.0201 104.242 33.42 104.253 32.6907ZM140.057 32.6905C140.068 33.4197 139.488 34.02 138.761 34.0312L137.674 34.0479C136.947 34.0592 136.349 33.4771 136.338 32.7478C136.326 32.0185 136.907 31.4183 137.634 31.407L138.72 31.3903C139.447 31.3791 140.046 31.9612 140.057 32.6905ZM146.198 31.4069L186.49 31.3901C187.217 31.3898 187.807 31.9809 187.807 32.7102C187.807 33.4396 187.218 34.0311 186.491 34.0314L146.199 34.0481C145.471 34.0484 144.882 33.4574 144.881 32.728C144.881 31.9987 145.47 31.4072 146.198 31.4069ZM36.6939 40.4499C36.6939 39.7206 37.2835 39.1293 38.0107 39.1293H45.1419C45.8691 39.1293 46.4587 39.7206 46.4587 40.4499C46.4587 41.1793 45.8691 41.7705 45.1419 41.7705H38.0107C37.2835 41.7705 36.6939 41.1793 36.6939 40.4499ZM69.66 40.4499C69.66 39.7206 70.2496 39.1293 70.9768 39.1293H73.2667C73.9939 39.1293 74.5835 39.7206 74.5835 40.4499C74.5835 41.1793 73.9939 41.7705 73.2667 41.7705H70.9768C70.2496 41.7705 69.66 41.1793 69.66 40.4499ZM100.1 40.4499C100.1 39.7206 100.689 39.1293 101.417 39.1293H116.24C116.967 39.1293 117.557 39.7206 117.557 40.4499C117.557 41.1793 116.967 41.7705 116.24 41.7705H101.417C100.689 41.7705 100.1 41.1793 100.1 40.4499ZM138.169 40.4499C138.169 39.7206 138.758 39.1293 139.486 39.1293H177.856C178.583 39.1293 179.173 39.7206 179.173 40.4499C179.173 41.1793 178.583 41.7705 177.856 41.7705H139.486C138.758 41.7705 138.169 41.1793 138.169 40.4499ZM183.472 40.4499C183.472 39.7206 184.061 39.1293 184.788 39.1293H185.705C186.432 39.1293 187.022 39.7206 187.022 40.4499C187.022 41.1793 186.432 41.7705 185.705 41.7705H184.788C184.061 41.7705 183.472 41.1793 183.472 40.4499ZM36.703 49.4903L30.947 49.4924C30.2198 49.4927 29.63 48.9016 29.6297 48.1723C29.6295 47.4429 30.2188 46.8515 30.9461 46.8512L36.7021 46.8491C37.4293 46.8489 38.0191 47.4399 38.0193 48.1692C38.0196 48.8986 37.4303 49.4901 36.703 49.4903ZM46.0574 49.4903L42.9827 49.4924C42.2554 49.4929 41.6655 48.9021 41.665 48.1727C41.6645 47.4434 42.2537 46.8517 42.9809 46.8512L46.0556 46.8491C46.7829 46.8486 47.3728 47.4395 47.3733 48.1688C47.3738 48.8982 46.7847 49.4898 46.0574 49.4903ZM68.1744 48.1659C68.1765 48.8952 67.5887 49.4882 66.8614 49.4903L66.1414 49.4924C65.4142 49.4945 64.8229 48.905 64.8208 48.1756C64.8187 47.4463 65.4065 46.8533 66.1338 46.8512L66.8538 46.8491C67.581 46.847 68.1723 47.4366 68.1744 48.1659ZM177.856 49.4903L91.6461 49.4924C90.9188 49.4924 90.3293 48.9012 90.3293 48.1718C90.3292 47.4425 90.9188 46.8512 91.646 46.8512L177.856 46.8491C178.583 46.8491 179.173 47.4403 179.173 48.1697C179.173 48.899 178.583 49.4903 177.856 49.4903ZM195.124 49.4903L186.49 49.4924C185.763 49.4926 185.173 48.9015 185.173 48.1721C185.173 47.4428 185.762 46.8514 186.49 46.8512L195.124 46.8491C195.851 46.8489 196.441 47.4401 196.441 48.1694C196.441 48.8988 195.852 49.4902 195.124 49.4903ZM82.4909 49.4903L81.1827 49.4924C80.4555 49.4936 79.865 48.9033 79.8638 48.1739C79.8627 47.4446 80.4513 46.8524 81.1785 46.8512L82.4867 46.8491C83.214 46.848 83.8044 47.4383 83.8056 48.1676C83.8068 48.897 83.2182 49.4892 82.4909 49.4903ZM13.67 55.8936C13.67 55.1642 14.2595 54.573 14.9868 54.573H70.9768C71.7041 54.573 72.2936 55.1642 72.2936 55.8936C72.2936 56.6229 71.7041 57.2142 70.9768 57.2142H14.9868C14.2595 57.2142 13.67 56.6229 13.67 55.8936ZM75.5479 55.8936C75.5479 55.1642 76.1374 54.573 76.8647 54.573H79.3491C80.0764 54.573 80.6659 55.1642 80.6659 55.8936C80.6659 56.6229 80.0764 57.2142 79.3491 57.2142H76.8647C76.1374 57.2142 75.5479 56.6229 75.5479 55.8936ZM83.2651 55.8936C83.2651 55.1642 83.8546 54.573 84.5819 54.573H90.2081C90.9354 54.573 91.5249 55.1642 91.5249 55.8936C91.5249 56.6229 90.9354 57.2142 90.2081 57.2142H84.5819C83.8546 57.2142 83.2651 56.6229 83.2651 55.8936ZM93.2073 55.8936C93.2073 55.1642 93.7968 54.573 94.5241 54.573H173.375C174.102 54.573 174.692 55.1642 174.692 55.8936C174.692 56.6229 174.102 57.2142 173.375 57.2142H94.5241C93.7968 57.2142 93.2073 56.6229 93.2073 55.8936ZM188.399 55.8936C188.399 55.1642 188.988 54.573 189.716 54.573H198.961C199.688 54.573 200.278 55.1642 200.278 55.8936C200.278 56.6229 199.688 57.2142 198.961 57.2142H189.716C188.988 57.2142 188.399 56.6229 188.399 55.8936ZM11.0536 63.6154C11.0536 62.8861 11.6432 62.2948 12.3704 62.2948H77.9112C78.6385 62.2948 79.228 62.8861 79.228 63.6154C79.228 64.3448 78.6385 64.936 77.9112 64.936H12.3704C11.6432 64.936 11.0536 64.3448 11.0536 63.6154ZM82.2186 63.6154C82.2186 62.8861 82.8081 62.2948 83.5353 62.2948H167.52C168.248 62.2948 168.837 62.8861 168.837 63.6154C168.837 64.3448 168.248 64.936 167.52 64.936H83.5353C82.8081 64.936 82.2186 64.3448 82.2186 63.6154ZM199.693 63.6154C199.693 62.8861 200.283 62.2948 201.01 62.2948H201.207C201.934 62.2948 202.523 62.8861 202.523 63.6154C202.523 64.3448 201.934 64.936 201.207 64.936H201.01C200.283 64.936 199.693 64.3448 199.693 63.6154ZM166.867 72.6599L9.75408 72.6641C9.02683 72.6641 8.43726 72.0729 8.43724 71.3435C8.43723 70.6141 9.02676 70.0229 9.75401 70.0229L166.867 70.0187C167.595 70.0186 168.184 70.6099 168.184 71.3392C168.184 72.0686 167.595 72.6599 166.867 72.6599ZM203.147 70.0187C203.874 70.0187 204.464 70.6099 204.464 71.3393V71.3435C204.464 72.0728 203.874 72.6641 203.147 72.6641C202.42 72.6641 201.83 72.0728 201.83 71.3435V71.3393C201.83 70.6099 202.42 70.0187 203.147 70.0187ZM167.52 80.3817L10.4092 80.3901C9.68198 80.3901 9.09239 79.7989 9.09236 79.0695C9.09232 78.3402 9.68184 77.7489 10.4091 77.7489L167.52 77.7405C168.248 77.7404 168.837 78.3317 168.837 79.061C168.837 79.7904 168.248 80.3817 167.52 80.3817ZM179.303 79.0575C179.305 79.7868 178.717 80.3797 177.989 80.3817L174.917 80.3901C174.19 80.3921 173.598 79.8024 173.596 79.0731C173.594 78.3437 174.182 77.7508 174.91 77.7489L177.982 77.7405C178.709 77.7385 179.301 78.3281 179.303 79.0575ZM188.395 79.0575C188.397 79.7868 187.809 80.3797 187.082 80.3817L184.007 80.3901C183.28 80.392 182.689 79.8024 182.687 79.0731C182.685 78.3437 183.273 77.7508 184 77.7489L187.075 77.7405C187.802 77.7385 188.393 78.3282 188.395 79.0575ZM204.683 77.7405C205.41 77.7405 206 78.3317 206 79.0611V79.0695C206 79.7988 205.41 80.3901 204.683 80.3901C203.956 80.3901 203.366 79.7988 203.366 79.0695V79.0611C203.366 78.3317 203.956 77.7405 204.683 77.7405ZM182.827 88.0994L12.3704 88.1036C11.6432 88.1036 11.0536 87.5124 11.0536 86.7831C11.0536 86.0537 11.6431 85.4624 12.3704 85.4624L182.827 85.4582C183.554 85.4582 184.144 86.0494 184.144 86.7788C184.144 87.5081 183.554 88.0994 182.827 88.0994ZM203.672 85.4582C204.399 85.4582 204.989 86.0495 204.989 86.7788V86.783C204.989 87.5124 204.399 88.1036 203.672 88.1036C202.945 88.1036 202.355 87.5124 202.355 86.783V86.7788C202.355 86.0495 202.945 85.4582 203.672 85.4582ZM192.685 88.0994L189.632 88.1036C188.904 88.1046 188.314 87.5142 188.313 86.7848C188.312 86.0555 188.901 85.4634 189.628 85.4624L192.682 85.4582C193.409 85.4572 193.999 86.0477 194 86.777C194.001 87.5064 193.413 88.0984 192.685 88.0994ZM21.1368 95.8294L1.31735 95.8378C0.590105 95.8381 0.000306267 95.2471 1.19231e-07 94.5177C-0.000306028 93.7884 0.588996 93.1969 1.31624 93.1966L21.1357 93.1882C21.8629 93.1879 22.4527 93.7789 22.453 94.5083C22.4533 95.2376 21.864 95.8291 21.1368 95.8294ZM150.581 95.8294L34.9381 95.8378C34.2109 95.8378 33.6213 95.2466 33.6212 94.5173C33.6212 93.7879 34.2107 93.1966 34.9379 93.1966L150.581 93.1882C151.308 93.1882 151.898 93.7794 151.898 94.5087C151.898 95.2381 151.308 95.8294 150.581 95.8294ZM185.706 95.8294L161.047 95.8378C160.32 95.838 159.73 95.247 159.73 94.5176C159.729 93.7883 160.319 93.1968 161.046 93.1966L185.705 93.1882C186.432 93.188 187.022 93.779 187.022 94.5084C187.022 95.2377 186.433 95.8292 185.706 95.8294ZM21.7898 103.547L4.26016 103.553C3.53291 103.554 2.94315 102.963 2.94289 102.233C2.94263 101.504 3.53197 100.912 4.25922 100.912L21.7888 100.906C22.5161 100.906 23.1058 101.497 23.1061 102.226C23.1063 102.955 22.517 103.547 21.7898 103.547ZM48.2175 103.547L45.4714 103.553C44.7441 103.555 44.1532 102.965 44.1516 102.236C44.1499 101.506 44.7381 100.914 45.4654 100.912L48.2115 100.906C48.9387 100.904 49.5296 101.494 49.5313 102.224C49.5329 102.953 48.9447 103.545 48.2175 103.547ZM149.775 103.547L70.0622 103.553C69.335 103.553 68.7454 102.962 68.7453 102.233C68.7453 101.504 69.3348 100.912 70.062 100.912L149.775 100.906C150.502 100.906 151.092 101.497 151.092 102.226C151.092 102.956 150.503 103.547 149.775 103.547ZM185.707 103.547L179.951 103.553C179.223 103.554 178.633 102.964 178.632 102.234C178.632 101.505 179.22 100.913 179.948 100.912L185.704 100.906C186.431 100.905 187.021 101.496 187.022 102.225C187.023 102.954 186.434 103.546 185.707 103.547ZM140.966 111.271L79.2196 111.279C78.4923 111.279 77.9027 110.688 77.9026 109.959C77.9025 109.23 78.492 108.638 79.2192 108.638L140.965 108.63C141.693 108.63 142.282 109.221 142.282 109.95C142.282 110.68 141.693 111.271 140.966 111.271ZM13.6811 111.271L9.23324 111.279C8.50599 111.281 7.91534 110.691 7.91397 109.961C7.91261 109.232 8.50105 108.64 9.2283 108.638L13.6761 108.63C14.4034 108.628 14.994 109.219 14.9954 109.948C14.9967 110.677 14.4083 111.27 13.6811 111.271ZM184.268 111.271L179.952 111.279C179.224 111.281 178.634 110.691 178.632 109.961C178.631 109.232 179.219 108.64 179.947 108.638L184.263 108.63C184.99 108.628 185.581 109.219 185.582 109.948C185.583 110.677 184.995 111.27 184.268 111.271ZM88.4559 117.679C88.4559 116.95 89.0455 116.359 89.7727 116.359H97.7955C98.5228 116.359 99.1123 116.95 99.1123 117.679C99.1123 118.409 98.5228 119 97.7955 119H89.7727C89.0455 119 88.4559 118.409 88.4559 117.679ZM107.643 117.679C107.643 116.95 108.233 116.359 108.96 116.359H112.273C113.001 116.359 113.59 116.95 113.59 117.679C113.59 118.409 113.001 119 112.273 119H108.96C108.233 119 107.643 118.409 107.643 117.679Z" fill="#212121"/>
</svg>
