<svg width="22" height="22" viewBox="0 0 22 22" fill="none" xmlns="http://www.w3.org/2000/svg">
	<path fill-rule="evenodd" clip-rule="evenodd" d="M11 22C17.0751 22 22 17.0751 22 11C22 4.92487 17.0751 0 11 0C4.92487 0 0 4.92487 0 11C0 17.0751 4.92487 22 11 22ZM7.22771 5.04397C7.55083 5.05703 7.71257 5.07645 7.92586 5.58727C7.99607 5.7567 8.09298 5.99185 8.19899 6.24907C8.49345 6.96354 8.85805 7.84822 8.91518 7.96739C8.99269 8.12912 9.07038 8.34912 8.96038 8.56242C8.86416 8.76701 8.77923 8.86518 8.63773 9.02873C8.62708 9.04105 8.6161 9.05374 8.60477 9.06688C8.5354 9.14746 8.46723 9.21965 8.39923 9.29168C8.30884 9.3874 8.21873 9.48282 8.12644 9.59728C8.12392 9.60024 8.12139 9.6032 8.11886 9.60617C7.97217 9.77814 7.81286 9.96491 7.99719 10.2827C8.18454 10.5997 8.83096 11.6536 9.78143 12.5006C10.9096 13.5042 11.8413 13.881 12.2613 14.0508C12.2986 14.0659 12.3319 14.0794 12.3609 14.0915C12.626 14.2015 12.9429 14.1755 13.1368 13.9686C13.3468 13.7421 13.599 13.3881 13.8616 13.0196C13.9064 12.9568 13.9515 12.8935 13.9967 12.8304C14.2163 12.52 14.4942 12.4812 14.7852 12.591C15.0826 12.6945 16.6537 13.4705 16.9768 13.6322C17.0429 13.6653 17.1044 13.6949 17.161 13.7222C17.3815 13.8282 17.5292 13.8992 17.5909 14.0072C17.6686 14.143 17.6686 14.7833 17.4036 15.5335C17.1384 16.2834 16.0846 16.9045 15.2441 17.0855C14.6689 17.2082 13.9188 17.3054 11.391 16.2578C8.39761 15.0179 6.39101 12.1089 5.98216 11.5162C5.94952 11.4689 5.92706 11.4363 5.9151 11.4205C5.91058 11.4143 5.90521 11.407 5.89905 11.3985C5.69382 11.1179 4.60919 9.63484 4.60919 8.10283C4.60919 6.5694 5.36652 5.79946 5.70574 5.45459C5.71556 5.44461 5.72502 5.43498 5.73411 5.4257C5.99932 5.15414 6.4388 5.03125 6.85921 5.03125C6.99516 5.03125 7.11771 5.03761 7.22771 5.04397Z" fill="white"/>
</svg>