<svg width="86" height="114" viewBox="0 0 86 114" fill="none" xmlns="http://www.w3.org/2000/svg">
<g id="Vector">
<path d="M42.9859 0L31.4514 6.62544L72.9039 30.42L84.4384 23.8088L42.9859 0Z" fill="url(#paint0_linear_1_1132)"/>
<path d="M74.8811 32.7996V48.3017C74.8811 49.1138 74.2506 49.7693 73.4625 49.8263L72.9037 49.869L67.2869 50.2537L60.008 57.0216C59.7215 57.2923 59.3346 57.4348 58.9477 57.4348C58.7471 57.4348 58.5322 57.3921 58.3459 57.3066C58.088 57.1926 57.8874 57.0216 57.7298 56.8221C57.5292 56.5657 57.4146 56.2522 57.4146 55.9103V42.8446L44.5332 50.2394V69.3321C45.3786 69.3606 46.224 69.4319 47.0694 69.5458C47.2556 69.5743 47.4419 69.5886 47.6282 69.6171C47.7858 69.6456 47.9291 69.6883 48.058 69.7596C48.058 69.7596 48.0724 69.7596 48.0867 69.7596C48.0867 69.7596 48.0867 69.7596 48.1153 69.7738C48.5309 70.0018 48.8318 70.4007 48.9034 70.8994L49.3906 74.3048C49.9207 74.4615 50.4366 74.661 50.9667 74.8605C51.0814 74.9032 51.2103 74.9459 51.3249 74.9887C51.9267 75.2309 52.5142 75.5159 53.0873 75.8151L55.8384 73.7491C55.8384 73.7491 55.9387 73.6921 55.996 73.6636C56.082 73.6066 56.168 73.5496 56.2683 73.5211C56.6265 73.4071 57.0134 73.4356 57.3573 73.5781C57.4576 73.6208 57.5578 73.6636 57.6438 73.7206C59.0337 74.7037 60.3089 75.8578 61.4552 77.1259C62.0713 77.8098 62.6731 78.508 63.2176 79.2632C63.3179 79.3914 63.3896 79.5481 63.4325 79.6906C63.4755 79.8473 63.5042 79.9898 63.5042 80.1466C63.5042 80.1466 63.5042 80.1608 63.5042 80.175C63.5042 80.4885 63.3896 80.7877 63.2033 81.0442L61.1257 83.7941C61.5412 84.5493 61.8707 85.3472 62.186 86.1451C62.3436 86.5583 62.5012 86.9857 62.6302 87.4132L86 73.9913V26.4449L74.9097 32.8138L74.8811 32.7996Z" fill="url(#paint1_linear_1_1132)"/>
<path d="M13.9708 16.6561L1.5336 23.7945L42.9861 47.6034L55.4232 40.465V40.4507L13.9851 16.6561H13.9708Z" fill="url(#paint2_linear_1_1132)"/>
<path d="M59.6922 39.3966C60.165 39.6674 60.4516 40.1803 60.4516 40.7217V52.4053L65.5526 47.6606C65.6958 47.5181 65.8821 47.4327 66.0684 47.3614C66.2117 47.3187 66.3406 47.2759 66.4983 47.2617L71.7998 46.8912V33.3269L28.37 8.39242L17.0361 14.9039L59.7065 39.3966H59.6922Z" fill="url(#paint3_linear_1_1132)"/>
<path d="M0 74.034L23.7281 87.6269L24.7024 87.4844C25.0893 86.2163 25.5908 84.9909 26.2356 83.8083L24.1579 81.0727C23.7567 80.5455 23.7424 79.8046 24.1436 79.2774C25.6911 77.1259 27.5538 75.2594 29.7174 73.7348C30.2475 73.3359 30.9926 73.3501 31.5228 73.749L34.2739 75.815C35.4488 75.1881 36.6954 74.6752 37.9706 74.2905L38.4578 70.8851C38.5438 70.2297 39.0739 69.7168 39.733 69.6028C40.3062 69.5173 40.8793 69.4318 41.4668 69.3891V50.2109L0.0143289 26.4163V74.0198L0 74.034ZM18.2832 78.2515C18.2832 78.394 18.2116 78.508 18.0969 78.5935C18.0396 78.622 17.9537 78.6362 17.8963 78.6362C17.839 78.6362 17.7531 78.622 17.7101 78.5935L4.6711 71.0989C4.54215 71.0419 4.47051 70.9136 4.47051 70.7854V67.9358C4.47051 67.7933 4.54215 67.6793 4.6711 67.5938C4.7714 67.5368 4.92902 67.5368 5.05798 67.5938L18.0969 75.0884C18.1972 75.1454 18.2832 75.2736 18.2832 75.4018V78.2515ZM12.0503 64.0887L14.959 60.9114C15.045 60.8116 15.1739 60.7546 15.3172 60.7831C15.4462 60.7974 15.5465 60.8829 15.6038 60.9969L18.5125 67.5226C18.5841 67.6793 18.5411 67.8645 18.4265 67.9643C18.2975 68.064 18.1256 68.1067 17.9823 68.007L17.0653 67.4941V72.6662C17.0653 72.8087 17.008 72.9227 16.879 73.0081C16.8217 73.0366 16.7501 73.0509 16.6784 73.0509C16.6211 73.0509 16.5495 73.0366 16.4921 73.0081L13.6264 71.3696C13.4975 71.2983 13.4258 71.1701 13.4258 71.0276V65.4138L12.1363 64.6729C12.036 64.6159 11.9643 64.5162 11.9357 64.4022C11.9213 64.3025 11.9643 64.1742 12.036 64.103L12.0503 64.0887ZM4.31289 59.6433L7.23591 56.4802C7.32188 56.3804 7.45084 56.3234 7.59412 56.3519C7.72308 56.3662 7.82338 56.4517 7.86637 56.5656L10.7894 63.0914C10.8467 63.2481 10.818 63.4333 10.7034 63.533C10.5888 63.6328 10.4025 63.6613 10.2592 63.5758L9.34221 63.0629V68.235C9.34221 68.3775 9.27056 68.4914 9.15594 68.5769C9.09862 68.6054 9.01265 68.6197 8.95534 68.6197C8.89802 68.6197 8.82638 68.6054 8.76907 68.5769L5.88903 66.9384C5.78873 66.8671 5.70276 66.7389 5.70276 66.5964V60.9826L4.39886 60.2417C4.31289 60.1847 4.22692 60.085 4.21259 59.971C4.19826 59.8712 4.22692 59.743 4.29856 59.6575L4.31289 59.6433Z" fill="url(#paint4_linear_1_1132)"/>
<path d="M27.4099 89.2365C27.2523 89.8349 26.7508 90.2909 26.1204 90.3764L22.8391 90.8323C22.7532 91.616 22.7102 92.3854 22.7102 93.169C22.7102 93.9527 22.7388 94.7079 22.8391 95.4773L26.1204 95.9475C26.7508 96.0187 27.2523 96.4746 27.4099 97.0873C27.8111 98.7544 28.4703 100.35 29.3729 101.803C29.6882 102.331 29.6595 103 29.287 103.513L27.2953 106.149C28.2696 107.36 29.3729 108.457 30.6052 109.426L33.2417 107.446C33.7432 107.075 34.4309 107.047 34.9754 107.375C36.4512 108.272 38.0417 108.928 39.7038 109.327C40.32 109.483 40.7785 109.982 40.8644 110.595L41.3229 113.872C42.8848 114.043 44.4466 114.043 45.9941 113.872L46.4669 110.595C46.5385 109.982 46.9971 109.483 47.6132 109.327C49.3039 108.928 50.8944 108.272 52.3559 107.375C52.8861 107.061 53.5595 107.09 54.0754 107.446L56.7261 109.426C57.9297 108.472 59.0474 107.375 60.0217 106.149L58.03 103.513C57.6575 103.015 57.6145 102.345 57.9584 101.803C58.8611 100.336 59.5202 98.7401 59.9214 97.0873C60.079 96.4746 60.5805 96.0187 61.1966 95.9475L64.4922 95.4773C64.5638 94.6936 64.6212 93.9242 64.6212 93.169C64.6212 92.4139 64.5782 91.616 64.4922 90.8323L61.1966 90.3764C60.5805 90.2909 60.079 89.8349 59.9214 89.2365C59.5202 87.5552 58.8611 85.9737 57.9584 84.5203C57.6145 83.9932 57.6718 83.3092 58.03 82.8106L60.0217 80.1746C59.0617 78.9493 57.9441 77.8664 56.7261 76.8833L54.0754 78.8638C53.5882 79.2485 52.9004 79.277 52.3559 78.9493C50.8801 78.0516 49.2896 77.3962 47.6132 76.9973C46.9971 76.8405 46.5385 76.3419 46.4669 75.7292L45.9941 72.4521C44.4466 72.2811 42.8848 72.2811 41.3229 72.4521L40.8644 75.7292C40.7785 76.3419 40.32 76.8405 39.7038 76.9973C38.0417 77.3962 36.4369 78.0516 34.9754 78.9493C34.4453 79.2627 33.7432 79.2342 33.2417 78.8638L30.6052 76.8833C29.3729 77.8522 28.284 78.9493 27.2953 80.1746L29.287 82.8106C29.6738 83.295 29.7025 83.9789 29.3729 84.5203C28.4703 85.9879 27.8111 87.5695 27.4099 89.2365ZM43.6585 85.6745C47.8138 85.6745 51.181 89.037 51.181 93.169C51.181 97.301 47.8138 100.664 43.6585 100.664C39.5032 100.664 36.1217 97.301 36.1217 93.169C36.1217 89.037 39.5032 85.6745 43.6585 85.6745Z" fill="url(#paint5_linear_1_1132)"/>
</g>
<defs>
<linearGradient id="paint0_linear_1_1132" x1="-15.2154" y1="13.1538" x2="90.1832" y2="72.051" gradientUnits="userSpaceOnUse">
<stop stop-color="#3DC0FF"/>
<stop offset="1" stop-color="#8F00FF" stop-opacity="0"/>
</linearGradient>
<linearGradient id="paint1_linear_1_1132" x1="-15.2154" y1="13.1538" x2="90.1832" y2="72.051" gradientUnits="userSpaceOnUse">
<stop stop-color="#3DC0FF"/>
<stop offset="1" stop-color="#8F00FF" stop-opacity="0"/>
</linearGradient>
<linearGradient id="paint2_linear_1_1132" x1="-15.2154" y1="13.1538" x2="90.1832" y2="72.051" gradientUnits="userSpaceOnUse">
<stop stop-color="#3DC0FF"/>
<stop offset="1" stop-color="#8F00FF" stop-opacity="0"/>
</linearGradient>
<linearGradient id="paint3_linear_1_1132" x1="-15.2154" y1="13.1538" x2="90.1832" y2="72.051" gradientUnits="userSpaceOnUse">
<stop stop-color="#3DC0FF"/>
<stop offset="1" stop-color="#8F00FF" stop-opacity="0"/>
</linearGradient>
<linearGradient id="paint4_linear_1_1132" x1="-15.2154" y1="13.1538" x2="90.1832" y2="72.051" gradientUnits="userSpaceOnUse">
<stop stop-color="#3DC0FF"/>
<stop offset="1" stop-color="#8F00FF" stop-opacity="0"/>
</linearGradient>
<linearGradient id="paint5_linear_1_1132" x1="-15.2154" y1="13.1538" x2="90.1832" y2="72.051" gradientUnits="userSpaceOnUse">
<stop stop-color="#3DC0FF"/>
<stop offset="1" stop-color="#8F00FF" stop-opacity="0"/>
</linearGradient>
</defs>
</svg>
