<svg width="135" height="104" viewBox="0 0 135 104" fill="none" xmlns="http://www.w3.org/2000/svg">
<g id="Vector">
<path d="M76.1255 37.6232L67.5 33.1283L58.8745 37.6232L67.5 39.6133L76.1255 37.6232Z" fill="url(#paint0_linear_1_1131)"/>
<path d="M24.4934 29.7146L52.0639 36.0623L54.2246 23.5556L54.0172 23.3497L24.4934 29.7146Z" fill="url(#paint1_linear_1_1131)"/>
<path d="M50.5948 57.5066L50.6121 57.4894L64.0084 42.598H64.0257L16.3694 31.6352L0 43.4729V43.4901L50.5948 57.5066Z" fill="url(#paint2_linear_1_1131)"/>
<path d="M80.8088 23.5212L80.757 23.5556L82.9177 36.0623L110.505 29.7146L80.9817 23.3497L80.8088 23.5212Z" fill="url(#paint3_linear_1_1131)"/>
<path d="M117.68 52.12L84.284 61.3843C84.1112 61.4358 83.9383 61.4529 83.7655 61.4529C83.2469 61.4529 82.7456 61.2299 82.3826 60.8353L69.3666 46.3556V104L117.68 85.5572V52.12Z" fill="url(#paint4_linear_1_1131)"/>
<path d="M118.613 31.6352L70.9916 42.598H70.9743L84.3879 57.5066L135 43.4901L118.613 31.6352Z" fill="url(#paint5_linear_1_1131)"/>
<path d="M65.6316 46.3561L52.5983 60.8358C52.1316 61.3677 51.3883 61.5736 50.7141 61.3849L17.3185 52.1206V85.5406L65.6316 103.983V46.339V46.3561ZM21.5189 72.5535L23.9043 68.9678C23.9907 68.8134 24.1117 68.7448 24.3191 68.7448C24.492 68.762 24.6303 68.8477 24.7167 69.0021L27.1539 73.9431C27.2404 74.1147 27.2231 74.3205 27.1021 74.4406C26.9984 74.595 26.8082 74.6465 26.6181 74.595L25.9267 74.4063V79.0213C25.9094 79.1757 25.8402 79.2958 25.702 79.3987C25.6328 79.4502 25.5291 79.4845 25.4427 79.4845C25.3908 79.4845 25.339 79.4673 25.2871 79.4502L22.9017 78.661C22.7116 78.6096 22.5906 78.4208 22.5906 78.215L22.6251 73.497L21.7954 73.2569C21.6399 73.2225 21.5361 73.1024 21.5016 72.9824C21.4497 72.8279 21.467 72.6907 21.5361 72.5535H21.5189ZM34.1892 86.5871C34.1892 86.7415 34.12 86.8788 33.9817 86.9645C33.9126 87.016 33.8089 87.0503 33.7225 87.0503C33.6706 87.0503 33.6187 87.0332 33.5496 87.016L21.8646 82.5554C21.6744 82.4868 21.5534 82.2981 21.5707 82.1094V79.6561C21.588 79.4845 21.6571 79.3644 21.7781 79.2615C21.9164 79.1928 22.072 79.1757 22.2103 79.21L33.8953 83.3446C34.0682 83.3961 34.1892 83.5676 34.1892 83.7735V86.5871ZM34.362 76.4479C34.2583 76.6023 34.0509 76.6537 33.878 76.6023L32.9792 76.3621V81.3717C32.9792 81.5432 32.91 81.6633 32.7718 81.7663C32.7026 81.8177 32.5989 81.8349 32.5125 81.8349C32.4606 81.8349 32.4088 81.8349 32.3569 81.8177L29.6085 80.8913C29.4184 80.8398 29.2974 80.6511 29.2974 80.4624V75.3499L28.2948 75.0754C28.1392 75.0239 28.0355 74.9038 27.9837 74.7837C27.9318 74.6293 27.9664 74.4921 28.0355 74.3548L30.7493 70.529C30.8358 70.3918 31.0086 70.306 31.1642 70.3232C31.337 70.3403 31.4753 70.4261 31.5618 70.5805L34.4312 75.9332C34.5003 76.1048 34.483 76.3106 34.3793 76.4479H34.362Z" fill="url(#paint6_linear_1_1131)"/>
<path d="M57.5265 21.5995C57.8549 21.9255 58.0623 22.3372 58.0969 22.7833C58.0969 22.7833 58.0969 22.8004 58.0969 22.8176C58.0969 22.9548 58.0969 23.0921 58.0796 23.2293L56.0572 34.9298L66.636 29.4055C66.636 29.4055 66.7915 29.354 66.8607 29.3197C67.0681 29.2511 67.2928 29.1996 67.5002 29.1996C67.6904 29.1996 67.8632 29.2339 68.0361 29.2854C68.1398 29.3197 68.2608 29.354 68.3645 29.4055L78.9605 34.9298L76.9381 23.2293C76.8517 22.646 77.0246 22.0284 77.474 21.6166L86.0303 13.3303L74.1897 11.6318C73.8786 11.5803 73.602 11.4774 73.36 11.3059C73.36 11.3059 73.36 11.3059 73.3428 11.3059C73.118 11.1343 72.9106 10.9113 72.7896 10.6368L67.5002 0L62.1936 10.6368C61.9343 11.1858 61.4157 11.5632 60.7934 11.649L48.9701 13.3474L57.5265 21.6338V21.5995Z" fill="url(#paint7_linear_1_1131)"/>
</g>
<defs>
<linearGradient id="paint0_linear_1_1131" x1="-23.8846" y1="12" x2="88.9286" y2="120.474" gradientUnits="userSpaceOnUse">
<stop stop-color="#3DC0FF"/>
<stop offset="1" stop-color="#8F00FF" stop-opacity="0"/>
</linearGradient>
<linearGradient id="paint1_linear_1_1131" x1="-23.8846" y1="12" x2="88.9286" y2="120.474" gradientUnits="userSpaceOnUse">
<stop stop-color="#3DC0FF"/>
<stop offset="1" stop-color="#8F00FF" stop-opacity="0"/>
</linearGradient>
<linearGradient id="paint2_linear_1_1131" x1="-23.8846" y1="12" x2="88.9286" y2="120.474" gradientUnits="userSpaceOnUse">
<stop stop-color="#3DC0FF"/>
<stop offset="1" stop-color="#8F00FF" stop-opacity="0"/>
</linearGradient>
<linearGradient id="paint3_linear_1_1131" x1="-23.8846" y1="12" x2="88.9286" y2="120.474" gradientUnits="userSpaceOnUse">
<stop stop-color="#3DC0FF"/>
<stop offset="1" stop-color="#8F00FF" stop-opacity="0"/>
</linearGradient>
<linearGradient id="paint4_linear_1_1131" x1="-23.8846" y1="12" x2="88.9286" y2="120.474" gradientUnits="userSpaceOnUse">
<stop stop-color="#3DC0FF"/>
<stop offset="1" stop-color="#8F00FF" stop-opacity="0"/>
</linearGradient>
<linearGradient id="paint5_linear_1_1131" x1="-23.8846" y1="12" x2="88.9286" y2="120.474" gradientUnits="userSpaceOnUse">
<stop stop-color="#3DC0FF"/>
<stop offset="1" stop-color="#8F00FF" stop-opacity="0"/>
</linearGradient>
<linearGradient id="paint6_linear_1_1131" x1="-23.8846" y1="12" x2="88.9286" y2="120.474" gradientUnits="userSpaceOnUse">
<stop stop-color="#3DC0FF"/>
<stop offset="1" stop-color="#8F00FF" stop-opacity="0"/>
</linearGradient>
<linearGradient id="paint7_linear_1_1131" x1="-23.8846" y1="12" x2="88.9286" y2="120.474" gradientUnits="userSpaceOnUse">
<stop stop-color="#3DC0FF"/>
<stop offset="1" stop-color="#8F00FF" stop-opacity="0"/>
</linearGradient>
</defs>
</svg>
