<svg width="66" height="59" viewBox="0 0 66 59" fill="none" xmlns="http://www.w3.org/2000/svg">
<path d="M63.6846 14.0658C62.0419 13.6839 60.3992 14.7023 60.0201 16.3571L54.7128 38.5696H22.1767L14.5949 8.08306C14.279 6.68285 13.0154 5.72816 11.6254 5.72816H3.03271C1.32681 5.72816 0 7.12837 0 8.78317C0 10.438 1.38999 11.8382 3.03271 11.8382H9.1613L16.7431 42.3247C17.059 43.7249 18.3226 44.6796 19.7126 44.6796H57.0506C58.4405 44.6796 59.7042 43.7249 60.0201 42.3247L65.896 17.7573C66.3382 16.1661 65.3273 14.5113 63.6846 14.0658Z" fill="url(#paint0_linear_1616_5348)"/>
<path d="M23.9457 59C26.9466 59 29.3793 56.5494 29.3793 53.5264C29.3793 50.5035 26.9466 48.0529 23.9457 48.0529C20.9449 48.0529 18.5121 50.5035 18.5121 53.5264C18.5121 56.5494 20.9449 59 23.9457 59Z" fill="url(#paint1_linear_1616_5348)"/>
<path d="M51.301 59C54.3019 59 56.7346 56.5494 56.7346 53.5264C56.7346 50.5035 54.3019 48.0529 51.301 48.0529C48.3002 48.0529 45.8674 50.5035 45.8674 53.5264C45.8674 56.5494 48.3002 59 51.301 59Z" fill="url(#paint2_linear_1616_5348)"/>
<path d="M35.9807 30.041C36.5493 30.6138 37.3707 30.932 38.1288 30.932C38.887 30.932 39.7084 30.6138 40.277 30.041L48.0483 22.2125C49.2488 21.0032 49.2488 19.0302 48.0483 17.8846C46.8479 16.6753 44.8893 16.6753 43.752 17.8846L41.2247 20.4304V3.05502C41.2247 1.33657 39.8347 0 38.192 0C36.4861 0 35.1593 1.40022 35.1593 3.05502V20.4304L32.6321 17.8846C31.4316 16.6753 29.473 16.6753 28.3357 17.8846C27.1353 19.0938 27.1353 21.0669 28.3357 22.2125L35.9807 30.041Z" fill="url(#paint3_linear_1616_5348)"/>
<defs>
<linearGradient id="paint0_linear_1616_5348" x1="-11.6769" y1="6.80769" x2="51.2568" y2="58.9562" gradientUnits="userSpaceOnUse">
<stop stop-color="#3DC0FF"/>
<stop offset="1" stop-color="#8F00FF" stop-opacity="0"/>
</linearGradient>
<linearGradient id="paint1_linear_1616_5348" x1="-11.6769" y1="6.80769" x2="51.2568" y2="58.9562" gradientUnits="userSpaceOnUse">
<stop stop-color="#3DC0FF"/>
<stop offset="1" stop-color="#8F00FF" stop-opacity="0"/>
</linearGradient>
<linearGradient id="paint2_linear_1616_5348" x1="-11.6769" y1="6.80769" x2="51.2568" y2="58.9562" gradientUnits="userSpaceOnUse">
<stop stop-color="#3DC0FF"/>
<stop offset="1" stop-color="#8F00FF" stop-opacity="0"/>
</linearGradient>
<linearGradient id="paint3_linear_1616_5348" x1="-11.6769" y1="6.80769" x2="51.2568" y2="58.9562" gradientUnits="userSpaceOnUse">
<stop stop-color="#3DC0FF"/>
<stop offset="1" stop-color="#8F00FF" stop-opacity="0"/>
</linearGradient>
</defs>
</svg>
