<svg width="87" height="87" viewBox="0 0 87 87" fill="none" xmlns="http://www.w3.org/2000/svg">
<path d="M42.0101 44.3107H29.5179C29.0178 47.9887 26.191 50.9377 22.5705 51.6124C23.0707 56.7594 24.0165 61.5909 25.3973 66.0307C30.6486 64.8881 36.2261 64.2787 41.9993 64.2025V44.3107H42.0101Z" fill="url(#paint0_linear_1616_5438)"/>
<path d="M21.2982 36.8566C21.2982 36.8566 21.233 36.8566 21.2004 36.8566C21.1351 36.8566 21.059 36.8566 20.9938 36.8566C17.5256 36.8566 14.6988 39.675 14.6988 43.1462C14.6988 43.1462 14.6988 43.1571 14.6988 43.168C14.6988 43.168 14.6988 43.1789 14.6988 43.1898C14.7096 46.6502 17.5256 49.4685 20.9938 49.4685C21.0699 49.4685 21.1351 49.4685 21.2004 49.4685C24.5599 49.3488 27.2671 46.5958 27.278 43.2007C27.278 43.2007 27.278 43.1898 27.278 43.1789C27.278 43.1789 27.278 43.168 27.278 43.1571C27.278 39.7947 24.6143 37.0416 21.2874 36.8784L21.2982 36.8566Z" fill="url(#paint1_linear_1616_5438)"/>
<path d="M75.9422 15.006C73.8439 16.1159 71.5607 17.1061 69.1144 17.9658C69.1579 18.3031 69.2014 18.6514 69.2014 19.0105C69.2014 22.0573 67.364 24.6907 64.7547 25.8551C65.831 30.9695 66.4072 36.3886 66.4834 41.9927H86.3469C86.086 32.0468 82.4221 22.5361 75.9531 15.006H75.9422Z" fill="url(#paint2_linear_1616_5438)"/>
<path d="M29.5179 41.993H41.9993V22.0794C36.2261 22.0033 30.6486 21.3939 25.3973 20.2513C24.0165 24.7237 23.0598 29.5552 22.5705 34.6696C26.191 35.3443 29.0178 38.3041 29.5179 41.9822V41.993Z" fill="url(#paint3_linear_1616_5438)"/>
<path d="M44.3257 22.0903V41.9931H64.1566C64.0914 36.5957 63.5369 31.3834 62.5041 26.4648C62.2431 26.4975 61.9822 26.5083 61.7104 26.5083C58.4052 26.5083 55.6002 24.3429 54.6108 21.3613C51.273 21.8074 47.8265 22.0468 44.3257 22.0903Z" fill="url(#paint4_linear_1616_5438)"/>
<path d="M83.4991 53.0814C84.0753 53.0814 84.6189 53.1902 85.1408 53.3426C85.8475 50.4045 86.2497 47.3794 86.3367 44.3107H66.4949C66.4622 47.2705 66.2774 50.2086 65.9512 53.0814H83.4991Z" fill="url(#paint5_linear_1616_5438)"/>
<path d="M12.4596 41.993C12.9923 38.0211 16.2323 34.8981 20.255 34.5607C20.7551 29.3157 21.7228 24.3537 23.1362 19.7507C18.3632 18.5646 14.0904 16.9758 10.4047 15.0171C4.14233 22.3079 0.271806 31.7097 0 41.993H12.4596Z" fill="url(#paint6_linear_1616_5438)"/>
<path d="M66.875 19.0106C66.875 16.1596 64.5592 13.8418 61.7106 13.8418C58.8621 13.8418 56.5463 16.1596 56.5463 19.0106C56.5463 21.8617 58.8621 24.1795 61.7106 24.1795C64.5592 24.1795 66.875 21.8617 66.875 19.0106Z" fill="url(#paint7_linear_1616_5438)"/>
<path d="M63.613 53.0814C63.9501 50.2086 64.1349 47.2705 64.1675 44.3107H44.3257V64.1917C47.2938 64.2352 50.2293 64.4093 53.0996 64.7466V58.8922C53.0996 55.693 55.698 53.0814 58.9053 53.0814H63.6239H63.613Z" fill="url(#paint8_linear_1616_5438)"/>
<path d="M0 44.3107C0.271806 54.594 4.14233 63.9849 10.4047 71.2757C14.1122 69.317 18.385 67.7282 23.1362 66.5421C21.7336 61.9718 20.7551 57.0097 20.255 51.7321C16.2323 51.3947 12.9923 48.2825 12.4596 44.3107H0Z" fill="url(#paint9_linear_1616_5438)"/>
<path d="M34.4972 85.509C30.2026 82.2009 26.4952 76.4336 23.8533 68.7728C19.5044 69.8501 15.4599 71.3083 12.0242 73.0602C17.9822 79.2737 25.7559 83.7244 34.4972 85.509Z" fill="url(#paint10_linear_1616_5438)"/>
<path d="M60.1021 11.6982C60.624 11.5785 61.1567 11.5132 61.7112 11.5132C64.6684 11.5132 67.2234 13.2434 68.4411 15.7353C70.5395 14.9953 72.5073 14.1574 74.3339 13.2216C68.2672 6.8993 60.4391 2.60101 51.9479 0.827289C55.0139 3.22127 57.7754 6.8993 60.1021 11.6873V11.6982Z" fill="url(#paint11_linear_1616_5438)"/>
<path d="M12.0136 13.2433C15.4493 15.0062 19.4176 16.4426 23.8426 17.5307C26.4846 9.86998 30.2246 4.09177 34.5409 0.783719C25.7779 2.56833 17.9825 7.01896 12.0136 13.2433Z" fill="url(#paint12_linear_1616_5438)"/>
<path d="M77.4759 55.4103V70.5686C77.4759 70.9821 77.2585 71.3629 76.8997 71.5697C76.7257 71.6676 76.5191 71.722 76.3234 71.722C76.1277 71.722 75.9212 71.6676 75.7472 71.5697L71.2135 68.9581L66.6798 71.5697C66.321 71.7765 65.8752 71.7765 65.5164 71.5697C65.1577 71.3629 64.9402 70.9821 64.9402 70.5686V55.4103H58.917C56.9926 55.4103 55.4379 56.9773 55.4379 58.8925V83.5178C55.4379 85.4439 57.0035 87 58.917 87H83.5209C85.4453 87 87 85.433 87 83.5178V58.8925C87 56.9664 85.4344 55.4103 83.5209 55.4103H77.4759Z" fill="url(#paint13_linear_1616_5438)"/>
<path d="M44.3257 66.5205V86.3471C47.4025 86.2709 50.425 85.8683 53.3605 85.1501C53.2083 84.6277 53.0996 84.0945 53.0996 83.5178V67.0864C50.2402 66.749 47.3047 66.564 44.3257 66.5205Z" fill="url(#paint14_linear_1616_5438)"/>
<path d="M44.3257 19.7721C47.6961 19.7286 51.0121 19.4892 54.2303 19.0757C54.2303 19.0539 54.2303 19.0322 54.2303 19.0213C54.2303 16.2682 55.7198 13.8633 57.9377 12.5684C54.2846 5.10354 49.3921 0.587614 44.3257 0V19.783V19.7721Z" fill="url(#paint15_linear_1616_5438)"/>
<path d="M26.1263 18.0311C31.1602 19.1083 36.4767 19.6851 42.0107 19.7612V0C35.7048 0.739959 29.8555 7.37782 26.1263 18.0311Z" fill="url(#paint16_linear_1616_5438)"/>
<path d="M42.0107 66.5311C36.4876 66.6073 31.1602 67.1841 26.1263 68.2613C29.8772 78.9799 35.6939 85.5851 42.0107 86.3033V66.5311Z" fill="url(#paint17_linear_1616_5438)"/>
<path d="M70.6151 66.6076C70.7999 66.5097 70.9956 66.4553 71.1913 66.4553C71.387 66.4553 71.5936 66.5097 71.7676 66.6076L75.138 68.5554V55.4103H67.2338V68.5554L70.6042 66.6076H70.6151Z" fill="url(#paint18_linear_1616_5438)"/>
<defs>
<linearGradient id="paint0_linear_1616_5438" x1="-15.3923" y1="10.0385" x2="74.9538" y2="76.9615" gradientUnits="userSpaceOnUse">
<stop stop-color="#3DC0FF"/>
<stop offset="1" stop-color="#8F00FF" stop-opacity="0"/>
</linearGradient>
<linearGradient id="paint1_linear_1616_5438" x1="-15.3923" y1="10.0385" x2="74.9538" y2="76.9615" gradientUnits="userSpaceOnUse">
<stop stop-color="#3DC0FF"/>
<stop offset="1" stop-color="#8F00FF" stop-opacity="0"/>
</linearGradient>
<linearGradient id="paint2_linear_1616_5438" x1="-15.3923" y1="10.0385" x2="74.9538" y2="76.9615" gradientUnits="userSpaceOnUse">
<stop stop-color="#3DC0FF"/>
<stop offset="1" stop-color="#8F00FF" stop-opacity="0"/>
</linearGradient>
<linearGradient id="paint3_linear_1616_5438" x1="-15.3923" y1="10.0385" x2="74.9538" y2="76.9615" gradientUnits="userSpaceOnUse">
<stop stop-color="#3DC0FF"/>
<stop offset="1" stop-color="#8F00FF" stop-opacity="0"/>
</linearGradient>
<linearGradient id="paint4_linear_1616_5438" x1="-15.3923" y1="10.0385" x2="74.9538" y2="76.9615" gradientUnits="userSpaceOnUse">
<stop stop-color="#3DC0FF"/>
<stop offset="1" stop-color="#8F00FF" stop-opacity="0"/>
</linearGradient>
<linearGradient id="paint5_linear_1616_5438" x1="-15.3923" y1="10.0385" x2="74.9538" y2="76.9615" gradientUnits="userSpaceOnUse">
<stop stop-color="#3DC0FF"/>
<stop offset="1" stop-color="#8F00FF" stop-opacity="0"/>
</linearGradient>
<linearGradient id="paint6_linear_1616_5438" x1="-15.3923" y1="10.0385" x2="74.9538" y2="76.9615" gradientUnits="userSpaceOnUse">
<stop stop-color="#3DC0FF"/>
<stop offset="1" stop-color="#8F00FF" stop-opacity="0"/>
</linearGradient>
<linearGradient id="paint7_linear_1616_5438" x1="-15.3923" y1="10.0385" x2="74.9538" y2="76.9615" gradientUnits="userSpaceOnUse">
<stop stop-color="#3DC0FF"/>
<stop offset="1" stop-color="#8F00FF" stop-opacity="0"/>
</linearGradient>
<linearGradient id="paint8_linear_1616_5438" x1="-15.3923" y1="10.0385" x2="74.9538" y2="76.9615" gradientUnits="userSpaceOnUse">
<stop stop-color="#3DC0FF"/>
<stop offset="1" stop-color="#8F00FF" stop-opacity="0"/>
</linearGradient>
<linearGradient id="paint9_linear_1616_5438" x1="-15.3923" y1="10.0385" x2="74.9538" y2="76.9615" gradientUnits="userSpaceOnUse">
<stop stop-color="#3DC0FF"/>
<stop offset="1" stop-color="#8F00FF" stop-opacity="0"/>
</linearGradient>
<linearGradient id="paint10_linear_1616_5438" x1="-15.3923" y1="10.0385" x2="74.9538" y2="76.9615" gradientUnits="userSpaceOnUse">
<stop stop-color="#3DC0FF"/>
<stop offset="1" stop-color="#8F00FF" stop-opacity="0"/>
</linearGradient>
<linearGradient id="paint11_linear_1616_5438" x1="-15.3923" y1="10.0385" x2="74.9538" y2="76.9615" gradientUnits="userSpaceOnUse">
<stop stop-color="#3DC0FF"/>
<stop offset="1" stop-color="#8F00FF" stop-opacity="0"/>
</linearGradient>
<linearGradient id="paint12_linear_1616_5438" x1="-15.3923" y1="10.0385" x2="74.9538" y2="76.9615" gradientUnits="userSpaceOnUse">
<stop stop-color="#3DC0FF"/>
<stop offset="1" stop-color="#8F00FF" stop-opacity="0"/>
</linearGradient>
<linearGradient id="paint13_linear_1616_5438" x1="-15.3923" y1="10.0385" x2="74.9538" y2="76.9615" gradientUnits="userSpaceOnUse">
<stop stop-color="#3DC0FF"/>
<stop offset="1" stop-color="#8F00FF" stop-opacity="0"/>
</linearGradient>
<linearGradient id="paint14_linear_1616_5438" x1="-15.3923" y1="10.0385" x2="74.9538" y2="76.9615" gradientUnits="userSpaceOnUse">
<stop stop-color="#3DC0FF"/>
<stop offset="1" stop-color="#8F00FF" stop-opacity="0"/>
</linearGradient>
<linearGradient id="paint15_linear_1616_5438" x1="-15.3923" y1="10.0385" x2="74.9538" y2="76.9615" gradientUnits="userSpaceOnUse">
<stop stop-color="#3DC0FF"/>
<stop offset="1" stop-color="#8F00FF" stop-opacity="0"/>
</linearGradient>
<linearGradient id="paint16_linear_1616_5438" x1="-15.3923" y1="10.0385" x2="74.9538" y2="76.9615" gradientUnits="userSpaceOnUse">
<stop stop-color="#3DC0FF"/>
<stop offset="1" stop-color="#8F00FF" stop-opacity="0"/>
</linearGradient>
<linearGradient id="paint17_linear_1616_5438" x1="-15.3923" y1="10.0385" x2="74.9538" y2="76.9615" gradientUnits="userSpaceOnUse">
<stop stop-color="#3DC0FF"/>
<stop offset="1" stop-color="#8F00FF" stop-opacity="0"/>
</linearGradient>
<linearGradient id="paint18_linear_1616_5438" x1="-15.3923" y1="10.0385" x2="74.9538" y2="76.9615" gradientUnits="userSpaceOnUse">
<stop stop-color="#3DC0FF"/>
<stop offset="1" stop-color="#8F00FF" stop-opacity="0"/>
</linearGradient>
</defs>
</svg>
