<svg width="109" height="71" viewBox="0 0 109 71" fill="none" xmlns="http://www.w3.org/2000/svg">
<path d="M53.1991 12.7509L60.9796 14.1821L74.7419 4.83186C75.5458 4.28666 75.4505 3.44159 75.396 3.20988C75.3415 2.96454 75.1098 2.16037 74.1424 1.98318L65.8986 0.470237L63.4323 0.0204451C63.2687 -0.00681504 63.1052 -0.00681504 62.9553 0.0204451C62.7918 0.0340752 62.6419 0.0885957 62.4921 0.143116L40.0226 10.352L53.1991 12.7646V12.7509Z" fill="url(#paint0_linear_1616_5440)"/>
<path d="M100.332 22.4281C100.372 22.3464 100.427 22.2646 100.509 22.1964C100.536 22.1555 100.55 22.101 100.591 22.0601L108.507 14.5227C108.943 14.1138 109.107 13.5141 108.93 12.9416C108.753 12.3555 108.303 11.9466 107.703 11.8512L102.062 10.8017C100.781 10.57 99.4732 10.8835 98.4376 11.6604L85.9152 21.2287C85.6427 21.4195 85.3429 21.5149 85.0432 21.5149C84.9478 21.5149 84.8524 21.5013 84.7706 21.4877L28.1815 11.0879C22.2405 9.99752 16.1905 11.5377 11.5032 15.2996L22.6493 17.3305C23.4396 17.4804 23.9574 18.2437 23.8075 19.0343C23.6713 19.7294 23.0717 20.2201 22.3768 20.2201C22.295 20.2201 22.1996 20.2064 22.1179 20.1928L8.55993 17.7121L1.50162 23.614C0.23439 24.6771 -0.269775 26.2446 0.139008 27.8393C0.561417 29.434 1.76051 30.5789 3.39564 30.8788L39.314 37.7756L32.8689 28.3027L34.3132 29.7884L73.3383 69.7381C73.5972 70.0107 73.9651 70.1743 74.3739 70.2152L75.6684 70.3242L81.0234 70.9921C81.5549 71.0466 82.0318 70.8149 82.3588 70.4196C82.4133 70.3651 82.4678 70.3106 82.5087 70.2424C82.645 69.9971 82.7131 69.7381 82.7267 69.4792C82.7267 69.152 82.6586 68.8249 82.4542 68.5387L65.5033 34.4908L72.0711 44.0591C80.3013 45.5175 88.7767 44.0182 96.0121 39.7792L105.973 33.9319C108.085 32.6916 108.548 30.538 108.276 28.957C108.126 28.1664 107.771 27.3077 107.145 26.5989C106.518 25.8902 105.632 25.3041 104.433 25.086C104.406 25.0724 104.379 25.086 104.365 25.0724L101.381 24.5408C101.381 24.5408 101.285 24.4999 101.231 24.4863C101.136 24.459 101.054 24.4181 100.972 24.3636C100.877 24.3227 100.781 24.2682 100.713 24.1864C100.672 24.1592 100.631 24.1455 100.577 24.1046C100.55 24.0774 100.55 24.0501 100.522 24.0092C100.468 23.9411 100.427 23.8593 100.359 23.7775C100.318 23.6957 100.291 23.6003 100.263 23.5185C100.236 23.4368 100.236 23.3414 100.223 23.2596C100.209 23.1642 100.209 23.0688 100.223 22.9733C100.223 22.9325 100.209 22.9052 100.209 22.8507C100.223 22.7962 100.25 22.7689 100.263 22.7007C100.291 22.6053 100.332 22.5099 100.386 22.4281H100.332ZM37.8696 23.0824C37.7879 23.0824 37.6925 23.0824 37.6107 23.0688L34.6539 22.5099C33.8499 22.36 33.3458 21.6103 33.4957 20.8198C33.6456 20.0293 34.3814 19.5113 35.1853 19.6612L38.1422 20.1928C38.9325 20.3427 39.4503 21.0924 39.3004 21.8829C39.1641 22.5917 38.5646 23.0688 37.8696 23.0688V23.0824ZM47.5305 24.8543C47.4488 24.8543 47.3534 24.8543 47.258 24.8407L44.3011 24.2818C43.5108 24.1319 42.993 23.3822 43.1429 22.5917C43.2928 21.8012 44.0286 21.2832 44.8326 21.4331L47.7894 21.9647C48.5934 22.1147 49.1112 22.8643 48.9613 23.6549C48.825 24.3636 48.2255 24.8407 47.5305 24.8407V24.8543ZM57.1778 26.6262C57.096 26.6262 57.0007 26.6262 56.9189 26.6126L53.962 26.0537C53.1581 25.9174 52.6403 25.1542 52.7902 24.3636C52.9401 23.5731 53.6895 23.0551 54.4935 23.2051L57.4503 23.7366C58.2406 23.8866 58.7584 24.6362 58.6085 25.4268C58.4723 26.1355 57.8727 26.6126 57.1778 26.6126V26.6262ZM66.8251 28.3981C66.7433 28.3981 66.6479 28.3981 66.5662 28.3845L63.6093 27.8257C62.819 27.6894 62.3012 26.9261 62.4511 26.1355C62.601 25.345 63.3368 24.827 64.1407 24.977L67.0976 25.5085C67.9015 25.6585 68.4193 26.4081 68.2694 27.2123C68.1332 27.9074 67.5336 28.3845 66.8251 28.3845V28.3981ZM76.486 30.17C76.4042 30.17 76.3088 30.17 76.2271 30.1564L73.2566 29.5976C72.4663 29.4476 71.9485 28.698 72.0984 27.9074C72.2483 27.1169 72.9977 26.5989 73.8016 26.7489L76.7585 27.2805C77.5488 27.4304 78.0666 28.18 77.9167 28.9842C77.7804 29.6793 77.1809 30.1564 76.486 30.1564V30.17Z" fill="url(#paint1_linear_1616_5440)"/>
<defs>
<linearGradient id="paint0_linear_1616_5440" x1="-19.2846" y1="8.19231" x2="57.1587" y2="95.1232" gradientUnits="userSpaceOnUse">
<stop stop-color="#3DC0FF"/>
<stop offset="1" stop-color="#8F00FF" stop-opacity="0"/>
</linearGradient>
<linearGradient id="paint1_linear_1616_5440" x1="-19.2846" y1="8.19231" x2="57.1587" y2="95.1232" gradientUnits="userSpaceOnUse">
<stop stop-color="#3DC0FF"/>
<stop offset="1" stop-color="#8F00FF" stop-opacity="0"/>
</linearGradient>
</defs>
</svg>
