<svg width="149" height="115" viewBox="0 0 149 115" fill="none" xmlns="http://www.w3.org/2000/svg">
<path d="M84.3866 41.6026L74.9202 36.6323L65.4538 41.6026L74.9202 43.8032L84.3866 41.6026Z" fill="url(#paint0_linear_1616_5437)"/>
<path d="M27.7211 32.8575L57.9793 39.8766L60.3506 26.047L60.1229 25.8194L27.7211 32.8575Z" fill="url(#paint1_linear_1616_5437)"/>
<path d="M56.3669 63.589L56.3859 63.57L71.0882 47.1035H71.1071L18.805 34.9813L0.839844 48.071V48.09L56.3669 63.589Z" fill="url(#paint2_linear_1616_5437)"/>
<path d="M89.5264 26.0091L89.4695 26.047L91.8408 39.8766L122.118 32.8575L89.7161 25.8194L89.5264 26.0091Z" fill="url(#paint3_linear_1616_5437)"/>
<path d="M129.992 57.6327L93.3404 67.8769C93.1507 67.9338 92.961 67.9528 92.7713 67.9528C92.2022 67.9528 91.652 67.7062 91.2537 67.2698L76.9688 51.2586V115L129.992 94.6065V57.6327Z" fill="url(#paint4_linear_1616_5437)"/>
<path d="M131.016 34.9813L78.7522 47.1035H78.7332L93.4544 63.589L149.001 48.09L131.016 34.9813Z" fill="url(#paint5_linear_1616_5437)"/>
<path d="M72.8696 51.2592L58.5657 67.2704C58.0535 67.8585 57.2378 68.0862 56.4979 67.8775L19.8466 57.6333V94.5882L72.8696 114.982V51.2402V51.2592ZM24.4565 80.2274L27.0745 76.2625C27.1693 76.0918 27.3021 76.0159 27.5297 76.0159C27.7195 76.0349 27.8712 76.1297 27.9661 76.3004L30.6409 81.764C30.7358 81.9537 30.7168 82.1813 30.584 82.3141C30.4702 82.4849 30.2615 82.5418 30.0528 82.4849L29.294 82.2762V87.3793C29.275 87.55 29.1992 87.6828 29.0474 87.7967C28.9715 87.8536 28.8577 87.8915 28.7628 87.8915C28.7059 87.8915 28.649 87.8726 28.5921 87.8536L25.9742 86.9809C25.7655 86.924 25.6327 86.7153 25.6327 86.4877L25.6706 81.2708L24.76 81.0052C24.5893 80.9672 24.4755 80.8344 24.4375 80.7016C24.3806 80.5309 24.3996 80.3791 24.4755 80.2274H24.4565ZM38.362 95.7454C38.362 95.9161 38.2861 96.0679 38.1343 96.1627C38.0585 96.2196 37.9446 96.2576 37.8498 96.2576C37.7929 96.2576 37.736 96.2386 37.6601 96.2196L24.8359 91.2873C24.6272 91.2114 24.4944 91.0027 24.5134 90.794V88.0812C24.5324 87.8915 24.6083 87.7587 24.7411 87.6449C24.8928 87.569 25.0636 87.55 25.2153 87.588L38.0395 92.1599C38.2292 92.2168 38.362 92.4065 38.362 92.6342V95.7454ZM38.5517 84.5337C38.4379 84.7045 38.2102 84.7614 38.0205 84.7044L37.034 84.4389V89.9783C37.034 90.168 36.9582 90.3008 36.8064 90.4146C36.7305 90.4715 36.6167 90.4905 36.5218 90.4905C36.4649 90.4905 36.408 90.4905 36.3511 90.4715L33.3348 89.4471C33.1261 89.3902 32.9933 89.1815 32.9933 88.9728V83.3196L31.893 83.0161C31.7223 82.9591 31.6084 82.8264 31.5515 82.6936C31.4946 82.5228 31.5326 82.3711 31.6084 82.2193L34.5868 77.9888C34.6817 77.8371 34.8714 77.7422 35.0421 77.7612C35.2318 77.7802 35.3836 77.875 35.4784 78.0457L38.6276 83.9646C38.7035 84.1543 38.6845 84.382 38.5707 84.5337H38.5517Z" fill="url(#paint6_linear_1616_5437)"/>
<path d="M63.9744 23.8841C64.3348 24.2445 64.5625 24.6998 64.6004 25.193C64.6004 25.193 64.6004 25.212 64.6004 25.231C64.6004 25.3827 64.6004 25.5345 64.5814 25.6863L62.3619 38.6243L73.9719 32.5157C73.9719 32.5157 74.1426 32.4588 74.2185 32.4208C74.4462 32.345 74.6928 32.2881 74.9204 32.2881C75.1291 32.2881 75.3188 32.326 75.5085 32.3829C75.6223 32.4208 75.7551 32.4588 75.869 32.5157L87.498 38.6243L85.2784 25.6863C85.1835 25.0413 85.3733 24.3583 85.8665 23.903L95.257 14.7402L82.2621 12.8621C81.9206 12.8052 81.6171 12.6914 81.3515 12.5017C81.3515 12.5017 81.3515 12.5017 81.3325 12.5017C81.0859 12.312 80.8582 12.0653 80.7254 11.7618L74.9204 0L69.0964 11.7618C68.8119 12.3689 68.2428 12.7862 67.5598 12.8811L54.5839 14.7592L63.9744 23.922V23.8841Z" fill="url(#paint7_linear_1616_5437)"/>
<defs>
<linearGradient id="paint0_linear_1616_5437" x1="-25.3732" y1="13.2692" x2="99.3319" y2="132.28" gradientUnits="userSpaceOnUse">
<stop stop-color="#3DC0FF"/>
<stop offset="1" stop-color="#8F00FF" stop-opacity="0"/>
</linearGradient>
<linearGradient id="paint1_linear_1616_5437" x1="-25.3732" y1="13.2692" x2="99.3319" y2="132.28" gradientUnits="userSpaceOnUse">
<stop stop-color="#3DC0FF"/>
<stop offset="1" stop-color="#8F00FF" stop-opacity="0"/>
</linearGradient>
<linearGradient id="paint2_linear_1616_5437" x1="-25.3732" y1="13.2692" x2="99.3319" y2="132.28" gradientUnits="userSpaceOnUse">
<stop stop-color="#3DC0FF"/>
<stop offset="1" stop-color="#8F00FF" stop-opacity="0"/>
</linearGradient>
<linearGradient id="paint3_linear_1616_5437" x1="-25.3732" y1="13.2692" x2="99.3319" y2="132.28" gradientUnits="userSpaceOnUse">
<stop stop-color="#3DC0FF"/>
<stop offset="1" stop-color="#8F00FF" stop-opacity="0"/>
</linearGradient>
<linearGradient id="paint4_linear_1616_5437" x1="-25.3732" y1="13.2692" x2="99.3319" y2="132.28" gradientUnits="userSpaceOnUse">
<stop stop-color="#3DC0FF"/>
<stop offset="1" stop-color="#8F00FF" stop-opacity="0"/>
</linearGradient>
<linearGradient id="paint5_linear_1616_5437" x1="-25.3732" y1="13.2692" x2="99.3319" y2="132.28" gradientUnits="userSpaceOnUse">
<stop stop-color="#3DC0FF"/>
<stop offset="1" stop-color="#8F00FF" stop-opacity="0"/>
</linearGradient>
<linearGradient id="paint6_linear_1616_5437" x1="-25.3732" y1="13.2692" x2="99.3319" y2="132.28" gradientUnits="userSpaceOnUse">
<stop stop-color="#3DC0FF"/>
<stop offset="1" stop-color="#8F00FF" stop-opacity="0"/>
</linearGradient>
<linearGradient id="paint7_linear_1616_5437" x1="-25.3732" y1="13.2692" x2="99.3319" y2="132.28" gradientUnits="userSpaceOnUse">
<stop stop-color="#3DC0FF"/>
<stop offset="1" stop-color="#8F00FF" stop-opacity="0"/>
</linearGradient>
</defs>
</svg>
