<svg width="103" height="137" viewBox="0 0 103 137" fill="none" xmlns="http://www.w3.org/2000/svg">
<path d="M51.4831 0L37.6686 7.96215L87.3151 36.5574L101.13 28.6124L51.4831 0Z" fill="url(#paint0_linear_1616_5439)"/>
<path d="M89.6831 39.417V58.0468C89.6831 59.0228 88.928 59.8104 87.9842 59.8789L87.3149 59.9303L80.5878 60.3926L71.8701 68.526C71.5269 68.8513 71.0635 69.0226 70.6002 69.0226C70.3599 69.0226 70.1025 68.9712 69.8794 68.8685C69.5705 68.7315 69.3303 68.526 69.1415 68.2863C68.9013 67.9781 68.764 67.6013 68.764 67.1904V51.4887L53.3363 60.3755V83.3202C54.3488 83.3544 55.3613 83.44 56.3738 83.577C56.5969 83.6113 56.82 83.6284 57.0431 83.6626C57.2318 83.6969 57.4034 83.7483 57.5579 83.8339C57.5579 83.8339 57.575 83.8339 57.5922 83.8339C57.5922 83.8339 57.5922 83.8339 57.6265 83.851C58.1242 84.125 58.4846 84.6044 58.5704 85.2037L59.1538 89.2961C59.7888 89.4844 60.4066 89.7242 61.0415 89.9639C61.1788 90.0152 61.3333 90.0666 61.4706 90.118C62.1913 90.4091 62.8949 90.7515 63.5814 91.1111L66.8763 88.6283C66.8763 88.6283 66.9964 88.5598 67.065 88.5255C67.168 88.4571 67.271 88.3886 67.3911 88.3543C67.8201 88.2173 68.2835 88.2516 68.6953 88.4228C68.8154 88.4742 68.9356 88.5255 69.0385 88.594C70.7031 89.7755 72.2305 91.1625 73.6033 92.6864C74.3413 93.5083 75.062 94.3473 75.7141 95.2548C75.8343 95.409 75.9201 95.5973 75.9715 95.7685C76.023 95.9569 76.0574 96.1281 76.0574 96.3165C76.0574 96.3165 76.0574 96.3336 76.0574 96.3507C76.0574 96.7274 75.9201 97.087 75.697 97.3952L73.2086 100.7C73.7063 101.607 74.101 102.566 74.4786 103.525C74.6673 104.022 74.8561 104.535 75.0105 105.049L103 88.9194V31.7802L89.7175 39.4342L89.6831 39.417Z" fill="url(#paint1_linear_1616_5439)"/>
<path d="M16.7324 20.0166L1.83676 28.5952L51.4833 57.2075L66.379 48.629V48.6118L16.7496 20.0166H16.7324Z" fill="url(#paint2_linear_1616_5439)"/>
<path d="M71.4918 47.3451C72.0581 47.6704 72.4013 48.2868 72.4013 48.9375V62.9783L78.5106 57.2764C78.6822 57.1051 78.9053 57.0024 79.1284 56.9168C79.3 56.8654 79.4545 56.814 79.6433 56.7969L85.9928 56.3517V40.0507L33.978 10.0856L20.4037 17.9108L71.509 47.3451H71.4918Z" fill="url(#paint3_linear_1616_5439)"/>
<path d="M0 88.9707L28.4185 105.306L29.5854 105.135C30.0488 103.611 30.6494 102.138 31.4217 100.717L28.9333 97.4294C28.4528 96.7959 28.4357 95.9055 28.9162 95.2719C30.7695 92.6864 33.0005 90.4433 35.5918 88.6111C36.2267 88.1317 37.1191 88.1488 37.754 88.6282L41.0489 91.1111C42.4561 90.3577 43.9491 89.7412 45.4765 89.2789L46.0599 85.1865C46.1629 84.3989 46.7978 83.7825 47.5872 83.6455C48.2737 83.5427 48.9601 83.44 49.6637 83.3886V60.3412L0.0171613 31.7459V88.9536L0 88.9707ZM21.8973 94.0391C21.8973 94.2103 21.8115 94.3473 21.6743 94.45C21.6056 94.4843 21.5026 94.5014 21.434 94.5014C21.3654 94.5014 21.2624 94.4843 21.2109 94.45L5.59446 85.4434C5.44001 85.3749 5.35421 85.2208 5.35421 85.0667V81.6421C5.35421 81.4709 5.44001 81.3339 5.59446 81.2311C5.71459 81.1627 5.90336 81.1627 6.05781 81.2311L21.6743 90.2378C21.7944 90.3063 21.8973 90.4604 21.8973 90.6145V94.0391ZM14.4323 77.0189L17.916 73.2005C18.019 73.0806 18.1734 73.0122 18.345 73.0464C18.4995 73.0635 18.6196 73.1663 18.6882 73.3032L22.1719 81.1455C22.2577 81.3339 22.2062 81.5565 22.069 81.6763C21.9145 81.7962 21.7086 81.8476 21.537 81.7277L20.4387 81.1113V87.3269C20.4387 87.4981 20.37 87.6351 20.2156 87.7379C20.1469 87.7721 20.0611 87.7892 19.9753 87.7892C19.9067 87.7892 19.8209 87.7721 19.7522 87.7379L16.32 85.7687C16.1656 85.6831 16.0798 85.529 16.0798 85.3578V78.6113L14.5353 77.721C14.4152 77.6525 14.3294 77.5326 14.2951 77.3956C14.2779 77.2758 14.3294 77.1217 14.4152 77.036L14.4323 77.0189ZM5.16544 71.6766L8.66627 67.8753C8.76923 67.7554 8.92368 67.6869 9.09529 67.7212C9.24974 67.7383 9.36987 67.841 9.42135 67.978L12.9222 75.8203C12.9908 76.0087 12.9565 76.2313 12.8192 76.3511C12.6819 76.471 12.4588 76.5052 12.2872 76.4025L11.1889 75.7861V82.0017C11.1889 82.1729 11.1031 82.3099 10.9658 82.4126C10.8972 82.4469 10.7942 82.464 10.7256 82.464C10.6569 82.464 10.5711 82.4469 10.5025 82.4126L7.05314 80.4435C6.93301 80.3579 6.83005 80.2038 6.83005 80.0325V73.2861L5.2684 72.3957C5.16544 72.3272 5.06247 72.2074 5.04531 72.0704C5.02815 71.9505 5.06247 71.7964 5.14828 71.6937L5.16544 71.6766Z" fill="url(#paint4_linear_1616_5439)"/>
<path d="M32.8282 107.24C32.6394 107.96 32.0388 108.507 31.2837 108.61L27.3538 109.158C27.2509 110.1 27.1994 111.025 27.1994 111.966C27.1994 112.908 27.2337 113.816 27.3538 114.74L31.2837 115.305C32.0388 115.391 32.6394 115.939 32.8282 116.675C33.3087 118.678 34.0981 120.596 35.1792 122.343C35.5568 122.976 35.5224 123.781 35.0763 124.398L32.6909 127.565C33.8578 129.021 35.1792 130.339 36.6551 131.504L39.8127 129.123C40.4133 128.678 41.237 128.644 41.8892 129.038C43.6567 130.117 45.5616 130.904 47.5523 131.384C48.2902 131.572 48.8393 132.171 48.9423 132.908L49.4914 136.846C51.362 137.051 53.2325 137.051 55.0859 136.846L55.6522 132.908C55.738 132.171 56.2872 131.572 57.0251 131.384C59.0501 130.904 60.9549 130.117 62.7054 129.038C63.3403 128.661 64.1469 128.695 64.7647 129.123L67.9394 131.504C69.381 130.356 70.7195 129.038 71.8865 127.565L69.5011 124.398C69.0549 123.798 69.0034 122.993 69.4153 122.343C70.4964 120.579 71.2858 118.661 71.7663 116.675C71.9551 115.939 72.5557 115.391 73.2936 115.305L77.2407 114.74C77.3265 113.798 77.3951 112.874 77.3951 111.966C77.3951 111.059 77.3436 110.1 77.2407 109.158L73.2936 108.61C72.5557 108.507 71.9551 107.96 71.7663 107.24C71.2858 105.22 70.4964 103.319 69.4153 101.573C69.0034 100.939 69.0721 100.117 69.5011 99.518L71.8865 96.3502C70.7367 94.8776 69.3981 93.5763 67.9394 92.3948L64.7647 94.7749C64.1812 95.2372 63.3575 95.2715 62.7054 94.8777C60.9378 93.7989 59.0329 93.0113 57.0251 92.5318C56.2872 92.3435 55.738 91.7442 55.6522 91.0079L55.0859 87.0696C53.2325 86.8641 51.362 86.8641 49.4914 87.0696L48.9423 91.0079C48.8393 91.7442 48.2902 92.3435 47.5523 92.5318C45.5616 93.0113 43.6396 93.7989 41.8892 94.8777C41.2542 95.2544 40.4133 95.2201 39.8127 94.7749L36.6551 92.3948C35.1792 93.5592 33.875 94.8776 32.6909 96.3502L35.0763 99.518C35.5396 100.1 35.5739 100.922 35.1792 101.573C34.0981 103.336 33.3087 105.237 32.8282 107.24ZM52.2887 102.96C57.2653 102.96 61.2982 107.001 61.2982 111.966C61.2982 116.932 57.2653 120.973 52.2887 120.973C47.312 120.973 43.262 116.932 43.262 111.966C43.262 107.001 47.312 102.96 52.2887 102.96Z" fill="url(#paint5_linear_1616_5439)"/>
<defs>
<linearGradient id="paint0_linear_1616_5439" x1="-18.2231" y1="15.8077" x2="108.214" y2="86.2214" gradientUnits="userSpaceOnUse">
<stop stop-color="#3DC0FF"/>
<stop offset="1" stop-color="#8F00FF" stop-opacity="0"/>
</linearGradient>
<linearGradient id="paint1_linear_1616_5439" x1="-18.2231" y1="15.8077" x2="108.214" y2="86.2214" gradientUnits="userSpaceOnUse">
<stop stop-color="#3DC0FF"/>
<stop offset="1" stop-color="#8F00FF" stop-opacity="0"/>
</linearGradient>
<linearGradient id="paint2_linear_1616_5439" x1="-18.2231" y1="15.8077" x2="108.214" y2="86.2214" gradientUnits="userSpaceOnUse">
<stop stop-color="#3DC0FF"/>
<stop offset="1" stop-color="#8F00FF" stop-opacity="0"/>
</linearGradient>
<linearGradient id="paint3_linear_1616_5439" x1="-18.2231" y1="15.8077" x2="108.214" y2="86.2214" gradientUnits="userSpaceOnUse">
<stop stop-color="#3DC0FF"/>
<stop offset="1" stop-color="#8F00FF" stop-opacity="0"/>
</linearGradient>
<linearGradient id="paint4_linear_1616_5439" x1="-18.2231" y1="15.8077" x2="108.214" y2="86.2214" gradientUnits="userSpaceOnUse">
<stop stop-color="#3DC0FF"/>
<stop offset="1" stop-color="#8F00FF" stop-opacity="0"/>
</linearGradient>
<linearGradient id="paint5_linear_1616_5439" x1="-18.2231" y1="15.8077" x2="108.214" y2="86.2214" gradientUnits="userSpaceOnUse">
<stop stop-color="#3DC0FF"/>
<stop offset="1" stop-color="#8F00FF" stop-opacity="0"/>
</linearGradient>
</defs>
</svg>
