<svg width="230" height="71" viewBox="0 0 230 71" fill="none" xmlns="http://www.w3.org/2000/svg">
<path fill-rule="evenodd" clip-rule="evenodd" d="M186.9 37.0378V9.42871H190.102L207.038 30.8612V9.42871H210.697V37.0378H207.426L190.541 15.5849V37.0378H186.9Z" fill="white"/>
<path fill-rule="evenodd" clip-rule="evenodd" d="M179.496 37.0378V9.42871H183.175V37.0378H179.496Z" fill="white"/>
<path fill-rule="evenodd" clip-rule="evenodd" d="M118.752 37.0378V9.42871H122.431V37.0378H118.752Z" fill="white"/>
<path fill-rule="evenodd" clip-rule="evenodd" d="M91.25 37.0378L103.076 22.4149L92.87 9.42871H97.4143L105.374 19.5315L113.465 9.42871H118.028L107.621 22.4149L119.002 37.0378H114.513L105.285 25.2365L95.7564 37.0378H91.25Z" fill="white"/>
<path fill-rule="evenodd" clip-rule="evenodd" d="M122.572 37.0378L133.719 9.42871H136.401L147.693 37.0378H143.889L135.008 15.4093L126.345 37.0378H122.572Z" fill="white"/>
<path fill-rule="evenodd" clip-rule="evenodd" d="M144.35 23.1221C144.35 21.2834 144.701 19.492 145.398 17.7615C146.095 16.0236 147.093 14.4872 148.38 13.1599C149.692 11.8062 151.173 10.7764 152.83 10.0627C154.481 9.35569 156.226 8.99829 158.053 8.99829C159.911 8.99829 161.681 9.35569 163.357 10.0761C165.027 10.7898 166.502 11.8214 167.776 13.1599C169.114 14.5557 170.117 16.1102 170.796 17.8154C171.467 19.5251 171.806 21.3846 171.806 23.3851C171.806 25.2639 171.461 27.0691 170.765 28.8007C170.074 30.532 169.088 32.0534 167.814 33.3674C166.476 34.7345 164.989 35.7713 163.339 36.4731C161.688 37.1801 159.924 37.5297 158.053 37.5297C156.226 37.5297 154.475 37.1667 152.799 36.4449C151.129 35.7178 149.653 34.6947 148.379 33.3674C147.055 31.9868 146.05 30.4241 145.373 28.6925C144.689 26.9553 144.35 25.0966 144.35 23.1225V23.1221ZM148.267 23.2642C148.267 24.6718 148.512 26.0122 149.001 27.2845C149.491 28.5649 150.2 29.6963 151.116 30.6796C152.013 31.6689 153.062 32.4242 154.274 32.956C155.479 33.4875 156.741 33.7582 158.053 33.7582C159.395 33.7582 160.664 33.4945 161.85 32.9761C163.03 32.4577 164.091 31.6904 165.02 30.6796C165.936 29.6963 166.645 28.5649 167.142 27.2845C167.638 26.0122 167.889 24.6718 167.889 23.2642C167.889 21.8565 167.644 20.5229 167.155 19.2692C166.664 18.0103 165.937 16.8652 164.982 15.8272C164.066 14.8108 163.011 14.0424 161.818 13.5106C160.632 12.9788 159.377 12.7084 158.053 12.7084C156.772 12.7084 155.541 12.9788 154.342 13.5169C153.15 14.0555 152.071 14.8246 151.116 15.8272C150.2 16.7834 149.491 17.9084 149.001 19.2022C148.511 20.4894 148.267 21.842 148.267 23.2642Z" fill="white"/>
<path fill-rule="evenodd" clip-rule="evenodd" d="M167.617 40.9886C171.497 40.9886 172.896 37.7954 172.896 33.4523V9.42871H176.537V32.4492C176.537 35.8622 176.117 39.0454 174.768 41.3006H167.688L167.617 40.9886Z" fill="white"/>
<path d="M93.9379 57.8368H96.6978C96.6978 58.1685 96.6822 58.517 96.6543 58.8759C97.0667 58.8655 97.4044 58.845 97.6636 58.8179C97.895 58.8179 98.2486 58.8383 98.7236 58.8759C98.6763 57.8368 98.6414 56.9416 98.6097 56.1933V47.1441C98.6097 46.6488 98.6451 45.9961 98.7236 45.1827C97.9738 45.234 97.2902 45.2683 96.6781 45.282H94.0086C93.4076 45.282 92.721 45.2478 91.9355 45.1827C91.9984 45.9143 92.0378 46.5703 92.0534 47.1441C92.0534 54.6451 92.0296 58.8521 91.9828 59.7573C91.9672 59.8908 91.9515 60.0511 91.9355 60.2393C92.367 60.1984 92.705 60.1709 92.9486 60.1575C93.0862 60.1575 93.4317 60.185 93.9851 60.2393L93.9379 57.8368ZM93.9379 56.3127V52.2909H96.6978V56.3127H93.9379ZM93.9379 50.8279V46.8849H96.6978V50.8279H93.9379ZM96.4467 60.8782C97.3222 61.4011 97.9269 61.9887 98.2642 62.6414C98.4922 62.5492 98.7317 62.4603 98.9746 62.3818C101.095 61.606 102.426 60.7176 102.979 59.7197C103.223 59.279 103.407 58.8313 103.533 58.3768C103.67 57.8163 103.8 57.0201 103.921 55.9947H105.649V60.7585C105.649 61.2133 105.77 61.5547 106.014 61.7801C106.246 61.9136 106.552 62.0058 106.937 62.0605C107.718 62.1014 108.385 62.1289 108.939 62.139C109.504 62.139 110.073 62.1014 110.639 62.0196C110.913 61.9686 111.161 61.9069 111.377 61.8422C111.699 61.7087 111.95 61.48 112.134 61.1586C112.272 60.9057 112.496 60.3181 112.802 59.3988C112.205 59.2381 111.773 59.0912 111.514 58.9581C111.329 58.8763 111.031 58.678 110.615 58.3567C110.509 59.3579 110.372 59.9522 110.203 60.1404C110.066 60.2597 109.858 60.3523 109.582 60.4208C109.398 60.4308 109.021 60.4442 108.456 60.458C108.161 60.458 107.933 60.4275 107.765 60.359C107.58 60.2802 107.486 60.0448 107.486 59.6587V55.9951H109.351C110.227 55.9951 111.2 56.026 112.272 56.0944C112.225 55.7218 112.198 55.435 112.182 55.2331C112.182 55.0315 112.213 54.7444 112.272 54.3718C111.216 54.4264 110.234 54.4569 109.328 54.4707H101.554C100.816 54.4707 99.9958 54.4402 99.0929 54.3718C99.136 54.734 99.1598 55.0207 99.1598 55.2331C99.1598 55.448 99.136 55.7318 99.0929 56.0944C100.565 56.0397 101.539 56.0089 102.014 55.9951C101.876 57.1569 101.684 58.0045 101.436 58.5375C101.209 59.0295 100.785 59.4773 100.172 59.8771C99.3904 60.3319 98.4997 60.6253 97.5026 60.7588L96.4464 60.8782H96.4467ZM100.93 48.2037C101.256 48.1661 101.586 48.1044 101.919 48.0263C102.289 47.9445 102.673 47.8794 103.07 47.8247C103.439 48.7471 103.8 49.5604 104.153 50.2678C103.034 50.8007 101.731 51.221 100.243 51.5289L99.2974 51.71C99.7132 52.041 100.027 52.3147 100.243 52.5301C100.35 52.6495 100.549 52.9094 100.84 53.3126C101.115 53.1895 101.393 53.0764 101.668 52.9704C102.222 52.7688 102.779 52.5569 103.349 52.3281C103.945 52.1165 104.589 51.8361 105.28 51.4876C106.156 52.1708 106.937 52.6766 107.628 53.0117C108.609 53.49 109.504 53.7395 110.317 53.7496C110.792 53.7496 111.216 53.5309 111.581 53.0898C111.813 52.8101 112.166 52.1095 112.641 50.9885C111.86 50.7494 111.138 50.3154 110.478 49.6865C110.388 50.4619 110.301 50.9473 110.227 51.1492C110.073 51.604 109.873 51.8361 109.626 51.8495C109.441 51.8495 109.111 51.761 108.636 51.5899C108.346 51.4668 108.087 51.3404 107.855 51.2072C107.533 51.0332 107.258 50.8621 107.027 50.688C107.258 50.5274 107.741 50.2131 108.475 49.7482C109.398 49.0647 110.124 48.5656 110.662 48.2446C109.971 47.9646 109.405 47.5919 108.958 47.1241C108.762 47.2847 108.57 47.4588 108.385 47.6432C107.741 48.2175 106.889 48.8464 105.833 49.5258C105.538 49.0067 105.248 48.3439 104.957 47.5443C105.51 47.4249 106.076 47.3186 106.657 47.223L111.466 46.5022C111.313 45.9689 111.223 45.388 111.191 44.7625C110.501 44.9198 109.801 45.0738 109.099 45.2207L105.899 45.764C105.44 45.815 104.996 45.8905 104.564 45.9827C104.459 45.4222 104.372 44.7558 104.313 43.98C104.297 43.7409 104.289 43.5121 104.289 43.2998C103.599 43.2998 102.947 43.2384 102.334 43.1187L102.77 46.2423L101.918 46.3617C100.768 46.481 99.7746 46.5632 98.9307 46.6041C99.0679 47.2847 99.1583 47.93 99.2055 48.5455C99.7746 48.4261 100.348 48.3127 100.929 48.2037H100.93ZM123.528 60.1575C123.913 60.359 124.211 60.5606 124.427 60.7588C124.671 61.0393 125.009 61.4387 125.44 61.962C125.762 61.48 125.99 61.1795 126.127 61.0597C126.422 60.6186 126.771 60.2876 127.187 60.0582C127.325 59.9797 127.493 59.9321 127.694 59.9183C128.106 59.9183 128.715 60.1061 129.511 60.4784C130.155 60.7722 130.784 61.0184 131.396 61.2204C132.087 61.4219 133.014 61.586 134.179 61.7191C134.686 61.7604 135.259 61.8009 135.907 61.8422L143.911 61.8798C144.139 61.8798 144.371 61.8868 144.598 61.8998C144.646 61.1415 145.023 60.3449 145.729 59.5182L144.877 59.6379C144.724 59.6513 144.563 59.6788 144.395 59.7197C143.472 59.8767 142.514 59.9927 141.517 60.0578C139.676 60.1125 138.184 60.1467 137.033 60.1571L134.411 60.0578C133.52 59.9243 132.641 59.7502 131.765 59.5386C131.474 59.4568 131.203 59.378 130.96 59.2958C130.407 59.0979 129.708 58.8037 128.868 58.4177V51.8874C128.868 51.4501 128.903 50.8349 128.981 50.0454C128.428 50.0997 127.976 50.1339 127.623 50.148H125.923C125.401 50.148 124.816 50.1138 124.172 50.0454C124.235 50.4485 124.275 50.7665 124.29 51.0086C124.29 51.2206 124.251 51.5349 124.172 51.9484C124.816 51.8937 125.393 51.8629 125.9 51.8495H126.771V58.4378C126.755 58.4378 126.72 58.4482 126.657 58.4757C126.014 58.7695 125.307 59.1489 124.542 59.6171C124.31 59.6989 123.972 59.8767 123.529 60.1571L123.528 60.1575ZM125.601 45.1831C126.06 45.7811 126.512 46.6186 126.956 47.6845C127.018 47.8865 127.093 48.0985 127.187 48.3272C127.969 47.9653 128.742 47.7329 129.511 47.6232L127.372 43.7208C126.681 44.0793 125.943 44.3664 125.162 44.5817C125.299 44.7799 125.445 44.9815 125.601 45.1831ZM133.995 53.1694C133.889 53.8254 133.743 54.3926 133.559 54.8746C133.237 55.592 132.915 56.1733 132.593 56.614C131.992 57.2566 131.517 57.6765 131.167 57.8747C130.92 58.0116 130.681 58.1618 130.453 58.3363C131.466 58.5378 132.31 58.8696 132.981 59.3374C133.134 59.1254 133.303 58.9172 133.488 58.7189C134.838 57.0205 135.698 55.1717 136.067 53.169H139.286C139.286 55.8687 139.263 57.4883 139.216 58.0354L139.102 59.3783C139.656 59.3374 140.036 59.3099 140.252 59.2961C140.484 59.2961 140.865 59.3237 141.403 59.3783C141.312 57.9365 141.265 57.0342 141.265 56.6753V53.169H143.428C144.072 53.169 144.748 53.2099 145.45 53.2921C145.391 52.8886 145.352 52.5985 145.337 52.4103C145.337 52.1712 145.376 51.8499 145.45 51.4501C144.716 51.501 144.041 51.5423 143.428 51.5694H141.265V48.4049C142.643 48.4049 143.609 48.4254 144.163 48.4663C144.363 48.4663 144.622 48.4838 144.944 48.5247C144.9 48.1111 144.87 47.8106 144.854 47.6224C144.854 47.4651 144.885 47.1575 144.944 46.7031C144.257 46.7577 143.589 46.7886 142.946 46.802H141.266C141.266 45.4691 141.297 44.4817 141.356 43.8394C141.356 43.6654 141.372 43.4876 141.403 43.2994C140.881 43.3507 140.512 43.3849 140.3 43.3983C140.163 43.3983 139.77 43.3645 139.126 43.2994L139.263 44.8201L139.287 46.7815L136.205 46.8225L136.319 43.5177C136.229 43.5177 136.111 43.5248 135.974 43.5385C135.499 43.5385 134.855 43.4463 134.042 43.2581C134.105 44.3143 134.148 45.182 134.179 45.8622V46.802C132.845 46.802 131.855 46.7749 131.211 46.7235C131.027 46.7098 130.838 46.696 130.639 46.6826C130.681 47.0173 130.713 47.3249 130.729 47.6053C130.729 47.8444 130.697 48.152 130.639 48.5247C131.879 48.4458 132.853 48.4053 133.56 48.4053H134.18V51.5698H132.617C131.926 51.5698 131.074 51.5289 130.062 51.4504C130.125 51.809 130.164 52.0961 130.179 52.3114C130.179 52.5505 130.14 52.8786 130.062 53.2925C130.984 53.2378 131.832 53.1965 132.617 53.1694H133.995H133.995ZM136.205 51.5702V48.4057H139.287V51.5702H136.205ZM156.502 55.753C156.961 56.3949 157.315 57.0684 157.558 57.7758L159.054 55.435C159.282 55.0724 159.482 54.7377 159.651 54.4335C159.929 53.911 160.228 53.2579 160.55 52.4683C160.55 57.2354 160.526 59.9247 160.479 60.5402C160.432 60.94 160.389 61.4729 160.342 62.1394C160.895 62.0884 161.3 62.0538 161.562 62.0404C161.7 62.0404 162.096 62.0743 162.756 62.1394L162.642 60.458L162.595 59.1764V52.571C163.149 53.3431 163.518 53.8797 163.698 54.1702C163.93 54.5462 164.083 54.8262 164.161 55.0144C164.22 55.1713 164.299 55.3324 164.389 55.4927C164.99 55.1613 165.586 54.8842 166.183 54.6726L165.056 53.0697L164.365 52.089C164.259 51.9283 164.153 51.7814 164.043 51.6483C163.615 51.8499 163.133 52.031 162.595 52.1883V49.4061H164.161C164.62 49.4061 165.303 49.4403 166.206 49.5054C166.206 49.1469 166.19 48.846 166.159 48.6069C166.159 48.364 166.175 48.0564 166.206 47.6838C165.409 47.7385 164.711 47.7693 164.114 47.7831H162.594C162.594 46.1426 162.618 45.1414 162.665 44.7796C162.665 44.4203 162.696 44.0138 162.756 43.5597C162.233 43.6006 161.853 43.6278 161.605 43.6386C161.33 43.6386 160.91 43.6144 160.341 43.5597L160.549 46.2423V47.7835H159.077C158.476 47.7835 157.773 47.753 156.961 47.6842C156.977 48.2584 156.977 48.8668 156.961 49.5057C157.711 49.4682 158.402 49.434 159.03 49.4064H160.318C160.09 49.9669 159.874 50.5344 159.674 51.1087C159.584 51.3887 159.399 51.7543 159.12 52.2088L158.476 53.2713C158.233 53.6711 157.951 54.0709 157.628 54.4707C157.35 54.8467 157.146 55.0996 157.004 55.2327C156.823 55.3934 156.654 55.5674 156.501 55.7523L156.502 55.753ZM163.078 60.8786C163.679 61.1348 164.114 61.3468 164.389 61.5216C164.574 61.6139 164.813 61.8013 165.104 62.0817C165.288 61.9077 165.473 61.7332 165.657 61.5625C166.454 60.7592 167.149 59.8778 167.75 58.9175C168.347 57.9164 168.79 56.8635 169.085 55.7534C169.407 54.3383 169.567 52.0626 169.567 48.9259V46.6428H172.971C172.602 55.3737 172.426 59.8265 172.441 60.0009C172.441 60.2125 172.473 60.4282 172.532 60.6398C172.626 60.9745 172.94 61.2412 173.478 61.4394C173.843 61.522 174.322 61.5625 174.903 61.5625C175.378 61.5625 175.787 61.5488 176.124 61.5216C176.768 61.4803 177.251 61.313 177.573 61.0188C177.848 60.7008 178.225 59.8845 178.7 58.5795C177.902 58.3366 177.204 57.971 176.608 57.4757C176.36 58.6375 176.207 59.2865 176.144 59.42C176.038 59.6591 175.763 59.7789 175.316 59.7789C175.072 59.7789 174.872 59.7209 174.719 59.5978C174.581 59.5193 174.511 59.3452 174.511 59.0786L174.993 47.8463C174.993 47.4737 175.017 47.1114 175.064 46.7629L175.178 44.9417C174.306 45.0235 173.6 45.0611 173.062 45.0611H169.728C169.038 45.0611 168.272 45.0235 167.428 44.9417L167.542 46.9441L167.519 51.9298L167.405 53.413C167.251 54.6942 166.981 55.8017 166.6 56.7345C165.999 58.1763 165.081 59.3728 163.84 60.3193C163.592 60.4933 163.341 60.6811 163.078 60.8793V60.8786ZM189.265 55.6329C189.681 56.1561 190.062 56.8293 190.415 57.656C190.552 57.376 190.706 57.1093 190.874 56.8564C190.969 56.7229 191.098 56.4738 191.267 56.1145L191.864 54.9118C192.049 54.5395 192.209 54.1772 192.346 53.8321C192.484 53.4699 192.661 53.005 192.877 52.4308L192.83 60.7005L192.716 62.2007C193.175 62.146 193.56 62.1156 193.866 62.1018C194.11 62.1018 194.487 62.136 194.993 62.2007C194.903 60.9604 194.856 60.3245 194.856 60.2973L194.832 53.0902C195.107 53.5859 195.37 54.1125 195.614 54.6726C195.661 54.8061 195.723 54.9597 195.798 55.1338C196.32 54.8534 196.893 54.638 197.525 54.4911C197.431 54.3717 197.349 54.252 197.27 54.1326L198.373 54.0709C198.33 56.569 197.462 58.5512 195.774 60.0169L195.291 60.4371C195.845 60.5974 196.273 60.738 196.58 60.8574C196.78 60.9392 197.062 61.0724 197.431 61.2605C197.569 61.059 197.714 60.8574 197.867 60.6592C198.526 59.764 199.025 58.8889 199.362 58.0346C199.547 57.5155 199.7 56.9888 199.826 56.4522C199.932 55.8133 200.022 55.0203 200.101 54.0705H201.573V57.3957C201.573 57.9286 201.534 58.5438 201.459 59.2378C201.918 59.1968 202.24 59.1689 202.425 59.1556C202.578 59.1556 202.876 59.1831 203.32 59.2378C203.273 58.5575 203.237 57.9558 203.206 57.4366V54.0913C203.312 54.0776 203.442 54.0709 203.594 54.0709C203.873 54.0709 204.242 54.1051 204.702 54.1698V52.5706C204.042 52.6085 203.543 52.6357 203.206 52.6491V51.1864C203.206 50.8141 203.245 50.2399 203.32 49.4674C202.95 49.5188 202.645 49.553 202.401 49.5664C202.201 49.5664 201.887 49.5321 201.459 49.4674C201.518 50.1064 201.557 50.6806 201.573 51.1864V52.6491H200.167L200.148 50.6877C200.159 50.3154 200.191 49.9394 200.238 49.5667C199.901 49.5667 199.595 49.5534 199.319 49.5255C199.072 49.5255 198.743 49.4845 198.33 49.4061C198.346 49.7787 198.373 50.1681 198.42 50.5683L198.444 52.6491C197.969 52.6082 197.502 52.5773 197.042 52.5498C197.132 52.8302 197.179 53.0693 197.179 53.2709C197.179 53.3498 197.164 53.51 197.132 53.7492L195.774 51.6271C195.452 51.8287 195.138 51.9957 194.832 52.1295V49.2863C195.401 49.2863 196.053 49.3205 196.787 49.3856C196.724 48.9855 196.689 48.6987 196.673 48.5243C196.673 48.3123 196.712 48.0185 196.787 47.6425C196.143 47.6972 195.652 47.7314 195.315 47.7451H194.832V45.9202C194.832 45.2266 194.887 44.3348 194.993 43.2377C194.517 43.2786 194.141 43.3061 193.866 43.3199C193.591 43.3199 193.207 43.2923 192.715 43.2377C192.806 44.3348 192.861 45.2333 192.877 45.9407V47.7451H191.887C191.322 47.7451 190.662 47.7109 189.909 47.6425C189.972 47.9776 190.011 48.2714 190.023 48.5243C190.023 48.7262 189.987 49.013 189.909 49.3856C190.69 49.3447 191.342 49.3138 191.864 49.2863H192.625C192.304 50.2875 191.935 51.2477 191.518 52.1708C190.921 53.452 190.301 54.4707 189.658 55.2327C189.52 55.3521 189.387 55.4852 189.265 55.6321V55.6329ZM204.701 48.6076L204.792 51.7309L204.976 54.0136C205.066 54.6529 205.176 55.2677 205.298 55.8556L205.828 57.636C204.493 58.9175 203.205 59.8198 201.961 60.339C201.687 60.4312 201.427 60.5476 201.18 60.6807C201.734 60.879 202.145 61.0672 202.424 61.2412C202.578 61.3334 202.876 61.5796 203.32 61.9828C203.472 61.8496 203.649 61.7124 203.849 61.5796C204.371 61.1661 205.314 60.3665 206.68 59.1771C207.017 59.6591 207.292 60.018 207.508 60.2605C207.873 60.7012 208.305 61.0735 208.796 61.381C209.44 61.8217 209.97 62.0475 210.382 62.0613C210.751 62.0613 211.112 61.702 211.462 60.9816C211.556 60.7797 211.631 60.5748 211.693 60.3594C211.784 60.079 211.909 59.6316 212.063 59.0168C211.403 58.7364 210.774 58.3638 210.174 57.8959C210.131 58.0157 210.107 58.2035 210.107 58.4564C210.013 59.3791 209.868 59.8402 209.668 59.8402C209.53 59.7447 209.393 59.6249 209.256 59.478C208.749 58.9175 208.474 58.6103 208.427 58.5587C208.274 58.3162 208.113 58.0703 207.944 57.8174C208.541 56.775 208.992 55.8794 209.302 55.1349C209.593 54.4138 209.86 53.5182 210.107 52.452C210.166 52.0113 210.252 51.6557 210.359 51.3894C210.374 51.1778 210.421 51.003 210.496 50.8703C210.543 50.6687 210.598 50.4809 210.656 50.3098C210.244 50.2689 209.875 50.228 209.553 50.1871C209.279 50.1495 208.91 50.0673 208.45 49.9479L208.38 50.71C208.195 52.7502 207.767 54.442 207.092 55.7746C206.955 54.8928 206.825 54.0147 206.699 53.1329L206.632 51.3285L206.585 48.6087H208.658L211.603 48.7281C211.539 48.287 211.5 47.9798 211.485 47.8054C211.485 47.6306 211.524 47.3338 211.603 46.9065L208.611 47.0259H206.585L206.609 45.3415C206.609 45.2493 206.656 44.5966 206.746 43.3801C206.056 43.3422 205.305 43.2737 204.493 43.1819C204.493 44.2344 204.548 45.5156 204.654 47.0263C201.388 47.0263 199.303 47.0062 198.396 46.9649L197.363 46.9069C197.406 47.2658 197.438 47.5663 197.454 47.8058C197.454 48.0073 197.422 48.3145 197.363 48.7285C198.557 48.6738 199.554 48.6325 200.351 48.6091H204.701L204.701 48.6076ZM207.669 44.9406C208.172 45.6238 208.45 46.0035 208.498 46.082C208.556 46.2014 208.627 46.3345 208.702 46.4814C209.224 46.1913 209.868 45.928 210.633 45.7026L210.268 45.3025L209.185 43.8606C208.847 44.0588 208.565 44.2057 208.333 44.3013C208.105 44.3935 207.783 44.5066 207.367 44.6397C207.461 44.7357 207.56 44.835 207.669 44.9406Z" fill="white"/>
<path d="M96.7011 65.7046C96.7011 66.2681 96.4805 66.714 96.0368 67.0427C95.5935 67.3719 94.9754 67.5355 94.1855 67.5355H92.8083V69.8945H91.7168V63.876H94.1855C94.9754 63.876 95.5931 64.0396 96.0368 64.3684C96.4801 64.6975 96.7011 65.1434 96.7011 65.705V65.7046ZM95.6095 65.7046C95.6095 65.2602 95.4678 64.9537 95.1822 64.7901C94.8966 64.6265 94.4693 64.5439 93.9002 64.5439H92.8087V66.8672H93.9002C94.4693 66.8672 94.8966 66.7843 95.1822 66.621C95.4678 66.4574 95.6095 66.1509 95.6095 65.705V65.7046ZM102.872 69.8941H101.734L100.053 67.2889H98.7889V69.8941H97.6974V63.8756H100.071C100.83 63.8756 101.448 64.0106 101.922 64.2799C102.398 64.5502 102.635 64.9898 102.635 65.5997C102.635 66.0698 102.477 66.4332 102.161 66.6913C101.843 66.9494 101.48 67.1134 101.067 67.1837L102.872 69.8941ZM101.543 65.5994C101.543 65.2702 101.41 65.0136 101.14 64.8262C100.871 64.6384 100.435 64.5439 99.834 64.5439H98.7889V66.621H100.12C100.498 66.621 100.83 66.5444 101.116 66.393C101.401 66.2398 101.543 65.9754 101.543 65.6001V65.5994ZM108.854 66.8668C108.854 67.9706 108.625 68.7621 108.165 69.2422C107.708 69.7242 107.066 69.9648 106.244 69.9648C105.419 69.9648 104.771 69.7245 104.298 69.2422C103.822 68.7621 103.585 67.9706 103.585 66.8668C103.585 65.7645 103.822 64.9779 104.298 64.5093C104.771 64.0392 105.419 63.8049 106.244 63.8049C107.066 63.8049 107.708 64.0392 108.165 64.5093C108.625 64.9779 108.854 65.7645 108.854 66.8668ZM107.714 66.8668C107.714 65.8817 107.572 65.2357 107.287 64.9314C107.003 64.6265 106.655 64.4736 106.244 64.4736C105.832 64.4736 105.476 64.6265 105.176 64.9314C104.875 65.236 104.725 65.8817 104.725 66.8668C104.725 67.8535 104.875 68.5036 105.176 68.8204C105.477 69.1373 105.832 69.2965 106.244 69.2965C106.655 69.2965 107.003 69.1373 107.287 68.8204C107.572 68.5032 107.714 67.8535 107.714 66.8668ZM114.974 67.5006C114.942 68.3927 114.689 69.0257 114.215 69.4014C113.741 69.7774 113.17 69.9648 112.506 69.9648C111.746 69.9648 111.098 69.7368 110.559 69.2786C110.023 68.8208 109.753 68.0878 109.753 67.0788C109.753 65.975 110.015 65.1553 110.537 64.6146C111.06 64.0757 111.732 63.8053 112.554 63.8053C113.251 63.8053 113.828 63.9991 114.288 64.3866C114.746 64.7737 114.96 65.319 114.928 66.0233H113.883C113.883 65.5068 113.772 65.1189 113.551 64.8608C113.33 64.6027 112.998 64.4736 112.554 64.4736C112.048 64.4736 111.645 64.667 111.345 65.0545C111.044 65.4417 110.894 66.0921 110.894 67.0081C110.894 67.8535 111.044 68.4456 111.345 68.7862C111.645 69.1273 112.032 69.2969 112.508 69.2969C112.854 69.2969 113.172 69.1737 113.456 68.9275C113.741 68.6813 113.883 68.2049 113.883 67.5009H114.974V67.5006ZM120.91 69.8941H116.068V63.8756H120.673V64.5439H117.16V66.4105H120.388V67.0788H117.16V69.2262H120.91V69.8945V69.8941ZM126.984 68.2049C126.984 68.7453 126.755 69.1738 126.295 69.4906C125.838 69.8075 125.212 69.9652 124.42 69.9652C123.63 69.9652 123.013 69.8015 122.569 69.4728C122.125 69.144 121.904 68.7323 121.904 68.2399V67.9937H122.996V68.2053C122.996 68.5568 123.138 68.8268 123.424 69.015C123.709 69.2024 124.041 69.2972 124.42 69.2972C124.926 69.2972 125.299 69.1979 125.536 68.9986C125.772 68.7985 125.892 68.5586 125.892 68.276C125.892 68.0417 125.751 67.8241 125.465 67.6259C125.18 67.4258 124.768 67.2443 124.232 67.0792C123.473 66.8691 122.926 66.6348 122.593 66.3763C122.261 66.1182 122.095 65.8136 122.095 65.4607C122.095 64.9679 122.324 64.5699 122.784 64.265C123.242 63.96 123.788 63.8068 124.422 63.8068C125.245 63.8068 125.838 63.9887 126.201 64.3524C126.565 64.7168 126.747 65.1088 126.747 65.5328H125.656C125.688 65.2743 125.593 65.04 125.37 64.828C125.15 64.6164 124.834 64.5116 124.423 64.5116C124.042 64.5116 123.74 64.5878 123.519 64.7395C123.299 64.8928 123.187 65.0969 123.187 65.3554C123.187 65.567 123.274 65.7492 123.448 65.901C123.623 66.0538 124.074 66.2357 124.801 66.4473C125.498 66.6574 126.035 66.91 126.416 67.2027C126.794 67.4972 126.985 67.8304 126.985 68.2057L126.984 68.2049ZM133.059 68.2049C133.059 68.7453 132.83 69.1738 132.37 69.4906C131.913 69.8075 131.287 69.9652 130.495 69.9652C129.705 69.9652 129.088 69.8015 128.644 69.4728C128.201 69.144 127.979 68.7323 127.979 68.2399V67.9937H129.071V68.2053C129.071 68.5568 129.213 68.8268 129.499 69.015C129.784 69.2024 130.116 69.2972 130.495 69.2972C131.001 69.2972 131.374 69.1979 131.611 68.9986C131.848 68.7985 131.967 68.5586 131.967 68.276C131.967 68.0417 131.825 67.8241 131.54 67.6259C131.254 67.4258 130.843 67.2443 130.306 67.0792C129.547 66.8691 129 66.6348 128.668 66.3763C128.336 66.1182 128.17 65.8136 128.17 65.4607C128.17 64.9679 128.399 64.5699 128.859 64.265C129.316 63.96 129.863 63.8068 130.497 63.8068C131.319 63.8068 131.913 63.9887 132.275 64.3524C132.64 64.7168 132.822 65.1088 132.822 65.5328H131.73C131.762 65.2743 131.667 65.04 131.444 64.828C131.224 64.6164 130.908 64.5116 130.496 64.5116C130.116 64.5116 129.814 64.5878 129.593 64.7395C129.373 64.8928 129.261 65.0969 129.261 65.3554C129.261 65.567 129.348 65.7492 129.523 65.901C129.697 66.0538 130.148 66.2357 130.875 66.4473C131.572 66.6574 132.109 66.91 132.489 67.2027C132.868 67.4972 133.058 67.8304 133.058 68.2057L133.059 68.2049ZM137.142 69.8941H136.05V63.8756H137.142V69.8941ZM145.115 69.8941H143.928L141.318 65.5321H141.271V69.8941H140.179V63.8756H141.366L143.977 68.2366H144.023V63.8756H145.115V69.8941ZM151.19 69.9648H150.384L150.24 69.4724C150.115 69.6133 149.917 69.7305 149.647 69.8238C149.378 69.9183 149.086 69.9648 148.77 69.9648C148.104 69.9648 147.511 69.7368 146.99 69.2786C146.468 68.8208 146.206 68.0878 146.206 67.0788C146.206 65.9765 146.443 65.1553 146.919 64.6161C147.394 64.0772 148.041 63.8064 148.866 63.8064C149.593 63.8064 150.161 64.0065 150.573 64.4044C150.984 64.8039 151.19 65.319 151.19 65.9527H150.146C150.146 65.4603 150.034 65.0906 149.814 64.8444C149.593 64.5982 149.277 64.4747 148.866 64.4747C148.36 64.4747 147.979 64.6681 147.726 65.056C147.472 65.4432 147.347 66.0933 147.347 67.0096C147.347 67.8773 147.505 68.4753 147.821 68.8041C148.137 69.1328 148.501 69.2965 148.912 69.2965C149.323 69.2965 149.648 69.1853 149.885 68.9618C150.121 68.7394 150.241 68.3927 150.241 67.9238V67.5366H148.771V66.8683H151.19V69.9648ZM163.483 69.8941H162.533V65.5994H162.438L161.3 69.8941H160.541L159.403 65.5994H159.307V69.8941H158.358V63.8756H159.83L160.873 67.8501H160.968L162.011 63.8756H163.483V69.8941ZM169.846 69.8941H168.708L168.08 68.029H165.915L165.288 69.8941H164.149L166.523 63.8064H167.473L169.846 69.8941ZM167.819 67.3607L167.031 65.2133H166.964L166.176 67.3607H167.819H167.819ZM175.729 67.5009C175.697 68.3931 175.444 69.0261 174.97 69.4017C174.496 69.7777 173.925 69.9652 173.261 69.9652C172.501 69.9652 171.853 69.7372 171.315 69.279C170.778 68.8212 170.509 68.0882 170.509 67.0792C170.509 65.9754 170.77 65.1557 171.293 64.6149C171.815 64.0761 172.487 63.8057 173.31 63.8057C174.007 63.8057 174.584 63.9994 175.044 64.387C175.501 64.7741 175.716 65.3193 175.683 66.0237H174.639C174.639 65.5071 174.527 65.1192 174.306 64.8611C174.086 64.603 173.753 64.474 173.31 64.474C172.804 64.474 172.401 64.6674 172.101 65.0549C171.799 65.4421 171.65 66.0925 171.65 67.0085C171.65 67.8539 171.799 68.4459 172.101 68.7866C172.401 69.1276 172.788 69.2972 173.264 69.2972C173.61 69.2972 173.928 69.1741 174.212 68.9279C174.497 68.6817 174.639 68.2053 174.639 67.5013H175.73L175.729 67.5009ZM181.568 69.8945H180.476V67.0788H177.771V69.8945H176.679V63.876H177.771V66.4109H180.476V63.876H181.568V69.8945ZM185.746 69.8945H184.654V63.876H185.746V69.8945ZM193.719 69.8945H192.532L189.922 65.5324H189.875V69.8945H188.784V63.876H189.971L192.581 68.2369H192.628V63.876H193.719V69.8945H193.719ZM199.892 69.8945H195.049V63.876H199.655V64.5443H196.141V66.4109H199.369V67.0792H196.141V69.2266H199.892V69.8949V69.8945ZM206.156 69.8945H205.017L203.337 67.2893H202.072V69.8945H200.981V63.876H203.354C204.114 63.876 204.732 64.011 205.206 64.2802C205.681 64.5506 205.919 64.9902 205.919 65.6001C205.919 66.0702 205.761 66.4336 205.445 66.6917C205.127 66.9498 204.764 67.1138 204.351 67.1841L206.156 69.8945ZM204.827 65.5997C204.827 65.2706 204.694 65.014 204.424 64.8266C204.155 64.6387 203.719 64.5443 203.118 64.5443H202.073V66.6214H203.404C203.782 66.6214 204.114 66.5448 204.4 66.3934C204.685 66.2402 204.827 65.9757 204.827 65.6005V65.5997ZM212.28 63.876L210.048 67.1841V69.8945H208.956V67.1841L206.725 63.876H207.816L209.477 66.441H209.528L211.189 63.876H212.28H212.28Z" fill="white"/>
<path fill-rule="evenodd" clip-rule="evenodd" d="M0 13.822V9.11816H22.2604C26.4294 9.11816 30.0451 9.67267 33.0899 10.7969C36.1317 11.9212 39.3624 13.8771 42.7936 16.6998C46.2798 13.6554 49.6389 11.6449 52.867 10.6307C56.0951 9.61763 60.7804 9.11816 66.9432 9.11816H88.3341V13.822H66.0938C60.0623 13.822 55.4518 14.4018 52.221 15.5558C48.9973 16.7073 45.9116 18.8955 42.9602 22.1051C38.5133 18.6006 35.0453 16.3491 32.5171 15.3346C29.9919 14.3204 26.5395 13.8224 22.1503 13.8224H0.000363188L0 13.822Z" fill="#B2B3B3"/>
<path fill-rule="evenodd" clip-rule="evenodd" d="M0 51.5494V46.5309H21.9837C25.1932 46.5309 27.4209 45.9355 28.6991 44.742C30.2057 43.3355 30.9678 41.5139 30.9678 39.2806C30.9678 36.9387 30.1734 35.1115 28.6062 33.8024C27.0386 32.4933 24.8421 31.8287 22.0391 31.8287H0.000363188V26.9568H21.8725C25.8031 26.9568 28.8717 27.7426 31.06 29.337C32.5413 30.4162 33.7347 31.8652 34.6392 33.6909C35.5433 35.4998 35.9866 37.3619 35.9866 39.2806C35.9866 41.2926 35.4886 43.2663 34.4741 45.1667C33.4584 47.0854 32.1463 48.5767 30.5252 49.6489C28.6051 50.919 25.7087 51.5497 21.8174 51.5497H0.000363188L0 51.5494Z" fill="#8B8C8C"/>
<path fill-rule="evenodd" clip-rule="evenodd" d="M88.334 51.549H66.7398C61.3732 51.549 57.5284 50.9491 55.2658 49.7051C53.471 48.7173 52.0179 47.2319 50.9119 45.2761C49.8226 43.3392 49.2695 41.2554 49.2695 39.0586C49.2695 36.938 49.804 34.9263 50.8553 33.0073C51.9261 31.1084 53.3426 29.713 55.0623 28.8014C57.3436 27.5928 61.095 26.9561 66.3519 26.9561H88.334V31.828H66.4634C62.5358 31.828 59.7733 32.1791 58.1421 32.8054C56.9895 33.2487 56.0397 34.0598 55.3018 35.2771C54.5643 36.5129 54.1943 37.8224 54.1943 39.2245C54.1943 42.4344 55.6377 44.6226 58.5117 45.8105C60.1381 46.4837 62.792 46.8448 66.4634 46.8448H88.334V51.5486V51.549Z" fill="#8B8C8C"/>
<path fill-rule="evenodd" clip-rule="evenodd" d="M88.3341 60.7913H66.2422C61.9631 60.7913 58.6602 60.5332 56.335 60.0348C54.0099 59.5369 51.7963 58.5773 49.7125 57.1749C47.0359 55.3678 44.8406 52.8593 43.1071 49.6479C40.0456 53.7987 36.9458 56.6951 33.7913 58.3375C30.6368 59.9798 26.5763 60.7909 21.5958 60.7909H0.000363188V56.032H21.8725C26.596 56.032 30.3995 55.0205 33.2747 53.0058C35.3235 51.571 36.9822 49.5746 38.2184 47.0282C39.4543 44.5015 40.082 41.8632 40.082 39.1148C40.082 34.2998 38.42 30.3327 35.0821 27.2525C31.7424 24.1728 27.4804 22.6406 22.2604 22.6406H0V18.2119H22.5731C31.1522 18.2119 37.8677 21.8644 42.7382 29.0596C45.6528 24.7794 48.7143 21.9012 51.9253 20.4255C55.1338 18.9498 59.9685 18.2119 66.4627 18.2119H88.3333V22.9173H66.131C62.4235 22.9173 59.6342 23.0738 57.755 23.397C55.8899 23.7187 54.1757 24.3565 52.6264 25.2974C50.5043 26.5883 48.734 28.4888 47.3316 30.9604C45.8559 33.6356 45.118 36.4219 45.118 39.3365C45.118 41.8268 45.671 44.2434 46.7585 46.5868C47.866 48.9104 49.3235 50.8109 51.1685 52.2501C52.9392 53.689 54.9329 54.685 57.1632 55.2198C59.3965 55.7542 62.5146 56.0324 66.517 56.0324H88.3326V60.7913H88.3341Z" fill="white"/>
<path fill-rule="evenodd" clip-rule="evenodd" d="M88.3341 70.0352H66.4084C61.2248 70.0352 56.9264 69.4751 53.5119 68.3564C50.1205 67.2448 46.5945 65.2387 42.9602 62.3606C39.3074 65.2752 35.971 67.2957 32.905 68.3932C29.8465 69.4896 26.0411 70.0356 21.5039 70.0356H0V65.1655H22.5731C27.075 65.1655 30.7517 64.5842 33.6061 63.4116C36.4519 62.2423 39.5655 60.0354 42.9598 56.7891C46.4457 60.0719 49.8431 62.2814 53.1065 63.4298C56.3908 64.5853 60.873 65.1651 66.5728 65.1651H88.3333V70.0352H88.3341Z" fill="#B2B3B3"/>
<path fill-rule="evenodd" clip-rule="evenodd" d="M90.7676 40.7168H210.698V42.0032H90.7676V40.7168Z" fill="white"/>
<path d="M218.557 12.0482V3.8291H222.201C222.934 3.8291 223.49 3.90385 223.871 4.05113C224.252 4.19877 224.556 4.45874 224.786 4.83176C225.013 5.20701 225.126 5.6202 225.126 6.07169C225.126 6.65558 224.939 7.14538 224.56 7.54517C224.183 7.94534 223.599 8.19973 222.811 8.30907C223.1 8.44667 223.318 8.58279 223.467 8.71853C223.785 9.00936 224.085 9.37495 224.371 9.81119L225.8 12.0482H224.432L223.345 10.3374C223.027 9.84541 222.765 9.46681 222.558 9.20647C222.354 8.94428 222.17 8.76056 222.007 8.65717C221.845 8.55192 221.68 8.4794 221.511 8.437C221.387 8.41208 221.186 8.39907 220.905 8.39907H219.644V12.0482H218.557H218.557ZM219.644 7.4574H221.983C222.478 7.4574 222.869 7.40571 223.148 7.30232C223.429 7.19893 223.642 7.03418 223.787 6.80843C223.933 6.58268 224.005 6.3376 224.005 6.07169C224.005 5.68342 223.866 5.36358 223.583 5.11292C223.301 4.86225 222.855 4.73767 222.245 4.73767H219.644V7.45703V7.4574Z" fill="white"/>
<path fill-rule="evenodd" clip-rule="evenodd" d="M221.838 1C225.792 1 228.999 4.20694 228.999 8.16177C228.999 12.1166 225.792 15.3235 221.838 15.3235C217.883 15.3235 214.676 12.1166 214.676 8.16177C214.676 4.20694 217.883 1 221.838 1ZM221.838 2.35411C225.044 2.35411 227.645 4.95484 227.645 8.16177C227.645 11.3687 225.044 13.9694 221.838 13.9694C218.631 13.9694 216.03 11.3687 216.03 8.16177C216.03 4.95484 218.631 2.35411 221.838 2.35411Z" fill="white" stroke="white" stroke-width="0.287773" stroke-miterlimit="22.9256"/>
</svg>
