<svg width="314" height="65" viewBox="0 0 314 65" fill="none" xmlns="http://www.w3.org/2000/svg">
<path d="M79.8577 38.0345H76.6741V15.1162H79.8577V24.9394H83.4758V15.1162H86.7215V38.0415H83.4758V28.2114H79.8577V38.0345ZM91.3821 15.1162V32.8245C91.3821 33.6601 91.531 34.2359 91.8289 34.5588C92.133 34.8818 92.524 35.0433 93.0329 35.0433C93.5294 35.0433 93.9327 34.8818 94.2368 34.5588C94.5409 34.2359 94.6837 33.6531 94.6837 32.8245V15.1162H97.6935V32.5717C97.6935 34.4325 97.2902 35.8508 96.4896 36.8408C95.689 37.8309 94.5099 38.3294 92.9398 38.3294C91.3697 38.3294 90.1906 37.8309 89.39 36.8408C88.5894 35.8508 88.1861 34.4184 88.1861 32.5717V15.1162H91.3821ZM109.1 38.0345H105.885L105.333 33.8778H101.423L100.871 38.0345H97.948L101.194 15.1092H105.854L109.1 38.0345ZM101.839 30.7672H104.911L103.378 19.1677L101.839 30.7672ZM110.285 15.1162H113.469V34.7695H118.713V38.0485H110.292V15.1233L110.285 15.1162ZM119.607 15.1162H122.79V38.0415H119.607V15.1162ZM135.184 38.0345H131.969L131.417 33.8778H127.507L126.955 38.0345H124.031L127.277 15.1092H131.938L135.184 38.0345ZM127.923 30.7672H130.995L129.462 19.1677L127.923 30.7672ZM139.211 21.4286V38.0345H136.344V15.1162H140.341L143.611 28.8363V15.1162H146.447V38.0415H143.177L139.211 21.4286ZM159.213 31.3851L161.385 15.1022H165.81V38.0275H162.8V21.5831L160.597 38.0275H157.587L155.21 21.8148V38.0275H152.436V15.1022H156.861L159.207 31.3851H159.213ZM178.141 38.0345H174.926L174.374 33.8778H170.464L169.912 38.0345H166.989L170.235 15.1092H174.895L178.141 38.0345ZM170.88 30.7672H173.952L172.419 19.1677L170.88 30.7672ZM188.157 32.5788C188.157 34.4395 187.754 35.8578 186.953 36.8338C186.153 37.8168 184.974 38.3083 183.404 38.3083C181.84 38.3083 180.654 37.8098 179.854 36.8198C179.053 35.8297 178.65 34.3973 178.65 32.5507V20.6141C178.65 18.7534 179.053 17.335 179.854 16.345C180.654 15.355 181.834 14.8564 183.404 14.8564C184.968 14.8564 186.153 15.355 186.953 16.345C187.754 17.335 188.157 18.7604 188.157 20.6141V22.8399H185.147V20.3824C185.147 19.5538 184.999 18.9711 184.701 18.627C184.397 18.283 184.006 18.1215 183.497 18.1215C183 18.1215 182.597 18.29 182.293 18.627C181.989 18.9711 181.846 19.5538 181.846 20.3824V32.7824C181.846 33.6109 181.995 34.1937 182.293 34.5167C182.597 34.8397 182.988 35.0012 183.497 35.0012C183.993 35.0012 184.397 34.8397 184.701 34.5167C185.005 34.1937 185.147 33.6109 185.147 32.7824V29.5033H188.157V32.5788ZM192.706 38.0485H189.523V15.1233H192.706V24.9464H196.324V15.1233H199.57V38.0485H196.324V28.2184H192.706V38.0485ZM201.103 15.1233H204.287V38.0485H201.103V15.1233ZM208.693 21.4497V38.0556H205.826V15.1303H209.822L213.093 28.8503V15.1303H215.929V38.0556H212.658L208.693 21.4497ZM220.614 24.7849H224.99V28.0639H220.614V34.7765H226.113V38.0556H217.431V15.1303H226.113V18.4093H220.614V24.7919V24.7849ZM234.137 38.0556C234.1 37.9011 234.063 37.7677 234.025 37.6272C233.988 37.5009 233.951 37.3394 233.926 37.1428C233.895 36.9462 233.883 36.7004 233.864 36.3915C233.858 36.0825 233.852 35.7034 233.852 35.247V31.6309C233.852 30.5636 233.684 29.8053 233.361 29.3699C233.039 28.9346 232.505 28.7099 231.773 28.7099H230.674V38.0485H227.491V15.1303H232.294C233.951 15.1303 235.155 15.5656 235.893 16.4433C236.632 17.314 237.004 18.634 237.004 20.4035V22.201C237.004 24.5532 236.309 26.1119 234.925 26.8492C235.732 27.2143 236.284 27.8252 236.588 28.6608C236.893 29.4963 237.035 30.5215 237.035 31.7221V35.254C237.035 35.8157 237.06 36.3142 237.097 36.7425C237.135 37.1708 237.234 37.5992 237.383 38.0345H234.137V38.0556ZM230.662 18.4023V25.4449H231.909C232.505 25.4449 232.977 25.2764 233.318 24.9253C233.659 24.5742 233.827 23.9423 233.827 23.0225V20.7615C233.827 19.933 233.696 19.3292 233.436 18.964C233.181 18.5989 232.766 18.4093 232.201 18.4093H230.668V18.4023H230.662ZM241.113 30.4512L237.085 15.1233H240.411L242.838 25.5713L245.264 15.1233H248.305L244.278 30.4512V38.0556H241.094V30.4512H241.113ZM260.475 38.0556C260.438 37.9011 260.401 37.7677 260.363 37.6272C260.326 37.5009 260.289 37.3394 260.264 37.1428C260.233 36.9462 260.221 36.7004 260.202 36.3915C260.196 36.0825 260.19 35.7034 260.19 35.247V31.6309C260.19 30.5636 260.022 29.8053 259.699 29.3699C259.377 28.9346 258.843 28.7099 258.111 28.7099H257.012V38.0485H253.828V15.1303H258.632C260.289 15.1303 261.493 15.5656 262.231 16.4433C262.97 17.321 263.342 18.634 263.342 20.4035V22.201C263.342 24.5532 262.647 26.1119 261.263 26.8492C262.07 27.2143 262.622 27.8252 262.926 28.6608C263.23 29.4963 263.373 30.5215 263.373 31.7221V35.254C263.373 35.8157 263.398 36.3142 263.435 36.7425C263.473 37.1708 263.572 37.5992 263.721 38.0345H260.475V38.0556ZM257.006 18.4023V25.4449H258.253C258.849 25.4449 259.321 25.2764 259.662 24.9253C260.003 24.5742 260.171 23.9423 260.171 23.0225V20.7615C260.171 19.933 260.041 19.3292 259.78 18.964C259.526 18.5989 259.11 18.4093 258.545 18.4093H257.012V18.4023H257.006ZM268.177 15.1233V32.8315C268.177 33.6671 268.326 34.2429 268.623 34.5659C268.928 34.8889 269.318 35.0503 269.827 35.0503C270.324 35.0503 270.727 34.8889 271.031 34.5659C271.335 34.2429 271.478 33.6601 271.478 32.8315V15.1233H274.488V32.5788C274.488 34.4395 274.085 35.8578 273.284 36.8479C272.484 37.8379 271.304 38.3364 269.734 38.3364C268.164 38.3364 266.985 37.8379 266.185 36.8479C265.384 35.8578 264.981 34.4254 264.981 32.5788V15.1233H268.177ZM275.822 20.6352C275.822 18.7745 276.213 17.3491 276.995 16.345C277.777 15.355 278.95 14.8564 280.514 14.8564C282.078 14.8564 283.251 15.355 284.033 16.345C284.815 17.335 285.206 18.7604 285.206 20.6141V21.4988H282.196V20.3894C282.196 19.5609 282.053 18.9781 281.78 18.634C281.501 18.29 281.11 18.1285 280.607 18.1285C280.111 18.1285 279.713 18.297 279.434 18.634C279.155 18.9781 279.018 19.5609 279.018 20.3894C279.018 21.1758 279.167 21.8709 279.478 22.4678C279.788 23.0646 280.173 23.6334 280.638 24.174C281.097 24.7076 281.6 25.2413 282.128 25.7749C282.655 26.3156 283.158 26.8984 283.617 27.5303C284.076 28.1622 284.467 28.8854 284.777 29.6929C285.088 30.5004 285.237 31.4483 285.237 32.5437C285.237 34.4044 284.833 35.8227 284.033 36.8127C283.232 37.8028 282.053 38.3013 280.483 38.3013C278.913 38.3013 277.734 37.8028 276.933 36.8127C276.133 35.8227 275.729 34.3903 275.729 32.5437V30.9708H278.739V32.7824C278.739 33.618 278.888 34.2007 279.186 34.5308C279.49 34.8678 279.881 35.0293 280.39 35.0293C280.886 35.0293 281.29 34.8678 281.594 34.5448C281.898 34.2218 282.041 33.639 282.041 32.8105C282.041 32.0241 281.892 31.3289 281.581 30.7321C281.271 30.1212 280.886 29.5595 280.421 29.0189C279.962 28.4852 279.459 27.9516 278.931 27.418C278.404 26.8843 277.901 26.2945 277.442 25.6626C276.983 25.0306 276.592 24.3074 276.282 23.4999C275.971 22.6925 275.822 21.7375 275.822 20.6422V20.6352ZM286.41 20.6352C286.41 18.7745 286.801 17.3491 287.583 16.345C288.365 15.355 289.537 14.8564 291.101 14.8564C292.665 14.8564 293.838 15.355 294.62 16.345C295.402 17.335 295.793 18.7604 295.793 20.6141V21.4988H292.783V20.3894C292.783 19.5609 292.64 18.9781 292.367 18.634C292.088 18.29 291.691 18.1285 291.194 18.1285C290.698 18.1285 290.301 18.297 290.022 18.634C289.742 18.9781 289.606 19.5609 289.606 20.3894C289.606 21.1758 289.755 21.8709 290.065 22.4678C290.375 23.0646 290.76 23.6334 291.225 24.174C291.685 24.7076 292.187 25.2413 292.715 25.7749C293.242 26.3156 293.745 26.8984 294.204 27.5303C294.664 28.1622 295.054 28.8854 295.365 29.6929C295.675 30.5004 295.824 31.4483 295.824 32.5437C295.824 34.4044 295.421 35.8227 294.62 36.8127C293.819 37.8028 292.64 38.3013 291.07 38.3013C289.5 38.3013 288.321 37.8028 287.52 36.8127C286.72 35.8227 286.317 34.3903 286.317 32.5437V30.9708H289.326V32.7824C289.326 33.618 289.475 34.2007 289.773 34.5308C290.077 34.8678 290.468 35.0293 290.977 35.0293C291.474 35.0293 291.877 34.8678 292.181 34.5448C292.485 34.2218 292.628 33.639 292.628 32.8105C292.628 32.0241 292.479 31.3289 292.169 30.7321C291.858 30.1212 291.474 29.5595 291.008 29.0189C290.549 28.4852 290.046 27.9516 289.519 27.418C288.991 26.8843 288.489 26.2945 288.029 25.6626C287.57 25.0306 287.179 24.3074 286.869 23.4999C286.559 22.6925 286.41 21.7375 286.41 20.6422V20.6352ZM297.127 15.1233H300.311V38.0485H297.127V15.1233ZM312.704 38.0485H309.489L308.937 33.8918H305.027L304.475 38.0485H301.552L304.798 15.1233H309.458L312.704 38.0485ZM305.437 30.7813H308.509L306.976 19.1817L305.437 30.7813Z" fill="white"/>
<path d="M77.3505 53.3209L75.5508 47.4017H76.6554L77.7911 51.6708L78.7654 47.4017H79.7832L78.1449 53.6509C77.9401 54.4162 77.7477 54.9499 77.5491 55.2588C77.3629 55.5678 77.1271 55.7293 76.8664 55.7293C76.612 55.7293 76.3762 55.6941 76.1838 55.6239V54.3881C76.3513 54.4022 76.4693 54.4162 76.5499 54.4162C76.792 54.4162 76.9533 54.346 77.0526 54.2126C77.1519 54.0792 77.2388 53.7773 77.3381 53.3209H77.3505ZM82.7497 55.638V47.4087L86.6532 47.4158V55.638H85.6789V48.806H83.7364V55.638H82.7497ZM94.4975 55.652H93.4301L93.0143 53.7913H91.0532L90.6498 55.652H89.6072L91.5 47.4298H92.555L94.4975 55.652ZM92.6978 52.4011L92.0213 49.3467L91.3573 52.4011H92.6978ZM97.4825 55.659V47.4368H98.4569V50.9406C98.6741 50.9055 98.8354 50.8072 98.9161 50.6316C98.9968 50.4631 99.1085 50.0629 99.245 49.431C99.3815 48.792 99.5243 48.3356 99.6732 48.0477C99.8222 47.7598 99.9835 47.5773 100.145 47.5211C100.312 47.4649 100.604 47.4087 101.008 47.3877V48.6094H100.871C100.592 48.6094 100.412 48.6937 100.312 48.8833C100.213 49.0588 100.108 49.4029 100.002 49.9154C99.8966 50.428 99.8098 50.758 99.7291 50.9265C99.6546 51.0951 99.5367 51.2565 99.3691 51.418C99.5863 51.5444 99.7601 51.741 99.8966 52.0219C100.033 52.3027 100.195 52.7592 100.393 53.4192L101.057 55.6731H99.9091L99.3133 53.5456C99.1643 52.9979 99.034 52.6257 98.9285 52.4081C98.823 52.1974 98.6555 52.0851 98.4445 52.0781V55.6731H97.4701V55.659H97.4825ZM103.875 51.6006C103.875 50.6246 103.98 49.8171 104.191 49.1852C104.402 48.5533 104.675 48.0828 105.01 47.7739C105.352 47.4649 105.761 47.3034 106.233 47.3175C106.934 47.3175 107.499 47.6826 107.94 48.4198C108.374 49.1571 108.604 50.2033 108.604 51.5655C108.604 52.9417 108.368 54.016 107.902 54.7884C107.499 55.4695 106.94 55.8065 106.239 55.8065C105.532 55.8065 104.973 55.4695 104.57 54.7884C104.11 54.016 103.875 52.9558 103.875 51.6006ZM104.892 51.5514C104.892 52.4923 105.023 53.2015 105.283 53.679C105.544 54.1564 105.867 54.3881 106.252 54.3881C106.642 54.3881 106.959 54.1564 107.213 53.693C107.468 53.2296 107.598 52.5134 107.598 51.5304C107.598 50.5755 107.48 49.8803 107.232 49.4239C106.984 48.9675 106.661 48.7428 106.258 48.7358C105.861 48.7358 105.525 48.9675 105.283 49.4239C105.029 49.8803 104.905 50.5895 104.905 51.5585H104.892V51.5514ZM113.773 47.4509C114.307 47.4509 114.685 47.5211 114.903 47.6545C115.12 47.7879 115.3 48.0266 115.449 48.3707C115.598 48.7077 115.672 49.0939 115.672 49.5293C115.672 49.9295 115.61 50.2876 115.486 50.6035C115.356 50.9265 115.194 51.1582 114.989 51.3127C115.275 51.4602 115.498 51.6989 115.666 52.043C115.833 52.394 115.908 52.8083 115.908 53.2998C115.908 53.8966 115.802 54.4022 115.591 54.8165C115.38 55.2307 115.138 55.4765 114.853 55.5818C114.661 55.652 114.201 55.6871 113.475 55.6871H111.812V47.4509H113.773ZM112.799 48.8201V50.7229H113.45C113.841 50.7229 114.083 50.7159 114.183 50.6948C114.35 50.6597 114.481 50.5614 114.58 50.3999C114.679 50.2384 114.723 50.0278 114.723 49.7539C114.723 49.5082 114.685 49.3116 114.611 49.1571C114.536 49.0026 114.437 48.9114 114.325 48.8692C114.214 48.8341 113.897 48.8131 113.376 48.8131H112.805L112.799 48.8201ZM112.799 52.0991V54.2969H113.717C114.114 54.2969 114.381 54.2688 114.493 54.2126C114.605 54.1564 114.704 54.0441 114.778 53.8756C114.853 53.7071 114.89 53.4894 114.89 53.2296C114.89 52.9558 114.847 52.7381 114.76 52.5696C114.679 52.4011 114.567 52.2817 114.431 52.2115C114.294 52.1413 114.015 52.1062 113.587 52.1062H112.793H112.799V52.0991ZM118.986 51.6287C118.986 50.6527 119.092 49.8452 119.303 49.2133C119.514 48.5813 119.787 48.1109 120.122 47.802C120.463 47.493 120.873 47.3315 121.344 47.3456C122.046 47.3456 122.61 47.7107 123.051 48.4479C123.485 49.1852 123.715 50.2314 123.715 51.5936C123.715 52.9698 123.479 54.0441 123.014 54.8165C122.61 55.4975 122.052 55.8346 121.351 55.8346C120.643 55.8346 120.085 55.4975 119.681 54.8165C119.222 54.0441 118.986 52.9838 118.986 51.6287ZM120.004 51.5795C120.004 52.5204 120.134 53.2296 120.395 53.7071C120.655 54.1845 120.978 54.4162 121.363 54.4162C121.754 54.4162 122.07 54.1845 122.325 53.7211C122.579 53.2507 122.71 52.5415 122.71 51.5585C122.71 50.6035 122.592 49.9084 122.343 49.452C122.095 48.9956 121.773 48.7709 121.369 48.7709C120.972 48.7709 120.637 49.0026 120.395 49.459C120.14 49.9154 120.016 50.6246 120.016 51.5936L120.004 51.5795ZM126.849 50.421V47.479H127.823V49.6627C127.823 50.1191 127.836 50.4631 127.867 50.6808C127.898 50.8984 127.972 51.088 128.109 51.2425C128.239 51.397 128.45 51.4742 128.723 51.4742C129.139 51.4742 129.474 51.3268 129.722 51.0319V47.486H130.697V55.7082H129.722V52.4011C129.338 52.6889 128.947 52.8364 128.556 52.8364C128.016 52.8364 127.594 52.6257 127.29 52.2044C126.992 51.7761 126.837 51.1934 126.837 50.428V50.421H126.849ZM134.166 55.7082V47.486H135.14V50.7299H137.083V47.486H138.057V55.7082H137.083V52.1132H135.14V55.7082H134.166ZM141.327 51.6638C141.327 50.6878 141.433 49.8803 141.644 49.2484C141.855 48.6164 142.128 48.146 142.463 47.8371C142.798 47.5281 143.214 47.3666 143.686 47.3807C144.387 47.3807 144.952 47.7458 145.392 48.483C145.827 49.2203 146.056 50.2665 146.056 51.6287C146.056 53.0049 145.821 54.0792 145.355 54.8516C144.952 55.5327 144.393 55.8697 143.692 55.8697C142.984 55.8697 142.426 55.5327 142.022 54.8516C141.563 54.0792 141.327 53.0119 141.327 51.6638ZM142.345 51.6146C142.345 52.5555 142.476 53.2647 142.736 53.7422C142.997 54.2196 143.32 54.4513 143.704 54.4513C144.095 54.4513 144.412 54.2196 144.666 53.7562C144.921 53.2858 145.051 52.5625 145.051 51.5936C145.051 50.6387 144.933 49.9435 144.685 49.4871C144.437 49.0307 144.114 48.806 143.71 48.799C143.313 48.799 142.978 49.0307 142.736 49.4871C142.482 49.9435 142.358 50.6527 142.358 51.6217H142.345V51.6146ZM149.277 55.7363V47.5141L152.895 47.5211V48.9043H150.264V50.7159H152.715V52.0991H150.264V54.339H152.995V55.7222L149.29 55.7152L149.277 55.7363ZM159.511 55.7503V47.5281H160.448V53.0049L162.409 47.5281H163.402V55.7503H162.465V50.3929L160.504 55.7503H159.505H159.511ZM172.003 55.7714V47.5422L175.907 47.5492V55.7714H174.933V48.9394H172.99V55.7714H172.003ZM179.357 55.7784V47.5562H180.294V53.033L182.256 47.5562H183.248V55.7784H182.311V50.421L180.35 55.7784H179.351H179.357ZM192.979 54.4092V57.59H192.173V55.7924L186.73 55.7854V47.5632H187.704V54.3952H189.125V47.5632H190.1V54.3952H191.558V47.5632H192.533V54.4092H192.979ZM196.101 55.8065V47.5773L199.719 47.5843V48.9675H197.088V50.7791H199.539V52.1623H197.088V54.4022H199.818V55.7854L196.113 55.7784L196.101 55.8065ZM205.044 47.5913C205.577 47.5913 205.956 47.6615 206.173 47.7949C206.39 47.9283 206.57 48.1671 206.719 48.5111C206.868 48.8482 206.943 49.2343 206.943 49.6697C206.943 50.0699 206.881 50.428 206.757 50.744C206.626 51.067 206.465 51.2987 206.26 51.4531C206.546 51.6006 206.769 51.8393 206.937 52.1834C207.104 52.5345 207.179 52.9487 207.179 53.4402C207.179 54.0371 207.073 54.5426 206.862 54.9569C206.651 55.3712 206.409 55.6169 206.124 55.7222C205.931 55.7924 205.472 55.8276 204.746 55.8276H203.083V47.5913H205.044ZM204.069 48.9605V50.8633H204.721C205.112 50.8633 205.354 50.8563 205.453 50.8353C205.621 50.8001 205.751 50.7018 205.85 50.5404C205.95 50.3789 205.993 50.1682 205.993 49.8944C205.993 49.6486 205.956 49.452 205.882 49.2975C205.807 49.1431 205.708 49.0518 205.596 49.0097C205.484 48.9746 205.168 48.9535 204.647 48.9535H204.076L204.069 48.9605ZM204.069 52.2325V54.4303H204.988C205.385 54.4303 205.652 54.4022 205.764 54.346C205.875 54.2898 205.975 54.1775 206.049 54.009C206.124 53.8405 206.161 53.6228 206.161 53.363C206.161 53.0892 206.117 52.8715 206.03 52.703C205.95 52.5345 205.838 52.4151 205.702 52.3449C205.565 52.2747 205.286 52.2396 204.858 52.2396H204.063H204.069V52.2325ZM210.257 51.7621C210.257 50.7861 210.362 49.9786 210.573 49.3467C210.784 48.7148 211.057 48.2443 211.392 47.9354C211.727 47.6264 212.143 47.4649 212.615 47.479C213.316 47.479 213.881 47.8441 214.322 48.5813C214.756 49.3186 214.986 50.3648 214.986 51.727C214.986 53.1032 214.75 54.1775 214.284 54.9499C213.881 55.631 213.322 55.968 212.621 55.968C211.914 55.968 211.355 55.631 210.952 54.9499C210.486 54.1775 210.257 53.1172 210.257 51.7621ZM211.268 51.7129C211.268 52.6538 211.399 53.363 211.659 53.8405C211.92 54.3179 212.243 54.5496 212.627 54.5496C213.018 54.5496 213.335 54.3179 213.589 53.8545C213.844 53.3841 213.974 52.6609 213.974 51.6919C213.974 50.737 213.856 50.0418 213.608 49.5854C213.36 49.129 213.037 48.9043 212.634 48.8973C212.236 48.8973 211.901 49.129 211.659 49.5854C211.405 50.0418 211.281 50.751 211.281 51.72H211.268V51.7129ZM218.2 55.8416V47.6124L221.818 47.6194V49.0026H219.187V50.8142H221.638V52.1974H219.187V54.4373H221.918V55.8205L218.213 55.8135L218.2 55.8416ZM228.229 51.7902C228.229 50.8142 228.335 50.0067 228.546 49.3748C228.757 48.7428 229.03 48.2724 229.365 47.9635C229.706 47.6545 230.116 47.493 230.587 47.507C231.289 47.507 231.853 47.8722 232.294 48.6094C232.728 49.3467 232.958 50.3929 232.958 51.7551C232.958 53.1313 232.722 54.2056 232.257 54.978C231.853 55.659 231.295 55.9961 230.594 55.9961C229.886 55.9961 229.327 55.659 228.924 54.978C228.465 54.2056 228.229 53.1453 228.229 51.7902ZM229.247 51.741C229.247 52.6819 229.377 53.3911 229.638 53.8685C229.898 54.346 230.221 54.5777 230.606 54.5777C230.997 54.5777 231.313 54.346 231.568 53.8826C231.822 53.4122 231.953 52.703 231.953 51.72C231.953 50.765 231.835 50.0699 231.586 49.6135C231.338 49.1571 231.016 48.9324 230.612 48.9324C230.215 48.9324 229.88 49.1641 229.638 49.6205C229.383 50.0769 229.259 50.7861 229.259 51.7551L229.247 51.741ZM236.21 47.6405L239.859 47.6475V49.0307H237.19V50.9125H238.587C239.114 50.9125 239.524 51.1442 239.828 51.5936C240.132 52.043 240.281 52.6468 240.281 53.3981C240.281 54.0511 240.151 54.6199 239.896 55.1184C239.642 55.6099 239.207 55.8697 238.587 55.8697H236.204H236.21V47.6405ZM237.184 52.3098V54.4794H238.221C238.494 54.4794 238.686 54.4513 238.804 54.4022C238.922 54.353 239.027 54.2337 239.12 54.0511C239.214 53.8756 239.257 53.6509 239.257 53.4122C239.257 52.6749 238.928 52.3098 238.258 52.3098H237.178H237.184ZM243.328 51.8183C243.328 50.8423 243.434 50.0348 243.645 49.4029C243.856 48.7709 244.129 48.3005 244.464 47.9915C244.805 47.6826 245.215 47.5211 245.686 47.5351C246.388 47.5351 246.952 47.9003 247.393 48.6375C247.827 49.3748 248.057 50.421 248.057 51.7832C248.057 53.1594 247.821 54.2337 247.356 55.006C246.952 55.6871 246.394 56.0242 245.693 56.0242C244.985 56.0242 244.426 55.6871 244.023 55.006C243.558 54.2337 243.328 53.1664 243.328 51.8183ZM244.34 51.7621C244.34 52.703 244.47 53.4122 244.731 53.8896C244.991 54.3671 245.314 54.5988 245.699 54.5988C246.09 54.5988 246.406 54.3671 246.661 53.9037C246.915 53.4402 247.045 52.724 247.045 51.741C247.045 50.7861 246.927 50.091 246.679 49.6346C246.431 49.1782 246.108 48.9535 245.705 48.9535C245.308 48.9535 244.973 49.1852 244.731 49.6416C244.476 50.098 244.352 50.8072 244.352 51.7761L244.34 51.7621ZM251.272 55.8907V47.6615H252.86C253.456 47.6615 253.835 47.7037 254.021 47.7809C254.306 47.9073 254.548 48.1811 254.735 48.5954C254.921 49.0097 255.02 49.5503 255.02 50.2033C255.02 50.8001 254.939 51.2917 254.778 51.6989C254.61 52.0991 254.412 52.38 254.17 52.5415C253.928 52.703 253.506 52.7872 252.904 52.7872H252.258V55.8907H251.272ZM252.252 49.0588V51.397H252.798C253.164 51.397 253.413 51.3619 253.549 51.2917C253.686 51.2214 253.791 51.0951 253.872 50.9055C253.953 50.7159 254.002 50.4912 254.002 50.2174C254.002 49.9435 253.959 49.7188 253.872 49.5293C253.779 49.3397 253.68 49.2133 253.549 49.1571C253.419 49.1009 253.152 49.0658 252.736 49.0658H252.252V49.0588ZM259.557 53.5947L257.757 47.6756H258.861L259.997 51.9447L260.972 47.6756H261.989L260.351 53.9247C260.146 54.6901 259.954 55.2237 259.755 55.5327C259.569 55.8416 259.333 56.0031 259.073 56.0031C258.818 56.0031 258.588 55.968 258.39 55.8978V54.662C258.557 54.676 258.675 54.6901 258.756 54.6901C258.998 54.6901 259.159 54.6199 259.259 54.4864C259.358 54.353 259.445 54.0511 259.544 53.5947H259.557ZM269.12 54.5216V57.7023H268.313V55.9048L265.229 55.8978V57.6953H264.422V54.5145H264.825C264.981 53.9388 265.111 53.2436 265.192 52.4291C265.285 51.6146 265.322 50.3929 265.322 48.7779V47.6826L268.692 47.6896V54.5216H269.12ZM266.271 49.0799C266.271 51.5023 266.135 53.3279 265.874 54.5216H267.73V49.0799H266.271ZM272.043 51.8604C272.043 50.8844 272.148 50.0769 272.359 49.445C272.57 48.8131 272.843 48.3426 273.179 48.0337C273.52 47.7247 273.929 47.5632 274.401 47.5773C275.102 47.5773 275.667 47.9424 276.108 48.6796C276.542 49.4169 276.772 50.4631 276.772 51.8253C276.772 53.2015 276.536 54.2758 276.071 55.0482C275.667 55.7293 275.109 56.0663 274.407 56.0663C273.7 56.0663 273.141 55.7293 272.738 55.0482C272.279 54.2758 272.043 53.2085 272.043 51.8604ZM273.061 51.8042C273.061 52.7451 273.191 53.4543 273.452 53.9317C273.712 54.4092 274.035 54.6409 274.42 54.6409C274.811 54.6409 275.127 54.4092 275.382 53.9458C275.636 53.4753 275.766 52.7662 275.766 51.7832C275.766 50.8282 275.649 50.1331 275.4 49.6767C275.152 49.2203 274.829 48.9956 274.426 48.9956C274.029 48.9956 273.694 49.2273 273.452 49.6837C273.197 50.1401 273.073 50.8493 273.073 51.8183L273.061 51.8042ZM281.948 47.7037C282.481 47.7037 282.86 47.7739 283.077 47.9073C283.294 48.0407 283.474 48.2794 283.623 48.6235C283.772 48.9605 283.847 49.3467 283.847 49.782C283.847 50.1823 283.785 50.5403 283.66 50.8563C283.53 51.1793 283.369 51.411 283.164 51.5655C283.449 51.7129 283.673 51.9517 283.84 52.2957C284.008 52.6468 284.082 53.0611 284.082 53.5526C284.082 54.1494 283.977 54.655 283.766 55.0692C283.555 55.4835 283.313 55.7293 283.027 55.8346C282.835 55.9048 282.376 55.9399 281.65 55.9399H279.986V47.7037H281.948ZM280.967 49.0799V50.9827H281.619C282.01 50.9827 282.252 50.9757 282.351 50.9546C282.519 50.9195 282.649 50.8212 282.748 50.6597C282.847 50.4982 282.891 50.2876 282.891 50.0137C282.891 49.768 282.854 49.5714 282.779 49.4169C282.705 49.2624 282.605 49.1712 282.494 49.129C282.382 49.0939 282.065 49.0728 281.544 49.0728H280.973L280.967 49.0799ZM280.967 52.3519V54.5496H281.885C282.283 54.5496 282.55 54.5216 282.661 54.4654C282.773 54.4092 282.872 54.2969 282.947 54.1283C283.021 53.9598 283.058 53.7422 283.058 53.4824C283.058 53.2085 283.015 52.9909 282.928 52.8223C282.847 52.6538 282.736 52.5345 282.599 52.4642C282.463 52.394 282.183 52.3589 281.755 52.3589H280.961H280.967V52.3519ZM291.753 55.9469H290.686L290.27 54.0862H288.309L287.905 55.9469H286.863L288.755 47.7247H289.81L291.753 55.9469ZM289.947 52.703L289.271 49.6486L288.607 52.703H289.947ZM294.719 55.961V47.7317H295.694V50.9757H297.636V47.7317H298.61V55.9539H297.636V52.3589H295.694V55.9539H294.719V55.961ZM302.086 55.968V47.7388H303.023V53.2155L304.984 47.7388H305.977V55.961H305.04V50.6035L303.079 55.961H302.08H302.086V55.968ZM309.434 55.975V47.7528L313.052 47.7598V49.1431H310.42V50.9546H312.872V52.3379H310.42V54.5777H313.151V55.961L309.446 55.9539L309.434 55.975Z" fill="white"/>
<path fill-rule="evenodd" clip-rule="evenodd" d="M24.4231 33.4442V42.7458H21.4818V21.0368H24.4231V30.2317H28.9481V21.0368H31.8894V42.7458H28.9481V33.4442H24.4231ZM42.1091 39.723V42.7497H34.6313V21.0368H37.5725V39.723H42.1091Z" fill="white"/>
<path fill-rule="evenodd" clip-rule="evenodd" d="M35.7114 60.9219C45.9401 55.062 54.4213 46.5807 60.2812 36.352C61.6859 33.9 61.6859 30.8873 60.2812 28.4353C54.4213 18.2066 45.9401 9.72535 35.7114 3.86545C33.2594 2.46074 30.2466 2.46074 27.7947 3.86545C17.566 9.72534 9.08472 18.2066 3.22482 28.4353C1.82012 30.8873 1.82012 33.9 3.22482 36.352C9.08472 46.5807 17.566 55.062 27.7947 60.9219C30.2466 62.3266 33.2594 62.3266 35.7114 60.9219ZM1.34079 27.356C-0.446932 30.4765 -0.446931 34.3108 1.3408 37.4313C7.39261 47.995 16.1517 56.7541 26.7153 62.8059C29.8359 64.5936 33.6702 64.5936 36.7907 62.8059C47.3544 56.7541 56.1134 47.995 62.1653 37.4313C63.953 34.3108 63.953 30.4765 62.1653 27.356C56.1134 16.7923 47.3544 8.03324 36.7907 1.98142C33.6702 0.193694 29.8359 0.193694 26.7153 1.98142C16.1516 8.03324 7.39261 16.7923 1.34079 27.356Z" fill="white"/>
<path fill-rule="evenodd" clip-rule="evenodd" d="M31.7954 52.5205C42.8878 52.5205 51.8799 43.5284 51.8799 32.4361C51.8799 21.3437 42.8878 12.3516 31.7954 12.3516C20.7031 12.3516 11.711 21.3437 11.711 32.4361C11.711 43.5284 20.7031 52.5205 31.7954 52.5205ZM31.7954 54.6918C44.087 54.6918 54.0512 44.7276 54.0512 32.4361C54.0512 20.1445 44.087 10.1803 31.7954 10.1803C19.5039 10.1803 9.53967 20.1445 9.53967 32.4361C9.53967 44.7276 19.5039 54.6918 31.7954 54.6918Z" fill="white"/>
<path fill-rule="evenodd" clip-rule="evenodd" d="M31.7954 49.2636C41.089 49.2636 48.623 41.7297 48.623 32.4361C48.623 23.1425 41.089 15.6085 31.7954 15.6085C22.5019 15.6085 14.9679 23.1425 14.9679 32.4361C14.9679 41.7297 22.5019 49.2636 31.7954 49.2636ZM31.7954 50.3492C41.6886 50.3492 49.7086 42.3292 49.7086 32.4361C49.7086 22.5429 41.6886 14.5229 31.7954 14.5229C21.9023 14.5229 13.8823 22.5429 13.8823 32.4361C13.8823 42.3292 21.9023 50.3492 31.7954 50.3492Z" fill="white"/>
</svg>
